  0
SECTION
  2
BLOCKS
  0
ENDSEC
  0
SECTION
  2
ENTITIES
  0
LINE
  8
0
 10
147.897
 20
-170.362
 11
190.897
 21
-170.362
  0
LINE
  8
0
 10
190.897
 20
-170.362
 11
190.897
 21
170.362
  0
LINE
  8
0
 10
190.897
 20
170.362
 11
147.897
 21
170.362
  0
LINE
  8
0
 10
147.897
 20
170.362
 11
147.897
 21
233.362
  0
LINE
  8
0
 10
147.897
 20
233.362
 11
-147.897
 21
233.362
  0
LINE
  8
0
 10
-147.897
 20
233.362
 11
-147.897
 21
170.362
  0
LINE
  8
0
 10
-147.897
 20
170.362
 11
-190.897
 21
170.362
  0
LINE
  8
0
 10
-190.897
 20
170.362
 11
-190.897
 21
-170.362
  0
LINE
  8
0
 10
-190.897
 20
-170.362
 11
-147.897
 21
-170.362
  0
LINE
  8
0
 10
-147.897
 20
-170.362
 11
-147.897
 21
-233.362
  0
LINE
  8
0
 10
-147.897
 20
-233.362
 11
147.897
 21
-233.362
  0
LINE
  8
0
 10
147.897
 20
-233.362
 11
147.897
 21
-170.362
  0
LINE
  8
0
 10
-0.100464
 20
219.766
 11
-0.200531
 21
219.775
  0
LINE
  8
0
 10
-0.200531
 20
219.775
 11
-0.299805
 21
219.791
  0
LINE
  8
0
 10
-0.299805
 20
219.791
 11
-0.397903
 21
219.813
  0
LINE
  8
0
 10
-0.397903
 20
219.813
 11
-0.494415
 21
219.841
  0
LINE
  8
0
 10
-0.494415
 20
219.841
 11
-0.588989
 21
219.875
  0
LINE
  8
0
 10
-0.588989
 20
219.875
 11
-0.681244
 21
219.915
  0
LINE
  8
0
 10
-0.681244
 20
219.915
 11
-0.770798
 21
219.96
  0
LINE
  8
0
 10
-0.770798
 20
219.96
 11
-0.857315
 21
220.012
  0
LINE
  8
0
 10
-0.857315
 20
220.012
 11
-0.940445
 21
220.068
  0
LINE
  8
0
 10
-0.940445
 20
220.068
 11
-1.01987
 21
220.13
  0
LINE
  8
0
 10
-1.01987
 20
220.13
 11
-1.09526
 21
220.196
  0
LINE
  8
0
 10
-1.09526
 20
220.196
 11
-1.16634
 21
220.267
  0
LINE
  8
0
 10
-1.16634
 20
220.267
 11
-1.23282
 21
220.343
  0
LINE
  8
0
 10
-1.23282
 20
220.343
 11
-1.29442
 21
220.422
  0
LINE
  8
0
 10
-1.29442
 20
220.422
 11
-1.35092
 21
220.505
  0
LINE
  8
0
 10
-1.35092
 20
220.505
 11
-1.40208
 21
220.592
  0
LINE
  8
0
 10
-1.40208
 20
220.592
 11
-1.44771
 21
220.681
  0
LINE
  8
0
 10
-1.44771
 20
220.681
 11
-1.48764
 21
220.773
  0
LINE
  8
0
 10
-1.48764
 20
220.773
 11
-1.52168
 21
220.868
  0
LINE
  8
0
 10
-1.52168
 20
220.868
 11
-1.54973
 21
220.965
  0
LINE
  8
0
 10
-1.54973
 20
220.965
 11
-1.57166
 21
221.063
  0
LINE
  8
0
 10
-1.57166
 20
221.063
 11
-1.58737
 21
221.162
  0
LINE
  8
0
 10
-1.58737
 20
221.162
 11
-1.59683
 21
221.262
  0
LINE
  8
0
 10
-1.59683
 20
221.262
 11
-1.59999
 21
221.362
  0
LINE
  8
0
 10
-1.59999
 20
221.362
 11
-1.59683
 21
221.463
  0
LINE
  8
0
 10
-1.59683
 20
221.463
 11
-1.58737
 21
221.563
  0
LINE
  8
0
 10
-1.58737
 20
221.563
 11
-1.57166
 21
221.662
  0
LINE
  8
0
 10
-1.57166
 20
221.662
 11
-1.54973
 21
221.76
  0
LINE
  8
0
 10
-1.54973
 20
221.76
 11
-1.52168
 21
221.857
  0
LINE
  8
0
 10
-1.52168
 20
221.857
 11
-1.48764
 21
221.951
  0
LINE
  8
0
 10
-1.48764
 20
221.951
 11
-1.44771
 21
222.044
  0
LINE
  8
0
 10
-1.44771
 20
222.044
 11
-1.40208
 21
222.133
  0
LINE
  8
0
 10
-1.40208
 20
222.133
 11
-1.35092
 21
222.22
  0
LINE
  8
0
 10
-1.35092
 20
222.22
 11
-1.29442
 21
222.303
  0
LINE
  8
0
 10
-1.29442
 20
222.303
 11
-1.23282
 21
222.382
  0
LINE
  8
0
 10
-1.23282
 20
222.382
 11
-1.16634
 21
222.458
  0
LINE
  8
0
 10
-1.16634
 20
222.458
 11
-1.09526
 21
222.529
  0
LINE
  8
0
 10
-1.09526
 20
222.529
 11
-1.01987
 21
222.595
  0
LINE
  8
0
 10
-1.01987
 20
222.595
 11
-0.940445
 21
222.657
  0
LINE
  8
0
 10
-0.940445
 20
222.657
 11
-0.857315
 21
222.713
  0
LINE
  8
0
 10
-0.857315
 20
222.713
 11
-0.770798
 21
222.765
  0
LINE
  8
0
 10
-0.770798
 20
222.765
 11
-0.681244
 21
222.81
  0
LINE
  8
0
 10
-0.681244
 20
222.81
 11
-0.588989
 21
222.85
  0
LINE
  8
0
 10
-0.588989
 20
222.85
 11
-0.494415
 21
222.884
  0
LINE
  8
0
 10
-0.494415
 20
222.884
 11
-0.397903
 21
222.912
  0
LINE
  8
0
 10
-0.397903
 20
222.912
 11
-0.299805
 21
222.934
  0
LINE
  8
0
 10
-0.299805
 20
222.934
 11
-0.200531
 21
222.95
  0
LINE
  8
0
 10
-0.200531
 20
222.95
 11
-0.100464
 21
222.959
  0
LINE
  8
0
 10
-0.100464
 20
222.959
 11
0
 21
222.962
  0
LINE
  8
0
 10
0
 20
222.962
 11
0.100464
 21
222.959
  0
LINE
  8
0
 10
0.100464
 20
222.959
 11
0.200531
 21
222.95
  0
LINE
  8
0
 10
0.200531
 20
222.95
 11
0.299805
 21
222.934
  0
LINE
  8
0
 10
0.299805
 20
222.934
 11
0.397903
 21
222.912
  0
LINE
  8
0
 10
0.397903
 20
222.912
 11
0.494415
 21
222.884
  0
LINE
  8
0
 10
0.494415
 20
222.884
 11
0.588989
 21
222.85
  0
LINE
  8
0
 10
0.588989
 20
222.85
 11
0.681244
 21
222.81
  0
LINE
  8
0
 10
0.681244
 20
222.81
 11
0.770798
 21
222.765
  0
LINE
  8
0
 10
0.770798
 20
222.765
 11
0.857315
 21
222.713
  0
LINE
  8
0
 10
0.857315
 20
222.713
 11
0.940445
 21
222.657
  0
LINE
  8
0
 10
0.940445
 20
222.657
 11
1.01987
 21
222.595
  0
LINE
  8
0
 10
1.01987
 20
222.595
 11
1.09526
 21
222.529
  0
LINE
  8
0
 10
1.09526
 20
222.529
 11
1.16634
 21
222.458
  0
LINE
  8
0
 10
1.16634
 20
222.458
 11
1.23282
 21
222.382
  0
LINE
  8
0
 10
1.23282
 20
222.382
 11
1.29442
 21
222.303
  0
LINE
  8
0
 10
1.29442
 20
222.303
 11
1.35092
 21
222.22
  0
LINE
  8
0
 10
1.35092
 20
222.22
 11
1.40208
 21
222.133
  0
LINE
  8
0
 10
1.40208
 20
222.133
 11
1.44771
 21
222.044
  0
LINE
  8
0
 10
1.44771
 20
222.044
 11
1.48764
 21
221.951
  0
LINE
  8
0
 10
1.48764
 20
221.951
 11
1.52168
 21
221.857
  0
LINE
  8
0
 10
1.52168
 20
221.857
 11
1.54973
 21
221.76
  0
LINE
  8
0
 10
1.54973
 20
221.76
 11
1.57166
 21
221.662
  0
LINE
  8
0
 10
1.57166
 20
221.662
 11
1.58737
 21
221.563
  0
LINE
  8
0
 10
1.58737
 20
221.563
 11
1.59683
 21
221.463
  0
LINE
  8
0
 10
1.59683
 20
221.463
 11
1.59999
 21
221.362
  0
LINE
  8
0
 10
1.59999
 20
221.362
 11
1.59683
 21
221.262
  0
LINE
  8
0
 10
1.59683
 20
221.262
 11
1.58737
 21
221.162
  0
LINE
  8
0
 10
1.58737
 20
221.162
 11
1.57166
 21
221.063
  0
LINE
  8
0
 10
1.57166
 20
221.063
 11
1.54973
 21
220.965
  0
LINE
  8
0
 10
1.54973
 20
220.965
 11
1.52168
 21
220.868
  0
LINE
  8
0
 10
1.52168
 20
220.868
 11
1.48764
 21
220.773
  0
LINE
  8
0
 10
1.48764
 20
220.773
 11
1.44771
 21
220.681
  0
LINE
  8
0
 10
1.44771
 20
220.681
 11
1.40208
 21
220.592
  0
LINE
  8
0
 10
1.40208
 20
220.592
 11
1.35092
 21
220.505
  0
LINE
  8
0
 10
1.35092
 20
220.505
 11
1.29442
 21
220.422
  0
LINE
  8
0
 10
1.29442
 20
220.422
 11
1.23282
 21
220.343
  0
LINE
  8
0
 10
1.23282
 20
220.343
 11
1.16634
 21
220.267
  0
LINE
  8
0
 10
1.16634
 20
220.267
 11
1.09526
 21
220.196
  0
LINE
  8
0
 10
1.09526
 20
220.196
 11
1.01987
 21
220.13
  0
LINE
  8
0
 10
1.01987
 20
220.13
 11
0.940445
 21
220.068
  0
LINE
  8
0
 10
0.940445
 20
220.068
 11
0.857315
 21
220.012
  0
LINE
  8
0
 10
0.857315
 20
220.012
 11
0.770798
 21
219.96
  0
LINE
  8
0
 10
0.770798
 20
219.96
 11
0.681244
 21
219.915
  0
LINE
  8
0
 10
0.681244
 20
219.915
 11
0.588989
 21
219.875
  0
LINE
  8
0
 10
0.588989
 20
219.875
 11
0.494415
 21
219.841
  0
LINE
  8
0
 10
0.494415
 20
219.841
 11
0.397903
 21
219.813
  0
LINE
  8
0
 10
0.397903
 20
219.813
 11
0.299805
 21
219.791
  0
LINE
  8
0
 10
0.299805
 20
219.791
 11
0.200531
 21
219.775
  0
LINE
  8
0
 10
0.200531
 20
219.775
 11
0.100464
 21
219.766
  0
LINE
  8
0
 10
0.100464
 20
219.766
 11
0
 21
219.762
  0
LINE
  8
0
 10
0
 20
219.762
 11
-0.100464
 21
219.766
  0
LINE
  8
0
 10
-0.320221
 20
208.273
 11
-0.639191
 21
208.303
  0
LINE
  8
0
 10
-0.639191
 20
208.303
 11
-0.955643
 21
208.353
  0
LINE
  8
0
 10
-0.955643
 20
208.353
 11
-1.26831
 21
208.423
  0
LINE
  8
0
 10
-1.26831
 20
208.423
 11
-1.57597
 21
208.512
  0
LINE
  8
0
 10
-1.57597
 20
208.512
 11
-1.87743
 21
208.621
  0
LINE
  8
0
 10
-1.87743
 20
208.621
 11
-2.17146
 21
208.748
  0
LINE
  8
0
 10
-2.17146
 20
208.748
 11
-2.45694
 21
208.893
  0
LINE
  8
0
 10
-2.45694
 20
208.893
 11
-2.73271
 21
209.056
  0
LINE
  8
0
 10
-2.73271
 20
209.056
 11
-2.9977
 21
209.237
  0
LINE
  8
0
 10
-2.9977
 20
209.237
 11
-3.25085
 21
209.433
  0
LINE
  8
0
 10
-3.25085
 20
209.433
 11
-3.49118
 21
209.645
  0
LINE
  8
0
 10
-3.49118
 20
209.645
 11
-3.71773
 21
209.871
  0
LINE
  8
0
 10
-3.71773
 20
209.871
 11
-3.92961
 21
210.112
  0
LINE
  8
0
 10
-3.92961
 20
210.112
 11
-4.12598
 21
210.365
  0
LINE
  8
0
 10
-4.12598
 20
210.365
 11
-4.30606
 21
210.63
  0
LINE
  8
0
 10
-4.30606
 20
210.63
 11
-4.46916
 21
210.906
  0
LINE
  8
0
 10
-4.46916
 20
210.906
 11
-4.61461
 21
211.191
  0
LINE
  8
0
 10
-4.61461
 20
211.191
 11
-4.74185
 21
211.485
  0
LINE
  8
0
 10
-4.74185
 20
211.485
 11
-4.85039
 21
211.787
  0
LINE
  8
0
 10
-4.85039
 20
211.787
 11
-4.93977
 21
212.094
  0
LINE
  8
0
 10
-4.93977
 20
212.094
 11
-5.00966
 21
212.407
  0
LINE
  8
0
 10
-5.00966
 20
212.407
 11
-5.05978
 21
212.723
  0
LINE
  8
0
 10
-5.05978
 20
212.723
 11
-5.08994
 21
213.042
  0
LINE
  8
0
 10
-5.08994
 20
213.042
 11
-5.09999
 21
213.362
  0
LINE
  8
0
 10
-5.09999
 20
213.362
 11
-5.08994
 21
213.683
  0
LINE
  8
0
 10
-5.08994
 20
213.683
 11
-5.05978
 21
214.002
  0
LINE
  8
0
 10
-5.05978
 20
214.002
 11
-5.00966
 21
214.318
  0
LINE
  8
0
 10
-5.00966
 20
214.318
 11
-4.93977
 21
214.631
  0
LINE
  8
0
 10
-4.93977
 20
214.631
 11
-4.85039
 21
214.938
  0
LINE
  8
0
 10
-4.85039
 20
214.938
 11
-4.74185
 21
215.24
  0
LINE
  8
0
 10
-4.74185
 20
215.24
 11
-4.61461
 21
215.534
  0
LINE
  8
0
 10
-4.61461
 20
215.534
 11
-4.46916
 21
215.819
  0
LINE
  8
0
 10
-4.46916
 20
215.819
 11
-4.30606
 21
216.095
  0
LINE
  8
0
 10
-4.30606
 20
216.095
 11
-4.12598
 21
216.36
  0
LINE
  8
0
 10
-4.12598
 20
216.36
 11
-3.92961
 21
216.613
  0
LINE
  8
0
 10
-3.92961
 20
216.613
 11
-3.71773
 21
216.854
  0
LINE
  8
0
 10
-3.71773
 20
216.854
 11
-3.49118
 21
217.08
  0
LINE
  8
0
 10
-3.49118
 20
217.08
 11
-3.25085
 21
217.292
  0
LINE
  8
0
 10
-3.25085
 20
217.292
 11
-2.9977
 21
217.488
  0
LINE
  8
0
 10
-2.9977
 20
217.488
 11
-2.73271
 21
217.669
  0
LINE
  8
0
 10
-2.73271
 20
217.669
 11
-2.45694
 21
217.832
  0
LINE
  8
0
 10
-2.45694
 20
217.832
 11
-2.17146
 21
217.977
  0
LINE
  8
0
 10
-2.17146
 20
217.977
 11
-1.87743
 21
218.104
  0
LINE
  8
0
 10
-1.87743
 20
218.104
 11
-1.57597
 21
218.213
  0
LINE
  8
0
 10
-1.57597
 20
218.213
 11
-1.26831
 21
218.302
  0
LINE
  8
0
 10
-1.26831
 20
218.302
 11
-0.955643
 21
218.372
  0
LINE
  8
0
 10
-0.955643
 20
218.372
 11
-0.639191
 21
218.422
  0
LINE
  8
0
 10
-0.639191
 20
218.422
 11
-0.320221
 21
218.452
  0
LINE
  8
0
 10
-0.320221
 20
218.452
 11
0
 21
218.462
  0
LINE
  8
0
 10
0
 20
218.462
 11
0.320221
 21
218.452
  0
LINE
  8
0
 10
0.320221
 20
218.452
 11
0.639191
 21
218.422
  0
LINE
  8
0
 10
0.639191
 20
218.422
 11
0.955643
 21
218.372
  0
LINE
  8
0
 10
0.955643
 20
218.372
 11
1.26831
 21
218.302
  0
LINE
  8
0
 10
1.26831
 20
218.302
 11
1.57597
 21
218.213
  0
LINE
  8
0
 10
1.57597
 20
218.213
 11
1.87743
 21
218.104
  0
LINE
  8
0
 10
1.87743
 20
218.104
 11
2.17146
 21
217.977
  0
LINE
  8
0
 10
2.17146
 20
217.977
 11
2.45694
 21
217.832
  0
LINE
  8
0
 10
2.45694
 20
217.832
 11
2.73271
 21
217.669
  0
LINE
  8
0
 10
2.73271
 20
217.669
 11
2.9977
 21
217.488
  0
LINE
  8
0
 10
2.9977
 20
217.488
 11
3.25085
 21
217.292
  0
LINE
  8
0
 10
3.25085
 20
217.292
 11
3.49118
 21
217.08
  0
LINE
  8
0
 10
3.49118
 20
217.08
 11
3.71773
 21
216.854
  0
LINE
  8
0
 10
3.71773
 20
216.854
 11
3.92961
 21
216.613
  0
LINE
  8
0
 10
3.92961
 20
216.613
 11
4.12598
 21
216.36
  0
LINE
  8
0
 10
4.12598
 20
216.36
 11
4.30606
 21
216.095
  0
LINE
  8
0
 10
4.30606
 20
216.095
 11
4.46916
 21
215.819
  0
LINE
  8
0
 10
4.46916
 20
215.819
 11
4.61461
 21
215.534
  0
LINE
  8
0
 10
4.61461
 20
215.534
 11
4.74185
 21
215.24
  0
LINE
  8
0
 10
4.74185
 20
215.24
 11
4.85039
 21
214.938
  0
LINE
  8
0
 10
4.85039
 20
214.938
 11
4.93977
 21
214.631
  0
LINE
  8
0
 10
4.93977
 20
214.631
 11
5.00966
 21
214.318
  0
LINE
  8
0
 10
5.00966
 20
214.318
 11
5.05978
 21
214.002
  0
LINE
  8
0
 10
5.05978
 20
214.002
 11
5.08994
 21
213.683
  0
LINE
  8
0
 10
5.08994
 20
213.683
 11
5.09999
 21
213.362
  0
LINE
  8
0
 10
5.09999
 20
213.362
 11
5.08994
 21
213.042
  0
LINE
  8
0
 10
5.08994
 20
213.042
 11
5.05978
 21
212.723
  0
LINE
  8
0
 10
5.05978
 20
212.723
 11
5.00966
 21
212.407
  0
LINE
  8
0
 10
5.00966
 20
212.407
 11
4.93977
 21
212.094
  0
LINE
  8
0
 10
4.93977
 20
212.094
 11
4.85039
 21
211.787
  0
LINE
  8
0
 10
4.85039
 20
211.787
 11
4.74185
 21
211.485
  0
LINE
  8
0
 10
4.74185
 20
211.485
 11
4.61461
 21
211.191
  0
LINE
  8
0
 10
4.61461
 20
211.191
 11
4.46916
 21
210.906
  0
LINE
  8
0
 10
4.46916
 20
210.906
 11
4.30606
 21
210.63
  0
LINE
  8
0
 10
4.30606
 20
210.63
 11
4.12598
 21
210.365
  0
LINE
  8
0
 10
4.12598
 20
210.365
 11
3.92961
 21
210.112
  0
LINE
  8
0
 10
3.92961
 20
210.112
 11
3.71773
 21
209.871
  0
LINE
  8
0
 10
3.71773
 20
209.871
 11
3.49118
 21
209.645
  0
LINE
  8
0
 10
3.49118
 20
209.645
 11
3.25085
 21
209.433
  0
LINE
  8
0
 10
3.25085
 20
209.433
 11
2.9977
 21
209.237
  0
LINE
  8
0
 10
2.9977
 20
209.237
 11
2.73271
 21
209.056
  0
LINE
  8
0
 10
2.73271
 20
209.056
 11
2.45694
 21
208.893
  0
LINE
  8
0
 10
2.45694
 20
208.893
 11
2.17146
 21
208.748
  0
LINE
  8
0
 10
2.17146
 20
208.748
 11
1.87743
 21
208.621
  0
LINE
  8
0
 10
1.87743
 20
208.621
 11
1.57597
 21
208.512
  0
LINE
  8
0
 10
1.57597
 20
208.512
 11
1.26831
 21
208.423
  0
LINE
  8
0
 10
1.26831
 20
208.423
 11
0.955643
 21
208.353
  0
LINE
  8
0
 10
0.955643
 20
208.353
 11
0.639191
 21
208.303
  0
LINE
  8
0
 10
0.639191
 20
208.303
 11
0.320221
 21
208.273
  0
LINE
  8
0
 10
0.320221
 20
208.273
 11
0
 21
208.262
  0
LINE
  8
0
 10
0
 20
208.262
 11
-0.320221
 21
208.273
  0
LINE
  8
0
 10
-8.10046
 20
211.766
 11
-8.20053
 21
211.775
  0
LINE
  8
0
 10
-8.20053
 20
211.775
 11
-8.2998
 21
211.791
  0
LINE
  8
0
 10
-8.2998
 20
211.791
 11
-8.3979
 21
211.813
  0
LINE
  8
0
 10
-8.3979
 20
211.813
 11
-8.49442
 21
211.841
  0
LINE
  8
0
 10
-8.49442
 20
211.841
 11
-8.58899
 21
211.875
  0
LINE
  8
0
 10
-8.58899
 20
211.875
 11
-8.68124
 21
211.915
  0
LINE
  8
0
 10
-8.68124
 20
211.915
 11
-8.7708
 21
211.96
  0
LINE
  8
0
 10
-8.7708
 20
211.96
 11
-8.85732
 21
212.012
  0
LINE
  8
0
 10
-8.85732
 20
212.012
 11
-8.94044
 21
212.068
  0
LINE
  8
0
 10
-8.94044
 20
212.068
 11
-9.01987
 21
212.13
  0
LINE
  8
0
 10
-9.01987
 20
212.13
 11
-9.09526
 21
212.196
  0
LINE
  8
0
 10
-9.09526
 20
212.196
 11
-9.16634
 21
212.267
  0
LINE
  8
0
 10
-9.16634
 20
212.267
 11
-9.23282
 21
212.343
  0
LINE
  8
0
 10
-9.23282
 20
212.343
 11
-9.29442
 21
212.422
  0
LINE
  8
0
 10
-9.29442
 20
212.422
 11
-9.35092
 21
212.505
  0
LINE
  8
0
 10
-9.35092
 20
212.505
 11
-9.40208
 21
212.592
  0
LINE
  8
0
 10
-9.40208
 20
212.592
 11
-9.44771
 21
212.681
  0
LINE
  8
0
 10
-9.44771
 20
212.681
 11
-9.48764
 21
212.773
  0
LINE
  8
0
 10
-9.48764
 20
212.773
 11
-9.52168
 21
212.868
  0
LINE
  8
0
 10
-9.52168
 20
212.868
 11
-9.54973
 21
212.965
  0
LINE
  8
0
 10
-9.54973
 20
212.965
 11
-9.57166
 21
213.063
  0
LINE
  8
0
 10
-9.57166
 20
213.063
 11
-9.58737
 21
213.162
  0
LINE
  8
0
 10
-9.58737
 20
213.162
 11
-9.59683
 21
213.262
  0
LINE
  8
0
 10
-9.59683
 20
213.262
 11
-9.59999
 21
213.362
  0
LINE
  8
0
 10
-9.59999
 20
213.362
 11
-9.59683
 21
213.463
  0
LINE
  8
0
 10
-9.59683
 20
213.463
 11
-9.58737
 21
213.563
  0
LINE
  8
0
 10
-9.58737
 20
213.563
 11
-9.57166
 21
213.662
  0
LINE
  8
0
 10
-9.57166
 20
213.662
 11
-9.54973
 21
213.76
  0
LINE
  8
0
 10
-9.54973
 20
213.76
 11
-9.52168
 21
213.857
  0
LINE
  8
0
 10
-9.52168
 20
213.857
 11
-9.48764
 21
213.951
  0
LINE
  8
0
 10
-9.48764
 20
213.951
 11
-9.44771
 21
214.044
  0
LINE
  8
0
 10
-9.44771
 20
214.044
 11
-9.40208
 21
214.133
  0
LINE
  8
0
 10
-9.40208
 20
214.133
 11
-9.35092
 21
214.22
  0
LINE
  8
0
 10
-9.35092
 20
214.22
 11
-9.29442
 21
214.303
  0
LINE
  8
0
 10
-9.29442
 20
214.303
 11
-9.23282
 21
214.382
  0
LINE
  8
0
 10
-9.23282
 20
214.382
 11
-9.16634
 21
214.458
  0
LINE
  8
0
 10
-9.16634
 20
214.458
 11
-9.09526
 21
214.529
  0
LINE
  8
0
 10
-9.09526
 20
214.529
 11
-9.01987
 21
214.595
  0
LINE
  8
0
 10
-9.01987
 20
214.595
 11
-8.94044
 21
214.657
  0
LINE
  8
0
 10
-8.94044
 20
214.657
 11
-8.85732
 21
214.713
  0
LINE
  8
0
 10
-8.85732
 20
214.713
 11
-8.7708
 21
214.765
  0
LINE
  8
0
 10
-8.7708
 20
214.765
 11
-8.68124
 21
214.81
  0
LINE
  8
0
 10
-8.68124
 20
214.81
 11
-8.58899
 21
214.85
  0
LINE
  8
0
 10
-8.58899
 20
214.85
 11
-8.49442
 21
214.884
  0
LINE
  8
0
 10
-8.49442
 20
214.884
 11
-8.3979
 21
214.912
  0
LINE
  8
0
 10
-8.3979
 20
214.912
 11
-8.2998
 21
214.934
  0
LINE
  8
0
 10
-8.2998
 20
214.934
 11
-8.20053
 21
214.95
  0
LINE
  8
0
 10
-8.20053
 20
214.95
 11
-8.10046
 21
214.959
  0
LINE
  8
0
 10
-8.10046
 20
214.959
 11
-8
 21
214.962
  0
LINE
  8
0
 10
-8
 20
214.962
 11
-7.89952
 21
214.959
  0
LINE
  8
0
 10
-7.89952
 20
214.959
 11
-7.79945
 21
214.95
  0
LINE
  8
0
 10
-7.79945
 20
214.95
 11
-7.70018
 21
214.934
  0
LINE
  8
0
 10
-7.70018
 20
214.934
 11
-7.60208
 21
214.912
  0
LINE
  8
0
 10
-7.60208
 20
214.912
 11
-7.50557
 21
214.884
  0
LINE
  8
0
 10
-7.50557
 20
214.884
 11
-7.411
 21
214.85
  0
LINE
  8
0
 10
-7.411
 20
214.85
 11
-7.31874
 21
214.81
  0
LINE
  8
0
 10
-7.31874
 20
214.81
 11
-7.22919
 21
214.765
  0
LINE
  8
0
 10
-7.22919
 20
214.765
 11
-7.14267
 21
214.713
  0
LINE
  8
0
 10
-7.14267
 20
214.713
 11
-7.05954
 21
214.657
  0
LINE
  8
0
 10
-7.05954
 20
214.657
 11
-6.98012
 21
214.595
  0
LINE
  8
0
 10
-6.98012
 20
214.595
 11
-6.90472
 21
214.529
  0
LINE
  8
0
 10
-6.90472
 20
214.529
 11
-6.83365
 21
214.458
  0
LINE
  8
0
 10
-6.83365
 20
214.458
 11
-6.76717
 21
214.382
  0
LINE
  8
0
 10
-6.76717
 20
214.382
 11
-6.70557
 21
214.303
  0
LINE
  8
0
 10
-6.70557
 20
214.303
 11
-6.64906
 21
214.22
  0
LINE
  8
0
 10
-6.64906
 20
214.22
 11
-6.5979
 21
214.133
  0
LINE
  8
0
 10
-6.5979
 20
214.133
 11
-6.55228
 21
214.044
  0
LINE
  8
0
 10
-6.55228
 20
214.044
 11
-6.51234
 21
213.951
  0
LINE
  8
0
 10
-6.51234
 20
213.951
 11
-6.4783
 21
213.857
  0
LINE
  8
0
 10
-6.4783
 20
213.857
 11
-6.45026
 21
213.76
  0
LINE
  8
0
 10
-6.45026
 20
213.76
 11
-6.42833
 21
213.662
  0
LINE
  8
0
 10
-6.42833
 20
213.662
 11
-6.41261
 21
213.563
  0
LINE
  8
0
 10
-6.41261
 20
213.563
 11
-6.40315
 21
213.463
  0
LINE
  8
0
 10
-6.40315
 20
213.463
 11
-6.39999
 21
213.362
  0
LINE
  8
0
 10
-6.39999
 20
213.362
 11
-6.40315
 21
213.262
  0
LINE
  8
0
 10
-6.40315
 20
213.262
 11
-6.41261
 21
213.162
  0
LINE
  8
0
 10
-6.41261
 20
213.162
 11
-6.42833
 21
213.063
  0
LINE
  8
0
 10
-6.42833
 20
213.063
 11
-6.45026
 21
212.965
  0
LINE
  8
0
 10
-6.45026
 20
212.965
 11
-6.4783
 21
212.868
  0
LINE
  8
0
 10
-6.4783
 20
212.868
 11
-6.51234
 21
212.773
  0
LINE
  8
0
 10
-6.51234
 20
212.773
 11
-6.55228
 21
212.681
  0
LINE
  8
0
 10
-6.55228
 20
212.681
 11
-6.5979
 21
212.592
  0
LINE
  8
0
 10
-6.5979
 20
212.592
 11
-6.64906
 21
212.505
  0
LINE
  8
0
 10
-6.64906
 20
212.505
 11
-6.70557
 21
212.422
  0
LINE
  8
0
 10
-6.70557
 20
212.422
 11
-6.76717
 21
212.343
  0
LINE
  8
0
 10
-6.76717
 20
212.343
 11
-6.83365
 21
212.267
  0
LINE
  8
0
 10
-6.83365
 20
212.267
 11
-6.90472
 21
212.196
  0
LINE
  8
0
 10
-6.90472
 20
212.196
 11
-6.98012
 21
212.13
  0
LINE
  8
0
 10
-6.98012
 20
212.13
 11
-7.05954
 21
212.068
  0
LINE
  8
0
 10
-7.05954
 20
212.068
 11
-7.14267
 21
212.012
  0
LINE
  8
0
 10
-7.14267
 20
212.012
 11
-7.22919
 21
211.96
  0
LINE
  8
0
 10
-7.22919
 20
211.96
 11
-7.31874
 21
211.915
  0
LINE
  8
0
 10
-7.31874
 20
211.915
 11
-7.411
 21
211.875
  0
LINE
  8
0
 10
-7.411
 20
211.875
 11
-7.50557
 21
211.841
  0
LINE
  8
0
 10
-7.50557
 20
211.841
 11
-7.60208
 21
211.813
  0
LINE
  8
0
 10
-7.60208
 20
211.813
 11
-7.70018
 21
211.791
  0
LINE
  8
0
 10
-7.70018
 20
211.791
 11
-7.79945
 21
211.775
  0
LINE
  8
0
 10
-7.79945
 20
211.775
 11
-7.89952
 21
211.766
  0
LINE
  8
0
 10
-7.89952
 20
211.766
 11
-8
 21
211.762
  0
LINE
  8
0
 10
-8
 20
211.762
 11
-8.10046
 21
211.766
  0
LINE
  8
0
 10
7.89952
 20
211.766
 11
7.79945
 21
211.775
  0
LINE
  8
0
 10
7.79945
 20
211.775
 11
7.70018
 21
211.791
  0
LINE
  8
0
 10
7.70018
 20
211.791
 11
7.60208
 21
211.813
  0
LINE
  8
0
 10
7.60208
 20
211.813
 11
7.50557
 21
211.841
  0
LINE
  8
0
 10
7.50557
 20
211.841
 11
7.411
 21
211.875
  0
LINE
  8
0
 10
7.411
 20
211.875
 11
7.31874
 21
211.915
  0
LINE
  8
0
 10
7.31874
 20
211.915
 11
7.22919
 21
211.96
  0
LINE
  8
0
 10
7.22919
 20
211.96
 11
7.14267
 21
212.012
  0
LINE
  8
0
 10
7.14267
 20
212.012
 11
7.05954
 21
212.068
  0
LINE
  8
0
 10
7.05954
 20
212.068
 11
6.98012
 21
212.13
  0
LINE
  8
0
 10
6.98012
 20
212.13
 11
6.90472
 21
212.196
  0
LINE
  8
0
 10
6.90472
 20
212.196
 11
6.83365
 21
212.267
  0
LINE
  8
0
 10
6.83365
 20
212.267
 11
6.76717
 21
212.343
  0
LINE
  8
0
 10
6.76717
 20
212.343
 11
6.70557
 21
212.422
  0
LINE
  8
0
 10
6.70557
 20
212.422
 11
6.64906
 21
212.505
  0
LINE
  8
0
 10
6.64906
 20
212.505
 11
6.5979
 21
212.592
  0
LINE
  8
0
 10
6.5979
 20
212.592
 11
6.55228
 21
212.681
  0
LINE
  8
0
 10
6.55228
 20
212.681
 11
6.51234
 21
212.773
  0
LINE
  8
0
 10
6.51234
 20
212.773
 11
6.4783
 21
212.868
  0
LINE
  8
0
 10
6.4783
 20
212.868
 11
6.45026
 21
212.965
  0
LINE
  8
0
 10
6.45026
 20
212.965
 11
6.42833
 21
213.063
  0
LINE
  8
0
 10
6.42833
 20
213.063
 11
6.41261
 21
213.162
  0
LINE
  8
0
 10
6.41261
 20
213.162
 11
6.40315
 21
213.262
  0
LINE
  8
0
 10
6.40315
 20
213.262
 11
6.39999
 21
213.362
  0
LINE
  8
0
 10
6.39999
 20
213.362
 11
6.40315
 21
213.463
  0
LINE
  8
0
 10
6.40315
 20
213.463
 11
6.41261
 21
213.563
  0
LINE
  8
0
 10
6.41261
 20
213.563
 11
6.42833
 21
213.662
  0
LINE
  8
0
 10
6.42833
 20
213.662
 11
6.45026
 21
213.76
  0
LINE
  8
0
 10
6.45026
 20
213.76
 11
6.4783
 21
213.857
  0
LINE
  8
0
 10
6.4783
 20
213.857
 11
6.51234
 21
213.951
  0
LINE
  8
0
 10
6.51234
 20
213.951
 11
6.55228
 21
214.044
  0
LINE
  8
0
 10
6.55228
 20
214.044
 11
6.5979
 21
214.133
  0
LINE
  8
0
 10
6.5979
 20
214.133
 11
6.64906
 21
214.22
  0
LINE
  8
0
 10
6.64906
 20
214.22
 11
6.70557
 21
214.303
  0
LINE
  8
0
 10
6.70557
 20
214.303
 11
6.76717
 21
214.382
  0
LINE
  8
0
 10
6.76717
 20
214.382
 11
6.83365
 21
214.458
  0
LINE
  8
0
 10
6.83365
 20
214.458
 11
6.90472
 21
214.529
  0
LINE
  8
0
 10
6.90472
 20
214.529
 11
6.98012
 21
214.595
  0
LINE
  8
0
 10
6.98012
 20
214.595
 11
7.05954
 21
214.657
  0
LINE
  8
0
 10
7.05954
 20
214.657
 11
7.14267
 21
214.713
  0
LINE
  8
0
 10
7.14267
 20
214.713
 11
7.22919
 21
214.765
  0
LINE
  8
0
 10
7.22919
 20
214.765
 11
7.31874
 21
214.81
  0
LINE
  8
0
 10
7.31874
 20
214.81
 11
7.411
 21
214.85
  0
LINE
  8
0
 10
7.411
 20
214.85
 11
7.50557
 21
214.884
  0
LINE
  8
0
 10
7.50557
 20
214.884
 11
7.60208
 21
214.912
  0
LINE
  8
0
 10
7.60208
 20
214.912
 11
7.70018
 21
214.934
  0
LINE
  8
0
 10
7.70018
 20
214.934
 11
7.79945
 21
214.95
  0
LINE
  8
0
 10
7.79945
 20
214.95
 11
7.89952
 21
214.959
  0
LINE
  8
0
 10
7.89952
 20
214.959
 11
8
 21
214.962
  0
LINE
  8
0
 10
8
 20
214.962
 11
8.10046
 21
214.959
  0
LINE
  8
0
 10
8.10046
 20
214.959
 11
8.20053
 21
214.95
  0
LINE
  8
0
 10
8.20053
 20
214.95
 11
8.2998
 21
214.934
  0
LINE
  8
0
 10
8.2998
 20
214.934
 11
8.3979
 21
214.912
  0
LINE
  8
0
 10
8.3979
 20
214.912
 11
8.49442
 21
214.884
  0
LINE
  8
0
 10
8.49442
 20
214.884
 11
8.58899
 21
214.85
  0
LINE
  8
0
 10
8.58899
 20
214.85
 11
8.68124
 21
214.81
  0
LINE
  8
0
 10
8.68124
 20
214.81
 11
8.7708
 21
214.765
  0
LINE
  8
0
 10
8.7708
 20
214.765
 11
8.85732
 21
214.713
  0
LINE
  8
0
 10
8.85732
 20
214.713
 11
8.94044
 21
214.657
  0
LINE
  8
0
 10
8.94044
 20
214.657
 11
9.01987
 21
214.595
  0
LINE
  8
0
 10
9.01987
 20
214.595
 11
9.09526
 21
214.529
  0
LINE
  8
0
 10
9.09526
 20
214.529
 11
9.16634
 21
214.458
  0
LINE
  8
0
 10
9.16634
 20
214.458
 11
9.23282
 21
214.382
  0
LINE
  8
0
 10
9.23282
 20
214.382
 11
9.29442
 21
214.303
  0
LINE
  8
0
 10
9.29442
 20
214.303
 11
9.35092
 21
214.22
  0
LINE
  8
0
 10
9.35092
 20
214.22
 11
9.40208
 21
214.133
  0
LINE
  8
0
 10
9.40208
 20
214.133
 11
9.44771
 21
214.044
  0
LINE
  8
0
 10
9.44771
 20
214.044
 11
9.48764
 21
213.951
  0
LINE
  8
0
 10
9.48764
 20
213.951
 11
9.52168
 21
213.857
  0
LINE
  8
0
 10
9.52168
 20
213.857
 11
9.54973
 21
213.76
  0
LINE
  8
0
 10
9.54973
 20
213.76
 11
9.57166
 21
213.662
  0
LINE
  8
0
 10
9.57166
 20
213.662
 11
9.58737
 21
213.563
  0
LINE
  8
0
 10
9.58737
 20
213.563
 11
9.59683
 21
213.463
  0
LINE
  8
0
 10
9.59683
 20
213.463
 11
9.59999
 21
213.362
  0
LINE
  8
0
 10
9.59999
 20
213.362
 11
9.59683
 21
213.262
  0
LINE
  8
0
 10
9.59683
 20
213.262
 11
9.58737
 21
213.162
  0
LINE
  8
0
 10
9.58737
 20
213.162
 11
9.57166
 21
213.063
  0
LINE
  8
0
 10
9.57166
 20
213.063
 11
9.54973
 21
212.965
  0
LINE
  8
0
 10
9.54973
 20
212.965
 11
9.52168
 21
212.868
  0
LINE
  8
0
 10
9.52168
 20
212.868
 11
9.48764
 21
212.773
  0
LINE
  8
0
 10
9.48764
 20
212.773
 11
9.44771
 21
212.681
  0
LINE
  8
0
 10
9.44771
 20
212.681
 11
9.40208
 21
212.592
  0
LINE
  8
0
 10
9.40208
 20
212.592
 11
9.35092
 21
212.505
  0
LINE
  8
0
 10
9.35092
 20
212.505
 11
9.29442
 21
212.422
  0
LINE
  8
0
 10
9.29442
 20
212.422
 11
9.23282
 21
212.343
  0
LINE
  8
0
 10
9.23282
 20
212.343
 11
9.16634
 21
212.267
  0
LINE
  8
0
 10
9.16634
 20
212.267
 11
9.09526
 21
212.196
  0
LINE
  8
0
 10
9.09526
 20
212.196
 11
9.01987
 21
212.13
  0
LINE
  8
0
 10
9.01987
 20
212.13
 11
8.94044
 21
212.068
  0
LINE
  8
0
 10
8.94044
 20
212.068
 11
8.85732
 21
212.012
  0
LINE
  8
0
 10
8.85732
 20
212.012
 11
8.7708
 21
211.96
  0
LINE
  8
0
 10
8.7708
 20
211.96
 11
8.68124
 21
211.915
  0
LINE
  8
0
 10
8.68124
 20
211.915
 11
8.58899
 21
211.875
  0
LINE
  8
0
 10
8.58899
 20
211.875
 11
8.49442
 21
211.841
  0
LINE
  8
0
 10
8.49442
 20
211.841
 11
8.3979
 21
211.813
  0
LINE
  8
0
 10
8.3979
 20
211.813
 11
8.2998
 21
211.791
  0
LINE
  8
0
 10
8.2998
 20
211.791
 11
8.20053
 21
211.775
  0
LINE
  8
0
 10
8.20053
 20
211.775
 11
8.10046
 21
211.766
  0
LINE
  8
0
 10
8.10046
 20
211.766
 11
8
 21
211.762
  0
LINE
  8
0
 10
8
 20
211.762
 11
7.89952
 21
211.766
  0
LINE
  8
0
 10
62.2583
 20
211.766
 11
62.1582
 21
211.775
  0
LINE
  8
0
 10
62.1582
 20
211.775
 11
62.0589
 21
211.791
  0
LINE
  8
0
 10
62.0589
 20
211.791
 11
61.9608
 21
211.813
  0
LINE
  8
0
 10
61.9608
 20
211.813
 11
61.8643
 21
211.841
  0
LINE
  8
0
 10
61.8643
 20
211.841
 11
61.7698
 21
211.875
  0
LINE
  8
0
 10
61.7698
 20
211.875
 11
61.6775
 21
211.915
  0
LINE
  8
0
 10
61.6775
 20
211.915
 11
61.588
 21
211.96
  0
LINE
  8
0
 10
61.588
 20
211.96
 11
61.5014
 21
212.012
  0
LINE
  8
0
 10
61.5014
 20
212.012
 11
61.4183
 21
212.068
  0
LINE
  8
0
 10
61.4183
 20
212.068
 11
61.3389
 21
212.13
  0
LINE
  8
0
 10
61.3389
 20
212.13
 11
61.2635
 21
212.196
  0
LINE
  8
0
 10
61.2635
 20
212.196
 11
61.1924
 21
212.267
  0
LINE
  8
0
 10
61.1924
 20
212.267
 11
61.1259
 21
212.343
  0
LINE
  8
0
 10
61.1259
 20
212.343
 11
61.0643
 21
212.422
  0
LINE
  8
0
 10
61.0643
 20
212.422
 11
61.0078
 21
212.505
  0
LINE
  8
0
 10
61.0078
 20
212.505
 11
60.9567
 21
212.592
  0
LINE
  8
0
 10
60.9567
 20
212.592
 11
60.911
 21
212.681
  0
LINE
  8
0
 10
60.911
 20
212.681
 11
60.8711
 21
212.773
  0
LINE
  8
0
 10
60.8711
 20
212.773
 11
60.8371
 21
212.868
  0
LINE
  8
0
 10
60.8371
 20
212.868
 11
60.809
 21
212.965
  0
LINE
  8
0
 10
60.809
 20
212.965
 11
60.7871
 21
213.063
  0
LINE
  8
0
 10
60.7871
 20
213.063
 11
60.7714
 21
213.162
  0
LINE
  8
0
 10
60.7714
 20
213.162
 11
60.7619
 21
213.262
  0
LINE
  8
0
 10
60.7619
 20
213.262
 11
60.7588
 21
213.362
  0
LINE
  8
0
 10
60.7588
 20
213.362
 11
60.7619
 21
213.463
  0
LINE
  8
0
 10
60.7619
 20
213.463
 11
60.7714
 21
213.563
  0
LINE
  8
0
 10
60.7714
 20
213.563
 11
60.7871
 21
213.662
  0
LINE
  8
0
 10
60.7871
 20
213.662
 11
60.809
 21
213.76
  0
LINE
  8
0
 10
60.809
 20
213.76
 11
60.8371
 21
213.857
  0
LINE
  8
0
 10
60.8371
 20
213.857
 11
60.8711
 21
213.951
  0
LINE
  8
0
 10
60.8711
 20
213.951
 11
60.911
 21
214.044
  0
LINE
  8
0
 10
60.911
 20
214.044
 11
60.9567
 21
214.133
  0
LINE
  8
0
 10
60.9567
 20
214.133
 11
61.0078
 21
214.22
  0
LINE
  8
0
 10
61.0078
 20
214.22
 11
61.0643
 21
214.303
  0
LINE
  8
0
 10
61.0643
 20
214.303
 11
61.1259
 21
214.382
  0
LINE
  8
0
 10
61.1259
 20
214.382
 11
61.1924
 21
214.458
  0
LINE
  8
0
 10
61.1924
 20
214.458
 11
61.2635
 21
214.529
  0
LINE
  8
0
 10
61.2635
 20
214.529
 11
61.3389
 21
214.595
  0
LINE
  8
0
 10
61.3389
 20
214.595
 11
61.4183
 21
214.657
  0
LINE
  8
0
 10
61.4183
 20
214.657
 11
61.5014
 21
214.713
  0
LINE
  8
0
 10
61.5014
 20
214.713
 11
61.588
 21
214.765
  0
LINE
  8
0
 10
61.588
 20
214.765
 11
61.6775
 21
214.81
  0
LINE
  8
0
 10
61.6775
 20
214.81
 11
61.7698
 21
214.85
  0
LINE
  8
0
 10
61.7698
 20
214.85
 11
61.8643
 21
214.884
  0
LINE
  8
0
 10
61.8643
 20
214.884
 11
61.9608
 21
214.912
  0
LINE
  8
0
 10
61.9608
 20
214.912
 11
62.0589
 21
214.934
  0
LINE
  8
0
 10
62.0589
 20
214.934
 11
62.1582
 21
214.95
  0
LINE
  8
0
 10
62.1582
 20
214.95
 11
62.2583
 21
214.959
  0
LINE
  8
0
 10
62.2583
 20
214.959
 11
62.3587
 21
214.962
  0
LINE
  8
0
 10
62.3587
 20
214.962
 11
62.4592
 21
214.959
  0
LINE
  8
0
 10
62.4592
 20
214.959
 11
62.5593
 21
214.95
  0
LINE
  8
0
 10
62.5593
 20
214.95
 11
62.6586
 21
214.934
  0
LINE
  8
0
 10
62.6586
 20
214.934
 11
62.7567
 21
214.912
  0
LINE
  8
0
 10
62.7567
 20
214.912
 11
62.8532
 21
214.884
  0
LINE
  8
0
 10
62.8532
 20
214.884
 11
62.9478
 21
214.85
  0
LINE
  8
0
 10
62.9478
 20
214.85
 11
63.04
 21
214.81
  0
LINE
  8
0
 10
63.04
 20
214.81
 11
63.1296
 21
214.765
  0
LINE
  8
0
 10
63.1296
 20
214.765
 11
63.2161
 21
214.713
  0
LINE
  8
0
 10
63.2161
 20
214.713
 11
63.2992
 21
214.657
  0
LINE
  8
0
 10
63.2992
 20
214.657
 11
63.3786
 21
214.595
  0
LINE
  8
0
 10
63.3786
 20
214.595
 11
63.454
 21
214.529
  0
LINE
  8
0
 10
63.454
 20
214.529
 11
63.5251
 21
214.458
  0
LINE
  8
0
 10
63.5251
 20
214.458
 11
63.5916
 21
214.382
  0
LINE
  8
0
 10
63.5916
 20
214.382
 11
63.6532
 21
214.303
  0
LINE
  8
0
 10
63.6532
 20
214.303
 11
63.7097
 21
214.22
  0
LINE
  8
0
 10
63.7097
 20
214.22
 11
63.7608
 21
214.133
  0
LINE
  8
0
 10
63.7608
 20
214.133
 11
63.8065
 21
214.044
  0
LINE
  8
0
 10
63.8065
 20
214.044
 11
63.8464
 21
213.951
  0
LINE
  8
0
 10
63.8464
 20
213.951
 11
63.8804
 21
213.857
  0
LINE
  8
0
 10
63.8804
 20
213.857
 11
63.9085
 21
213.76
  0
LINE
  8
0
 10
63.9085
 20
213.76
 11
63.9304
 21
213.662
  0
LINE
  8
0
 10
63.9304
 20
213.662
 11
63.9461
 21
213.563
  0
LINE
  8
0
 10
63.9461
 20
213.563
 11
63.9556
 21
213.463
  0
LINE
  8
0
 10
63.9556
 20
213.463
 11
63.9588
 21
213.362
  0
LINE
  8
0
 10
63.9588
 20
213.362
 11
63.9556
 21
213.262
  0
LINE
  8
0
 10
63.9556
 20
213.262
 11
63.9461
 21
213.162
  0
LINE
  8
0
 10
63.9461
 20
213.162
 11
63.9304
 21
213.063
  0
LINE
  8
0
 10
63.9304
 20
213.063
 11
63.9085
 21
212.965
  0
LINE
  8
0
 10
63.9085
 20
212.965
 11
63.8804
 21
212.868
  0
LINE
  8
0
 10
63.8804
 20
212.868
 11
63.8464
 21
212.773
  0
LINE
  8
0
 10
63.8464
 20
212.773
 11
63.8065
 21
212.681
  0
LINE
  8
0
 10
63.8065
 20
212.681
 11
63.7608
 21
212.592
  0
LINE
  8
0
 10
63.7608
 20
212.592
 11
63.7097
 21
212.505
  0
LINE
  8
0
 10
63.7097
 20
212.505
 11
63.6532
 21
212.422
  0
LINE
  8
0
 10
63.6532
 20
212.422
 11
63.5916
 21
212.343
  0
LINE
  8
0
 10
63.5916
 20
212.343
 11
63.5251
 21
212.267
  0
LINE
  8
0
 10
63.5251
 20
212.267
 11
63.454
 21
212.196
  0
LINE
  8
0
 10
63.454
 20
212.196
 11
63.3786
 21
212.13
  0
LINE
  8
0
 10
63.3786
 20
212.13
 11
63.2992
 21
212.068
  0
LINE
  8
0
 10
63.2992
 20
212.068
 11
63.2161
 21
212.012
  0
LINE
  8
0
 10
63.2161
 20
212.012
 11
63.1296
 21
211.96
  0
LINE
  8
0
 10
63.1296
 20
211.96
 11
63.04
 21
211.915
  0
LINE
  8
0
 10
63.04
 20
211.915
 11
62.9478
 21
211.875
  0
LINE
  8
0
 10
62.9478
 20
211.875
 11
62.8532
 21
211.841
  0
LINE
  8
0
 10
62.8532
 20
211.841
 11
62.7567
 21
211.813
  0
LINE
  8
0
 10
62.7567
 20
211.813
 11
62.6586
 21
211.791
  0
LINE
  8
0
 10
62.6586
 20
211.791
 11
62.5593
 21
211.775
  0
LINE
  8
0
 10
62.5593
 20
211.775
 11
62.4592
 21
211.766
  0
LINE
  8
0
 10
62.4592
 20
211.766
 11
62.3587
 21
211.762
  0
LINE
  8
0
 10
62.3587
 20
211.762
 11
62.2583
 21
211.766
  0
LINE
  8
0
 10
90.2583
 20
211.766
 11
90.1582
 21
211.775
  0
LINE
  8
0
 10
90.1582
 20
211.775
 11
90.0589
 21
211.791
  0
LINE
  8
0
 10
90.0589
 20
211.791
 11
89.9608
 21
211.813
  0
LINE
  8
0
 10
89.9608
 20
211.813
 11
89.8643
 21
211.841
  0
LINE
  8
0
 10
89.8643
 20
211.841
 11
89.7697
 21
211.875
  0
LINE
  8
0
 10
89.7697
 20
211.875
 11
89.6775
 21
211.915
  0
LINE
  8
0
 10
89.6775
 20
211.915
 11
89.5879
 21
211.96
  0
LINE
  8
0
 10
89.5879
 20
211.96
 11
89.5014
 21
212.012
  0
LINE
  8
0
 10
89.5014
 20
212.012
 11
89.4183
 21
212.068
  0
LINE
  8
0
 10
89.4183
 20
212.068
 11
89.3389
 21
212.13
  0
LINE
  8
0
 10
89.3389
 20
212.13
 11
89.2635
 21
212.196
  0
LINE
  8
0
 10
89.2635
 20
212.196
 11
89.1924
 21
212.267
  0
LINE
  8
0
 10
89.1924
 20
212.267
 11
89.1259
 21
212.343
  0
LINE
  8
0
 10
89.1259
 20
212.343
 11
89.0643
 21
212.422
  0
LINE
  8
0
 10
89.0643
 20
212.422
 11
89.0078
 21
212.505
  0
LINE
  8
0
 10
89.0078
 20
212.505
 11
88.9566
 21
212.592
  0
LINE
  8
0
 10
88.9566
 20
212.592
 11
88.911
 21
212.681
  0
LINE
  8
0
 10
88.911
 20
212.681
 11
88.8711
 21
212.773
  0
LINE
  8
0
 10
88.8711
 20
212.773
 11
88.8371
 21
212.868
  0
LINE
  8
0
 10
88.8371
 20
212.868
 11
88.809
 21
212.965
  0
LINE
  8
0
 10
88.809
 20
212.965
 11
88.7871
 21
213.063
  0
LINE
  8
0
 10
88.7871
 20
213.063
 11
88.7714
 21
213.162
  0
LINE
  8
0
 10
88.7714
 20
213.162
 11
88.7619
 21
213.262
  0
LINE
  8
0
 10
88.7619
 20
213.262
 11
88.7587
 21
213.362
  0
LINE
  8
0
 10
88.7587
 20
213.362
 11
88.7619
 21
213.463
  0
LINE
  8
0
 10
88.7619
 20
213.463
 11
88.7714
 21
213.563
  0
LINE
  8
0
 10
88.7714
 20
213.563
 11
88.7871
 21
213.662
  0
LINE
  8
0
 10
88.7871
 20
213.662
 11
88.809
 21
213.76
  0
LINE
  8
0
 10
88.809
 20
213.76
 11
88.8371
 21
213.857
  0
LINE
  8
0
 10
88.8371
 20
213.857
 11
88.8711
 21
213.951
  0
LINE
  8
0
 10
88.8711
 20
213.951
 11
88.911
 21
214.044
  0
LINE
  8
0
 10
88.911
 20
214.044
 11
88.9566
 21
214.133
  0
LINE
  8
0
 10
88.9566
 20
214.133
 11
89.0078
 21
214.22
  0
LINE
  8
0
 10
89.0078
 20
214.22
 11
89.0643
 21
214.303
  0
LINE
  8
0
 10
89.0643
 20
214.303
 11
89.1259
 21
214.382
  0
LINE
  8
0
 10
89.1259
 20
214.382
 11
89.1924
 21
214.458
  0
LINE
  8
0
 10
89.1924
 20
214.458
 11
89.2635
 21
214.529
  0
LINE
  8
0
 10
89.2635
 20
214.529
 11
89.3389
 21
214.595
  0
LINE
  8
0
 10
89.3389
 20
214.595
 11
89.4183
 21
214.657
  0
LINE
  8
0
 10
89.4183
 20
214.657
 11
89.5014
 21
214.713
  0
LINE
  8
0
 10
89.5014
 20
214.713
 11
89.5879
 21
214.765
  0
LINE
  8
0
 10
89.5879
 20
214.765
 11
89.6775
 21
214.81
  0
LINE
  8
0
 10
89.6775
 20
214.81
 11
89.7697
 21
214.85
  0
LINE
  8
0
 10
89.7697
 20
214.85
 11
89.8643
 21
214.884
  0
LINE
  8
0
 10
89.8643
 20
214.884
 11
89.9608
 21
214.912
  0
LINE
  8
0
 10
89.9608
 20
214.912
 11
90.0589
 21
214.934
  0
LINE
  8
0
 10
90.0589
 20
214.934
 11
90.1582
 21
214.95
  0
LINE
  8
0
 10
90.1582
 20
214.95
 11
90.2583
 21
214.959
  0
LINE
  8
0
 10
90.2583
 20
214.959
 11
90.3587
 21
214.962
  0
LINE
  8
0
 10
90.3587
 20
214.962
 11
90.4592
 21
214.959
  0
LINE
  8
0
 10
90.4592
 20
214.959
 11
90.5593
 21
214.95
  0
LINE
  8
0
 10
90.5593
 20
214.95
 11
90.6586
 21
214.934
  0
LINE
  8
0
 10
90.6586
 20
214.934
 11
90.7567
 21
214.912
  0
LINE
  8
0
 10
90.7567
 20
214.912
 11
90.8532
 21
214.884
  0
LINE
  8
0
 10
90.8532
 20
214.884
 11
90.9477
 21
214.85
  0
LINE
  8
0
 10
90.9477
 20
214.85
 11
91.04
 21
214.81
  0
LINE
  8
0
 10
91.04
 20
214.81
 11
91.1295
 21
214.765
  0
LINE
  8
0
 10
91.1295
 20
214.765
 11
91.2161
 21
214.713
  0
LINE
  8
0
 10
91.2161
 20
214.713
 11
91.2992
 21
214.657
  0
LINE
  8
0
 10
91.2992
 20
214.657
 11
91.3786
 21
214.595
  0
LINE
  8
0
 10
91.3786
 20
214.595
 11
91.454
 21
214.529
  0
LINE
  8
0
 10
91.454
 20
214.529
 11
91.5251
 21
214.458
  0
LINE
  8
0
 10
91.5251
 20
214.458
 11
91.5916
 21
214.382
  0
LINE
  8
0
 10
91.5916
 20
214.382
 11
91.6532
 21
214.303
  0
LINE
  8
0
 10
91.6532
 20
214.303
 11
91.7097
 21
214.22
  0
LINE
  8
0
 10
91.7097
 20
214.22
 11
91.7608
 21
214.133
  0
LINE
  8
0
 10
91.7608
 20
214.133
 11
91.8065
 21
214.044
  0
LINE
  8
0
 10
91.8065
 20
214.044
 11
91.8464
 21
213.951
  0
LINE
  8
0
 10
91.8464
 20
213.951
 11
91.8804
 21
213.857
  0
LINE
  8
0
 10
91.8804
 20
213.857
 11
91.9085
 21
213.76
  0
LINE
  8
0
 10
91.9085
 20
213.76
 11
91.9304
 21
213.662
  0
LINE
  8
0
 10
91.9304
 20
213.662
 11
91.9461
 21
213.563
  0
LINE
  8
0
 10
91.9461
 20
213.563
 11
91.9556
 21
213.463
  0
LINE
  8
0
 10
91.9556
 20
213.463
 11
91.9587
 21
213.362
  0
LINE
  8
0
 10
91.9587
 20
213.362
 11
91.9556
 21
213.262
  0
LINE
  8
0
 10
91.9556
 20
213.262
 11
91.9461
 21
213.162
  0
LINE
  8
0
 10
91.9461
 20
213.162
 11
91.9304
 21
213.063
  0
LINE
  8
0
 10
91.9304
 20
213.063
 11
91.9085
 21
212.965
  0
LINE
  8
0
 10
91.9085
 20
212.965
 11
91.8804
 21
212.868
  0
LINE
  8
0
 10
91.8804
 20
212.868
 11
91.8464
 21
212.773
  0
LINE
  8
0
 10
91.8464
 20
212.773
 11
91.8065
 21
212.681
  0
LINE
  8
0
 10
91.8065
 20
212.681
 11
91.7608
 21
212.592
  0
LINE
  8
0
 10
91.7608
 20
212.592
 11
91.7097
 21
212.505
  0
LINE
  8
0
 10
91.7097
 20
212.505
 11
91.6532
 21
212.422
  0
LINE
  8
0
 10
91.6532
 20
212.422
 11
91.5916
 21
212.343
  0
LINE
  8
0
 10
91.5916
 20
212.343
 11
91.5251
 21
212.267
  0
LINE
  8
0
 10
91.5251
 20
212.267
 11
91.454
 21
212.196
  0
LINE
  8
0
 10
91.454
 20
212.196
 11
91.3786
 21
212.13
  0
LINE
  8
0
 10
91.3786
 20
212.13
 11
91.2992
 21
212.068
  0
LINE
  8
0
 10
91.2992
 20
212.068
 11
91.2161
 21
212.012
  0
LINE
  8
0
 10
91.2161
 20
212.012
 11
91.1295
 21
211.96
  0
LINE
  8
0
 10
91.1295
 20
211.96
 11
91.04
 21
211.915
  0
LINE
  8
0
 10
91.04
 20
211.915
 11
90.9477
 21
211.875
  0
LINE
  8
0
 10
90.9477
 20
211.875
 11
90.8532
 21
211.841
  0
LINE
  8
0
 10
90.8532
 20
211.841
 11
90.7567
 21
211.813
  0
LINE
  8
0
 10
90.7567
 20
211.813
 11
90.6586
 21
211.791
  0
LINE
  8
0
 10
90.6586
 20
211.791
 11
90.5593
 21
211.775
  0
LINE
  8
0
 10
90.5593
 20
211.775
 11
90.4592
 21
211.766
  0
LINE
  8
0
 10
90.4592
 20
211.766
 11
90.3587
 21
211.762
  0
LINE
  8
0
 10
90.3587
 20
211.762
 11
90.2583
 21
211.766
  0
LINE
  8
0
 10
-0.100464
 20
203.766
 11
-0.200531
 21
203.775
  0
LINE
  8
0
 10
-0.200531
 20
203.775
 11
-0.299805
 21
203.791
  0
LINE
  8
0
 10
-0.299805
 20
203.791
 11
-0.397903
 21
203.813
  0
LINE
  8
0
 10
-0.397903
 20
203.813
 11
-0.494415
 21
203.841
  0
LINE
  8
0
 10
-0.494415
 20
203.841
 11
-0.588989
 21
203.875
  0
LINE
  8
0
 10
-0.588989
 20
203.875
 11
-0.681244
 21
203.915
  0
LINE
  8
0
 10
-0.681244
 20
203.915
 11
-0.770798
 21
203.96
  0
LINE
  8
0
 10
-0.770798
 20
203.96
 11
-0.857315
 21
204.012
  0
LINE
  8
0
 10
-0.857315
 20
204.012
 11
-0.940445
 21
204.068
  0
LINE
  8
0
 10
-0.940445
 20
204.068
 11
-1.01987
 21
204.13
  0
LINE
  8
0
 10
-1.01987
 20
204.13
 11
-1.09526
 21
204.196
  0
LINE
  8
0
 10
-1.09526
 20
204.196
 11
-1.16634
 21
204.267
  0
LINE
  8
0
 10
-1.16634
 20
204.267
 11
-1.23282
 21
204.343
  0
LINE
  8
0
 10
-1.23282
 20
204.343
 11
-1.29442
 21
204.422
  0
LINE
  8
0
 10
-1.29442
 20
204.422
 11
-1.35092
 21
204.505
  0
LINE
  8
0
 10
-1.35092
 20
204.505
 11
-1.40208
 21
204.592
  0
LINE
  8
0
 10
-1.40208
 20
204.592
 11
-1.44771
 21
204.681
  0
LINE
  8
0
 10
-1.44771
 20
204.681
 11
-1.48764
 21
204.773
  0
LINE
  8
0
 10
-1.48764
 20
204.773
 11
-1.52168
 21
204.868
  0
LINE
  8
0
 10
-1.52168
 20
204.868
 11
-1.54973
 21
204.965
  0
LINE
  8
0
 10
-1.54973
 20
204.965
 11
-1.57166
 21
205.063
  0
LINE
  8
0
 10
-1.57166
 20
205.063
 11
-1.58737
 21
205.162
  0
LINE
  8
0
 10
-1.58737
 20
205.162
 11
-1.59683
 21
205.262
  0
LINE
  8
0
 10
-1.59683
 20
205.262
 11
-1.59999
 21
205.362
  0
LINE
  8
0
 10
-1.59999
 20
205.362
 11
-1.59683
 21
205.463
  0
LINE
  8
0
 10
-1.59683
 20
205.463
 11
-1.58737
 21
205.563
  0
LINE
  8
0
 10
-1.58737
 20
205.563
 11
-1.57166
 21
205.662
  0
LINE
  8
0
 10
-1.57166
 20
205.662
 11
-1.54973
 21
205.76
  0
LINE
  8
0
 10
-1.54973
 20
205.76
 11
-1.52168
 21
205.857
  0
LINE
  8
0
 10
-1.52168
 20
205.857
 11
-1.48764
 21
205.951
  0
LINE
  8
0
 10
-1.48764
 20
205.951
 11
-1.44771
 21
206.044
  0
LINE
  8
0
 10
-1.44771
 20
206.044
 11
-1.40208
 21
206.133
  0
LINE
  8
0
 10
-1.40208
 20
206.133
 11
-1.35092
 21
206.22
  0
LINE
  8
0
 10
-1.35092
 20
206.22
 11
-1.29442
 21
206.303
  0
LINE
  8
0
 10
-1.29442
 20
206.303
 11
-1.23282
 21
206.382
  0
LINE
  8
0
 10
-1.23282
 20
206.382
 11
-1.16634
 21
206.458
  0
LINE
  8
0
 10
-1.16634
 20
206.458
 11
-1.09526
 21
206.529
  0
LINE
  8
0
 10
-1.09526
 20
206.529
 11
-1.01987
 21
206.595
  0
LINE
  8
0
 10
-1.01987
 20
206.595
 11
-0.940445
 21
206.657
  0
LINE
  8
0
 10
-0.940445
 20
206.657
 11
-0.857315
 21
206.713
  0
LINE
  8
0
 10
-0.857315
 20
206.713
 11
-0.770798
 21
206.765
  0
LINE
  8
0
 10
-0.770798
 20
206.765
 11
-0.681244
 21
206.81
  0
LINE
  8
0
 10
-0.681244
 20
206.81
 11
-0.588989
 21
206.85
  0
LINE
  8
0
 10
-0.588989
 20
206.85
 11
-0.494415
 21
206.884
  0
LINE
  8
0
 10
-0.494415
 20
206.884
 11
-0.397903
 21
206.912
  0
LINE
  8
0
 10
-0.397903
 20
206.912
 11
-0.299805
 21
206.934
  0
LINE
  8
0
 10
-0.299805
 20
206.934
 11
-0.200531
 21
206.95
  0
LINE
  8
0
 10
-0.200531
 20
206.95
 11
-0.100464
 21
206.959
  0
LINE
  8
0
 10
-0.100464
 20
206.959
 11
0
 21
206.962
  0
LINE
  8
0
 10
0
 20
206.962
 11
0.100464
 21
206.959
  0
LINE
  8
0
 10
0.100464
 20
206.959
 11
0.200531
 21
206.95
  0
LINE
  8
0
 10
0.200531
 20
206.95
 11
0.299805
 21
206.934
  0
LINE
  8
0
 10
0.299805
 20
206.934
 11
0.397903
 21
206.912
  0
LINE
  8
0
 10
0.397903
 20
206.912
 11
0.494415
 21
206.884
  0
LINE
  8
0
 10
0.494415
 20
206.884
 11
0.588989
 21
206.85
  0
LINE
  8
0
 10
0.588989
 20
206.85
 11
0.681244
 21
206.81
  0
LINE
  8
0
 10
0.681244
 20
206.81
 11
0.770798
 21
206.765
  0
LINE
  8
0
 10
0.770798
 20
206.765
 11
0.857315
 21
206.713
  0
LINE
  8
0
 10
0.857315
 20
206.713
 11
0.940445
 21
206.657
  0
LINE
  8
0
 10
0.940445
 20
206.657
 11
1.01987
 21
206.595
  0
LINE
  8
0
 10
1.01987
 20
206.595
 11
1.09526
 21
206.529
  0
LINE
  8
0
 10
1.09526
 20
206.529
 11
1.16634
 21
206.458
  0
LINE
  8
0
 10
1.16634
 20
206.458
 11
1.23282
 21
206.382
  0
LINE
  8
0
 10
1.23282
 20
206.382
 11
1.29442
 21
206.303
  0
LINE
  8
0
 10
1.29442
 20
206.303
 11
1.35092
 21
206.22
  0
LINE
  8
0
 10
1.35092
 20
206.22
 11
1.40208
 21
206.133
  0
LINE
  8
0
 10
1.40208
 20
206.133
 11
1.44771
 21
206.044
  0
LINE
  8
0
 10
1.44771
 20
206.044
 11
1.48764
 21
205.951
  0
LINE
  8
0
 10
1.48764
 20
205.951
 11
1.52168
 21
205.857
  0
LINE
  8
0
 10
1.52168
 20
205.857
 11
1.54973
 21
205.76
  0
LINE
  8
0
 10
1.54973
 20
205.76
 11
1.57166
 21
205.662
  0
LINE
  8
0
 10
1.57166
 20
205.662
 11
1.58737
 21
205.563
  0
LINE
  8
0
 10
1.58737
 20
205.563
 11
1.59683
 21
205.463
  0
LINE
  8
0
 10
1.59683
 20
205.463
 11
1.59999
 21
205.362
  0
LINE
  8
0
 10
1.59999
 20
205.362
 11
1.59683
 21
205.262
  0
LINE
  8
0
 10
1.59683
 20
205.262
 11
1.58737
 21
205.162
  0
LINE
  8
0
 10
1.58737
 20
205.162
 11
1.57166
 21
205.063
  0
LINE
  8
0
 10
1.57166
 20
205.063
 11
1.54973
 21
204.965
  0
LINE
  8
0
 10
1.54973
 20
204.965
 11
1.52168
 21
204.868
  0
LINE
  8
0
 10
1.52168
 20
204.868
 11
1.48764
 21
204.773
  0
LINE
  8
0
 10
1.48764
 20
204.773
 11
1.44771
 21
204.681
  0
LINE
  8
0
 10
1.44771
 20
204.681
 11
1.40208
 21
204.592
  0
LINE
  8
0
 10
1.40208
 20
204.592
 11
1.35092
 21
204.505
  0
LINE
  8
0
 10
1.35092
 20
204.505
 11
1.29442
 21
204.422
  0
LINE
  8
0
 10
1.29442
 20
204.422
 11
1.23282
 21
204.343
  0
LINE
  8
0
 10
1.23282
 20
204.343
 11
1.16634
 21
204.267
  0
LINE
  8
0
 10
1.16634
 20
204.267
 11
1.09526
 21
204.196
  0
LINE
  8
0
 10
1.09526
 20
204.196
 11
1.01987
 21
204.13
  0
LINE
  8
0
 10
1.01987
 20
204.13
 11
0.940445
 21
204.068
  0
LINE
  8
0
 10
0.940445
 20
204.068
 11
0.857315
 21
204.012
  0
LINE
  8
0
 10
0.857315
 20
204.012
 11
0.770798
 21
203.96
  0
LINE
  8
0
 10
0.770798
 20
203.96
 11
0.681244
 21
203.915
  0
LINE
  8
0
 10
0.681244
 20
203.915
 11
0.588989
 21
203.875
  0
LINE
  8
0
 10
0.588989
 20
203.875
 11
0.494415
 21
203.841
  0
LINE
  8
0
 10
0.494415
 20
203.841
 11
0.397903
 21
203.813
  0
LINE
  8
0
 10
0.397903
 20
203.813
 11
0.299805
 21
203.791
  0
LINE
  8
0
 10
0.299805
 20
203.791
 11
0.200531
 21
203.775
  0
LINE
  8
0
 10
0.200531
 20
203.775
 11
0.100464
 21
203.766
  0
LINE
  8
0
 10
0.100464
 20
203.766
 11
0
 21
203.762
  0
LINE
  8
0
 10
0
 20
203.762
 11
-0.100464
 21
203.766
  0
LINE
  8
0
 10
75.4026
 20
63.5251
 11
74.6083
 21
63.6001
  0
LINE
  8
0
 10
74.6083
 20
63.6001
 11
73.8203
 21
63.7249
  0
LINE
  8
0
 10
73.8203
 20
63.7249
 11
73.0416
 21
63.899
  0
LINE
  8
0
 10
73.0416
 20
63.899
 11
72.2755
 21
64.1216
  0
LINE
  8
0
 10
72.2755
 20
64.1216
 11
71.5248
 21
64.3918
  0
LINE
  8
0
 10
71.5248
 20
64.3918
 11
70.7926
 21
64.7087
  0
LINE
  8
0
 10
70.7926
 20
64.7087
 11
70.0817
 21
65.0709
  0
LINE
  8
0
 10
70.0817
 20
65.0709
 11
69.395
 21
65.477
  0
LINE
  8
0
 10
69.395
 20
65.477
 11
68.7351
 21
65.9255
  0
LINE
  8
0
 10
68.7351
 20
65.9255
 11
68.1047
 21
66.4145
  0
LINE
  8
0
 10
68.1047
 20
66.4145
 11
67.5062
 21
66.9421
  0
LINE
  8
0
 10
67.5062
 20
66.9421
 11
66.9421
 21
67.5062
  0
LINE
  8
0
 10
66.9421
 20
67.5062
 11
66.4145
 21
68.1047
  0
LINE
  8
0
 10
66.4145
 20
68.1047
 11
65.9255
 21
68.7351
  0
LINE
  8
0
 10
65.9255
 20
68.7351
 11
65.477
 21
69.395
  0
LINE
  8
0
 10
65.477
 20
69.395
 11
65.0709
 21
70.0817
  0
LINE
  8
0
 10
65.0709
 20
70.0817
 11
64.7087
 21
70.7926
  0
LINE
  8
0
 10
64.7087
 20
70.7926
 11
64.3918
 21
71.5248
  0
LINE
  8
0
 10
64.3918
 20
71.5248
 11
64.1216
 21
72.2755
  0
LINE
  8
0
 10
64.1216
 20
72.2755
 11
63.899
 21
73.0416
  0
LINE
  8
0
 10
63.899
 20
73.0416
 11
63.7249
 21
73.8203
  0
LINE
  8
0
 10
63.7249
 20
73.8203
 11
63.6001
 21
74.6083
  0
LINE
  8
0
 10
63.6001
 20
74.6083
 11
63.5251
 21
75.4026
  0
LINE
  8
0
 10
63.5251
 20
75.4026
 11
63.5
 21
76.2
  0
LINE
  8
0
 10
63.5
 20
76.2
 11
63.5251
 21
76.9974
  0
LINE
  8
0
 10
63.5251
 20
76.9974
 11
63.6001
 21
77.7917
  0
LINE
  8
0
 10
63.6001
 20
77.7917
 11
63.7249
 21
78.5797
  0
LINE
  8
0
 10
63.7249
 20
78.5797
 11
63.899
 21
79.3584
  0
LINE
  8
0
 10
63.899
 20
79.3584
 11
64.1216
 21
80.1245
  0
LINE
  8
0
 10
64.1216
 20
80.1245
 11
64.3918
 21
80.8752
  0
LINE
  8
0
 10
64.3918
 20
80.8752
 11
64.7087
 21
81.6074
  0
LINE
  8
0
 10
64.7087
 20
81.6074
 11
65.0709
 21
82.3183
  0
LINE
  8
0
 10
65.0709
 20
82.3183
 11
65.477
 21
83.005
  0
LINE
  8
0
 10
65.477
 20
83.005
 11
65.9255
 21
83.6649
  0
LINE
  8
0
 10
65.9255
 20
83.6649
 11
66.4145
 21
84.2953
  0
LINE
  8
0
 10
66.4145
 20
84.2953
 11
66.9421
 21
84.8937
  0
LINE
  8
0
 10
66.9421
 20
84.8937
 11
67.5062
 21
85.4579
  0
LINE
  8
0
 10
67.5062
 20
85.4579
 11
68.1047
 21
85.9855
  0
LINE
  8
0
 10
68.1047
 20
85.9855
 11
68.7351
 21
86.4745
  0
LINE
  8
0
 10
68.7351
 20
86.4745
 11
69.395
 21
86.923
  0
LINE
  8
0
 10
69.395
 20
86.923
 11
70.0817
 21
87.3291
  0
LINE
  8
0
 10
70.0817
 20
87.3291
 11
70.7926
 21
87.6913
  0
LINE
  8
0
 10
70.7926
 20
87.6913
 11
71.5248
 21
88.0081
  0
LINE
  8
0
 10
71.5248
 20
88.0081
 11
72.2755
 21
88.2784
  0
LINE
  8
0
 10
72.2755
 20
88.2784
 11
73.0416
 21
88.501
  0
LINE
  8
0
 10
73.0416
 20
88.501
 11
73.8203
 21
88.675
  0
LINE
  8
0
 10
73.8203
 20
88.675
 11
74.6083
 21
88.7999
  0
LINE
  8
0
 10
74.6083
 20
88.7999
 11
75.4026
 21
88.8749
  0
LINE
  8
0
 10
75.4026
 20
88.8749
 11
76.2
 21
88.9
  0
LINE
  8
0
 10
76.2
 20
88.9
 11
76.9974
 21
88.8749
  0
LINE
  8
0
 10
76.9974
 20
88.8749
 11
77.7917
 21
88.7999
  0
LINE
  8
0
 10
77.7917
 20
88.7999
 11
78.5797
 21
88.675
  0
LINE
  8
0
 10
78.5797
 20
88.675
 11
79.3584
 21
88.501
  0
LINE
  8
0
 10
79.3584
 20
88.501
 11
80.1245
 21
88.2784
  0
LINE
  8
0
 10
80.1245
 20
88.2784
 11
80.8752
 21
88.0081
  0
LINE
  8
0
 10
80.8752
 20
88.0081
 11
81.6074
 21
87.6913
  0
LINE
  8
0
 10
81.6074
 20
87.6913
 11
82.3183
 21
87.3291
  0
LINE
  8
0
 10
82.3183
 20
87.3291
 11
83.005
 21
86.923
  0
LINE
  8
0
 10
83.005
 20
86.923
 11
83.6649
 21
86.4745
  0
LINE
  8
0
 10
83.6649
 20
86.4745
 11
84.2953
 21
85.9855
  0
LINE
  8
0
 10
84.2953
 20
85.9855
 11
84.8937
 21
85.4579
  0
LINE
  8
0
 10
84.8937
 20
85.4579
 11
85.4579
 21
84.8937
  0
LINE
  8
0
 10
85.4579
 20
84.8937
 11
85.9855
 21
84.2953
  0
LINE
  8
0
 10
85.9855
 20
84.2953
 11
86.4745
 21
83.6649
  0
LINE
  8
0
 10
86.4745
 20
83.6649
 11
86.923
 21
83.005
  0
LINE
  8
0
 10
86.923
 20
83.005
 11
87.3291
 21
82.3183
  0
LINE
  8
0
 10
87.3291
 20
82.3183
 11
87.6913
 21
81.6074
  0
LINE
  8
0
 10
87.6913
 20
81.6074
 11
88.0081
 21
80.8752
  0
LINE
  8
0
 10
88.0081
 20
80.8752
 11
88.2784
 21
80.1245
  0
LINE
  8
0
 10
88.2784
 20
80.1245
 11
88.501
 21
79.3584
  0
LINE
  8
0
 10
88.501
 20
79.3584
 11
88.675
 21
78.5797
  0
LINE
  8
0
 10
88.675
 20
78.5797
 11
88.7999
 21
77.7917
  0
LINE
  8
0
 10
88.7999
 20
77.7917
 11
88.8749
 21
76.9974
  0
LINE
  8
0
 10
88.8749
 20
76.9974
 11
88.9
 21
76.2
  0
LINE
  8
0
 10
88.9
 20
76.2
 11
88.8749
 21
75.4026
  0
LINE
  8
0
 10
88.8749
 20
75.4026
 11
88.7999
 21
74.6083
  0
LINE
  8
0
 10
88.7999
 20
74.6083
 11
88.675
 21
73.8203
  0
LINE
  8
0
 10
88.675
 20
73.8203
 11
88.501
 21
73.0416
  0
LINE
  8
0
 10
88.501
 20
73.0416
 11
88.2784
 21
72.2755
  0
LINE
  8
0
 10
88.2784
 20
72.2755
 11
88.0081
 21
71.5248
  0
LINE
  8
0
 10
88.0081
 20
71.5248
 11
87.6913
 21
70.7926
  0
LINE
  8
0
 10
87.6913
 20
70.7926
 11
87.3291
 21
70.0817
  0
LINE
  8
0
 10
87.3291
 20
70.0817
 11
86.923
 21
69.395
  0
LINE
  8
0
 10
86.923
 20
69.395
 11
86.4745
 21
68.7351
  0
LINE
  8
0
 10
86.4745
 20
68.7351
 11
85.9855
 21
68.1047
  0
LINE
  8
0
 10
85.9855
 20
68.1047
 11
85.4579
 21
67.5062
  0
LINE
  8
0
 10
85.4579
 20
67.5062
 11
84.8937
 21
66.9421
  0
LINE
  8
0
 10
84.8937
 20
66.9421
 11
84.2953
 21
66.4145
  0
LINE
  8
0
 10
84.2953
 20
66.4145
 11
83.6649
 21
65.9255
  0
LINE
  8
0
 10
83.6649
 20
65.9255
 11
83.005
 21
65.477
  0
LINE
  8
0
 10
83.005
 20
65.477
 11
82.3183
 21
65.0709
  0
LINE
  8
0
 10
82.3183
 20
65.0709
 11
81.6074
 21
64.7087
  0
LINE
  8
0
 10
81.6074
 20
64.7087
 11
80.8752
 21
64.3918
  0
LINE
  8
0
 10
80.8752
 20
64.3918
 11
80.1245
 21
64.1216
  0
LINE
  8
0
 10
80.1245
 20
64.1216
 11
79.3584
 21
63.899
  0
LINE
  8
0
 10
79.3584
 20
63.899
 11
78.5797
 21
63.7249
  0
LINE
  8
0
 10
78.5797
 20
63.7249
 11
77.7917
 21
63.6001
  0
LINE
  8
0
 10
77.7917
 20
63.6001
 11
76.9974
 21
63.5251
  0
LINE
  8
0
 10
76.9974
 20
63.5251
 11
76.2
 21
63.5
  0
LINE
  8
0
 10
76.2
 20
63.5
 11
75.4026
 21
63.5251
  0
LINE
  8
0
 10
-76.9974
 20
63.5251
 11
-77.7917
 21
63.6001
  0
LINE
  8
0
 10
-77.7917
 20
63.6001
 11
-78.5797
 21
63.7249
  0
LINE
  8
0
 10
-78.5797
 20
63.7249
 11
-79.3584
 21
63.899
  0
LINE
  8
0
 10
-79.3584
 20
63.899
 11
-80.1245
 21
64.1216
  0
LINE
  8
0
 10
-80.1245
 20
64.1216
 11
-80.8752
 21
64.3918
  0
LINE
  8
0
 10
-80.8752
 20
64.3918
 11
-81.6074
 21
64.7087
  0
LINE
  8
0
 10
-81.6074
 20
64.7087
 11
-82.3183
 21
65.0709
  0
LINE
  8
0
 10
-82.3183
 20
65.0709
 11
-83.005
 21
65.477
  0
LINE
  8
0
 10
-83.005
 20
65.477
 11
-83.6649
 21
65.9255
  0
LINE
  8
0
 10
-83.6649
 20
65.9255
 11
-84.2953
 21
66.4145
  0
LINE
  8
0
 10
-84.2953
 20
66.4145
 11
-84.8937
 21
66.9421
  0
LINE
  8
0
 10
-84.8937
 20
66.9421
 11
-85.4579
 21
67.5062
  0
LINE
  8
0
 10
-85.4579
 20
67.5062
 11
-85.9855
 21
68.1047
  0
LINE
  8
0
 10
-85.9855
 20
68.1047
 11
-86.4745
 21
68.7351
  0
LINE
  8
0
 10
-86.4745
 20
68.7351
 11
-86.923
 21
69.395
  0
LINE
  8
0
 10
-86.923
 20
69.395
 11
-87.3291
 21
70.0817
  0
LINE
  8
0
 10
-87.3291
 20
70.0817
 11
-87.6913
 21
70.7926
  0
LINE
  8
0
 10
-87.6913
 20
70.7926
 11
-88.0081
 21
71.5248
  0
LINE
  8
0
 10
-88.0081
 20
71.5248
 11
-88.2784
 21
72.2755
  0
LINE
  8
0
 10
-88.2784
 20
72.2755
 11
-88.501
 21
73.0416
  0
LINE
  8
0
 10
-88.501
 20
73.0416
 11
-88.675
 21
73.8203
  0
LINE
  8
0
 10
-88.675
 20
73.8203
 11
-88.7999
 21
74.6083
  0
LINE
  8
0
 10
-88.7999
 20
74.6083
 11
-88.8749
 21
75.4026
  0
LINE
  8
0
 10
-88.8749
 20
75.4026
 11
-88.9
 21
76.2
  0
LINE
  8
0
 10
-88.9
 20
76.2
 11
-88.8749
 21
76.9974
  0
LINE
  8
0
 10
-88.8749
 20
76.9974
 11
-88.7999
 21
77.7917
  0
LINE
  8
0
 10
-88.7999
 20
77.7917
 11
-88.675
 21
78.5797
  0
LINE
  8
0
 10
-88.675
 20
78.5797
 11
-88.501
 21
79.3584
  0
LINE
  8
0
 10
-88.501
 20
79.3584
 11
-88.2784
 21
80.1245
  0
LINE
  8
0
 10
-88.2784
 20
80.1245
 11
-88.0081
 21
80.8752
  0
LINE
  8
0
 10
-88.0081
 20
80.8752
 11
-87.6913
 21
81.6074
  0
LINE
  8
0
 10
-87.6913
 20
81.6074
 11
-87.3291
 21
82.3183
  0
LINE
  8
0
 10
-87.3291
 20
82.3183
 11
-86.923
 21
83.005
  0
LINE
  8
0
 10
-86.923
 20
83.005
 11
-86.4745
 21
83.6649
  0
LINE
  8
0
 10
-86.4745
 20
83.6649
 11
-85.9855
 21
84.2953
  0
LINE
  8
0
 10
-85.9855
 20
84.2953
 11
-85.4579
 21
84.8937
  0
LINE
  8
0
 10
-85.4579
 20
84.8937
 11
-84.8937
 21
85.4579
  0
LINE
  8
0
 10
-84.8937
 20
85.4579
 11
-84.2953
 21
85.9855
  0
LINE
  8
0
 10
-84.2953
 20
85.9855
 11
-83.6649
 21
86.4745
  0
LINE
  8
0
 10
-83.6649
 20
86.4745
 11
-83.005
 21
86.923
  0
LINE
  8
0
 10
-83.005
 20
86.923
 11
-82.3183
 21
87.3291
  0
LINE
  8
0
 10
-82.3183
 20
87.3291
 11
-81.6074
 21
87.6913
  0
LINE
  8
0
 10
-81.6074
 20
87.6913
 11
-80.8752
 21
88.0081
  0
LINE
  8
0
 10
-80.8752
 20
88.0081
 11
-80.1245
 21
88.2784
  0
LINE
  8
0
 10
-80.1245
 20
88.2784
 11
-79.3584
 21
88.501
  0
LINE
  8
0
 10
-79.3584
 20
88.501
 11
-78.5797
 21
88.675
  0
LINE
  8
0
 10
-78.5797
 20
88.675
 11
-77.7917
 21
88.7999
  0
LINE
  8
0
 10
-77.7917
 20
88.7999
 11
-76.9974
 21
88.8749
  0
LINE
  8
0
 10
-76.9974
 20
88.8749
 11
-76.2
 21
88.9
  0
LINE
  8
0
 10
-76.2
 20
88.9
 11
-75.4026
 21
88.8749
  0
LINE
  8
0
 10
-75.4026
 20
88.8749
 11
-74.6083
 21
88.7999
  0
LINE
  8
0
 10
-74.6083
 20
88.7999
 11
-73.8203
 21
88.675
  0
LINE
  8
0
 10
-73.8203
 20
88.675
 11
-73.0416
 21
88.501
  0
LINE
  8
0
 10
-73.0416
 20
88.501
 11
-72.2755
 21
88.2784
  0
LINE
  8
0
 10
-72.2755
 20
88.2784
 11
-71.5248
 21
88.0081
  0
LINE
  8
0
 10
-71.5248
 20
88.0081
 11
-70.7926
 21
87.6913
  0
LINE
  8
0
 10
-70.7926
 20
87.6913
 11
-70.0817
 21
87.3291
  0
LINE
  8
0
 10
-70.0817
 20
87.3291
 11
-69.395
 21
86.923
  0
LINE
  8
0
 10
-69.395
 20
86.923
 11
-68.7351
 21
86.4745
  0
LINE
  8
0
 10
-68.7351
 20
86.4745
 11
-68.1047
 21
85.9855
  0
LINE
  8
0
 10
-68.1047
 20
85.9855
 11
-67.5062
 21
85.4579
  0
LINE
  8
0
 10
-67.5062
 20
85.4579
 11
-66.9421
 21
84.8937
  0
LINE
  8
0
 10
-66.9421
 20
84.8937
 11
-66.4145
 21
84.2953
  0
LINE
  8
0
 10
-66.4145
 20
84.2953
 11
-65.9255
 21
83.6649
  0
LINE
  8
0
 10
-65.9255
 20
83.6649
 11
-65.477
 21
83.005
  0
LINE
  8
0
 10
-65.477
 20
83.005
 11
-65.0709
 21
82.3183
  0
LINE
  8
0
 10
-65.0709
 20
82.3183
 11
-64.7087
 21
81.6074
  0
LINE
  8
0
 10
-64.7087
 20
81.6074
 11
-64.3918
 21
80.8752
  0
LINE
  8
0
 10
-64.3918
 20
80.8752
 11
-64.1216
 21
80.1245
  0
LINE
  8
0
 10
-64.1216
 20
80.1245
 11
-63.899
 21
79.3584
  0
LINE
  8
0
 10
-63.899
 20
79.3584
 11
-63.7249
 21
78.5797
  0
LINE
  8
0
 10
-63.7249
 20
78.5797
 11
-63.6001
 21
77.7917
  0
LINE
  8
0
 10
-63.6001
 20
77.7917
 11
-63.5251
 21
76.9974
  0
LINE
  8
0
 10
-63.5251
 20
76.9974
 11
-63.5
 21
76.2
  0
LINE
  8
0
 10
-63.5
 20
76.2
 11
-63.5251
 21
75.4026
  0
LINE
  8
0
 10
-63.5251
 20
75.4026
 11
-63.6001
 21
74.6083
  0
LINE
  8
0
 10
-63.6001
 20
74.6083
 11
-63.7249
 21
73.8203
  0
LINE
  8
0
 10
-63.7249
 20
73.8203
 11
-63.899
 21
73.0416
  0
LINE
  8
0
 10
-63.899
 20
73.0416
 11
-64.1216
 21
72.2755
  0
LINE
  8
0
 10
-64.1216
 20
72.2755
 11
-64.3918
 21
71.5248
  0
LINE
  8
0
 10
-64.3918
 20
71.5248
 11
-64.7087
 21
70.7926
  0
LINE
  8
0
 10
-64.7087
 20
70.7926
 11
-65.0709
 21
70.0817
  0
LINE
  8
0
 10
-65.0709
 20
70.0817
 11
-65.477
 21
69.395
  0
LINE
  8
0
 10
-65.477
 20
69.395
 11
-65.9255
 21
68.7351
  0
LINE
  8
0
 10
-65.9255
 20
68.7351
 11
-66.4145
 21
68.1047
  0
LINE
  8
0
 10
-66.4145
 20
68.1047
 11
-66.9421
 21
67.5062
  0
LINE
  8
0
 10
-66.9421
 20
67.5062
 11
-67.5062
 21
66.9421
  0
LINE
  8
0
 10
-67.5062
 20
66.9421
 11
-68.1047
 21
66.4145
  0
LINE
  8
0
 10
-68.1047
 20
66.4145
 11
-68.7351
 21
65.9255
  0
LINE
  8
0
 10
-68.7351
 20
65.9255
 11
-69.395
 21
65.477
  0
LINE
  8
0
 10
-69.395
 20
65.477
 11
-70.0817
 21
65.0709
  0
LINE
  8
0
 10
-70.0817
 20
65.0709
 11
-70.7926
 21
64.7087
  0
LINE
  8
0
 10
-70.7926
 20
64.7087
 11
-71.5248
 21
64.3918
  0
LINE
  8
0
 10
-71.5248
 20
64.3918
 11
-72.2755
 21
64.1216
  0
LINE
  8
0
 10
-72.2755
 20
64.1216
 11
-73.0416
 21
63.899
  0
LINE
  8
0
 10
-73.0416
 20
63.899
 11
-73.8203
 21
63.7249
  0
LINE
  8
0
 10
-73.8203
 20
63.7249
 11
-74.6083
 21
63.6001
  0
LINE
  8
0
 10
-74.6083
 20
63.6001
 11
-75.4026
 21
63.5251
  0
LINE
  8
0
 10
-75.4026
 20
63.5251
 11
-76.2
 21
63.5
  0
LINE
  8
0
 10
-76.2
 20
63.5
 11
-76.9974
 21
63.5251
  0
LINE
  8
0
 10
-0.79744
 20
-12.6749
 11
-1.59172
 21
-12.5999
  0
LINE
  8
0
 10
-1.59172
 20
-12.5999
 11
-2.37973
 21
-12.475
  0
LINE
  8
0
 10
-2.37973
 20
-12.475
 11
-3.15836
 21
-12.301
  0
LINE
  8
0
 10
-3.15836
 20
-12.301
 11
-3.92451
 21
-12.0784
  0
LINE
  8
0
 10
-3.92451
 20
-12.0784
 11
-4.67517
 21
-11.8082
  0
LINE
  8
0
 10
-4.67517
 20
-11.8082
 11
-5.40739
 21
-11.4913
  0
LINE
  8
0
 10
-5.40739
 20
-11.4913
 11
-6.11827
 21
-11.1291
  0
LINE
  8
0
 10
-6.11827
 20
-11.1291
 11
-6.80499
 21
-10.723
  0
LINE
  8
0
 10
-6.80499
 20
-10.723
 11
-7.46486
 21
-10.2745
  0
LINE
  8
0
 10
-7.46486
 20
-10.2745
 11
-8.09528
 21
-9.78551
  0
LINE
  8
0
 10
-8.09528
 20
-9.78551
 11
-8.69374
 21
-9.25789
  0
LINE
  8
0
 10
-8.69374
 20
-9.25789
 11
-9.25789
 21
-8.69374
  0
LINE
  8
0
 10
-9.25789
 20
-8.69374
 11
-9.78551
 21
-8.09528
  0
LINE
  8
0
 10
-9.78551
 20
-8.09528
 11
-10.2745
 21
-7.46486
  0
LINE
  8
0
 10
-10.2745
 20
-7.46486
 11
-10.723
 21
-6.80499
  0
LINE
  8
0
 10
-10.723
 20
-6.80499
 11
-11.1291
 21
-6.11827
  0
LINE
  8
0
 10
-11.1291
 20
-6.11827
 11
-11.4913
 21
-5.40739
  0
LINE
  8
0
 10
-11.4913
 20
-5.40739
 11
-11.8082
 21
-4.67517
  0
LINE
  8
0
 10
-11.8082
 20
-4.67517
 11
-12.0784
 21
-3.92451
  0
LINE
  8
0
 10
-12.0784
 20
-3.92451
 11
-12.301
 21
-3.15836
  0
LINE
  8
0
 10
-12.301
 20
-3.15836
 11
-12.475
 21
-2.37973
  0
LINE
  8
0
 10
-12.475
 20
-2.37973
 11
-12.5999
 21
-1.59172
  0
LINE
  8
0
 10
-12.5999
 20
-1.59172
 11
-12.6668
 21
-0.883408
  0
LINE
  8
0
 10
-12.6668
 20
-0.883408
 11
-12.6491
 21
-0.857315
  0
LINE
  8
0
 10
-12.6491
 20
-0.857315
 11
-12.5979
 21
-0.770798
  0
LINE
  8
0
 10
-12.5979
 20
-0.770798
 11
-12.5523
 21
-0.681244
  0
LINE
  8
0
 10
-12.5523
 20
-0.681244
 11
-12.5123
 21
-0.588989
  0
LINE
  8
0
 10
-12.5123
 20
-0.588989
 11
-12.4783
 21
-0.494415
  0
LINE
  8
0
 10
-12.4783
 20
-0.494415
 11
-12.4503
 21
-0.397903
  0
LINE
  8
0
 10
-12.4503
 20
-0.397903
 11
-12.4283
 21
-0.299805
  0
LINE
  8
0
 10
-12.4283
 20
-0.299805
 11
-12.4126
 21
-0.200531
  0
LINE
  8
0
 10
-12.4126
 20
-0.200531
 11
-12.4032
 21
-0.100464
  0
LINE
  8
0
 10
-12.4032
 20
-0.100464
 11
-12.4
 21
0
  0
LINE
  8
0
 10
-12.4
 20
0
 11
-12.4032
 21
0.100464
  0
LINE
  8
0
 10
-12.4032
 20
0.100464
 11
-12.4126
 21
0.200531
  0
LINE
  8
0
 10
-12.4126
 20
0.200531
 11
-12.4283
 21
0.299805
  0
LINE
  8
0
 10
-12.4283
 20
0.299805
 11
-12.4503
 21
0.397903
  0
LINE
  8
0
 10
-12.4503
 20
0.397903
 11
-12.4783
 21
0.494415
  0
LINE
  8
0
 10
-12.4783
 20
0.494415
 11
-12.5123
 21
0.588989
  0
LINE
  8
0
 10
-12.5123
 20
0.588989
 11
-12.5523
 21
0.681244
  0
LINE
  8
0
 10
-12.5523
 20
0.681244
 11
-12.5979
 21
0.770798
  0
LINE
  8
0
 10
-12.5979
 20
0.770798
 11
-12.6491
 21
0.857315
  0
LINE
  8
0
 10
-12.6491
 20
0.857315
 11
-12.6668
 21
0.883408
  0
LINE
  8
0
 10
-12.6668
 20
0.883408
 11
-12.5999
 21
1.59172
  0
LINE
  8
0
 10
-12.5999
 20
1.59172
 11
-12.475
 21
2.37973
  0
LINE
  8
0
 10
-12.475
 20
2.37973
 11
-12.301
 21
3.15836
  0
LINE
  8
0
 10
-12.301
 20
3.15836
 11
-12.0784
 21
3.92451
  0
LINE
  8
0
 10
-12.0784
 20
3.92451
 11
-11.8082
 21
4.67517
  0
LINE
  8
0
 10
-11.8082
 20
4.67517
 11
-11.4913
 21
5.40739
  0
LINE
  8
0
 10
-11.4913
 20
5.40739
 11
-11.1291
 21
6.11827
  0
LINE
  8
0
 10
-11.1291
 20
6.11827
 11
-10.723
 21
6.80499
  0
LINE
  8
0
 10
-10.723
 20
6.80499
 11
-10.2745
 21
7.46486
  0
LINE
  8
0
 10
-10.2745
 20
7.46486
 11
-9.78551
 21
8.09528
  0
LINE
  8
0
 10
-9.78551
 20
8.09528
 11
-9.25789
 21
8.69374
  0
LINE
  8
0
 10
-9.25789
 20
8.69374
 11
-8.69374
 21
9.25789
  0
LINE
  8
0
 10
-8.69374
 20
9.25789
 11
-8.09528
 21
9.78551
  0
LINE
  8
0
 10
-8.09528
 20
9.78551
 11
-7.46486
 21
10.2745
  0
LINE
  8
0
 10
-7.46486
 20
10.2745
 11
-6.80499
 21
10.723
  0
LINE
  8
0
 10
-6.80499
 20
10.723
 11
-6.11827
 21
11.1291
  0
LINE
  8
0
 10
-6.11827
 20
11.1291
 11
-5.40739
 21
11.4913
  0
LINE
  8
0
 10
-5.40739
 20
11.4913
 11
-4.67517
 21
11.8082
  0
LINE
  8
0
 10
-4.67517
 20
11.8082
 11
-3.92451
 21
12.0784
  0
LINE
  8
0
 10
-3.92451
 20
12.0784
 11
-3.15836
 21
12.301
  0
LINE
  8
0
 10
-3.15836
 20
12.301
 11
-2.37973
 21
12.475
  0
LINE
  8
0
 10
-2.37973
 20
12.475
 11
-1.59172
 21
12.5999
  0
LINE
  8
0
 10
-1.59172
 20
12.5999
 11
-0.79744
 21
12.6749
  0
LINE
  8
0
 10
-0.79744
 20
12.6749
 11
0
 21
12.7
  0
LINE
  8
0
 10
0
 20
12.7
 11
0.79744
 21
12.6749
  0
LINE
  8
0
 10
0.79744
 20
12.6749
 11
1.59172
 21
12.5999
  0
LINE
  8
0
 10
1.59172
 20
12.5999
 11
2.37973
 21
12.475
  0
LINE
  8
0
 10
2.37973
 20
12.475
 11
3.15836
 21
12.301
  0
LINE
  8
0
 10
3.15836
 20
12.301
 11
3.92451
 21
12.0784
  0
LINE
  8
0
 10
3.92451
 20
12.0784
 11
4.67517
 21
11.8082
  0
LINE
  8
0
 10
4.67517
 20
11.8082
 11
5.40739
 21
11.4913
  0
LINE
  8
0
 10
5.40739
 20
11.4913
 11
6.11827
 21
11.1291
  0
LINE
  8
0
 10
6.11827
 20
11.1291
 11
6.80499
 21
10.723
  0
LINE
  8
0
 10
6.80499
 20
10.723
 11
7.46486
 21
10.2745
  0
LINE
  8
0
 10
7.46486
 20
10.2745
 11
8.09528
 21
9.78551
  0
LINE
  8
0
 10
8.09528
 20
9.78551
 11
8.69374
 21
9.25789
  0
LINE
  8
0
 10
8.69374
 20
9.25789
 11
9.25789
 21
8.69374
  0
LINE
  8
0
 10
9.25789
 20
8.69374
 11
9.78551
 21
8.09528
  0
LINE
  8
0
 10
9.78551
 20
8.09528
 11
10.2745
 21
7.46486
  0
LINE
  8
0
 10
10.2745
 20
7.46486
 11
10.723
 21
6.80499
  0
LINE
  8
0
 10
10.723
 20
6.80499
 11
11.1291
 21
6.11827
  0
LINE
  8
0
 10
11.1291
 20
6.11827
 11
11.4913
 21
5.40739
  0
LINE
  8
0
 10
11.4913
 20
5.40739
 11
11.8082
 21
4.67517
  0
LINE
  8
0
 10
11.8082
 20
4.67517
 11
12.0784
 21
3.92451
  0
LINE
  8
0
 10
12.0784
 20
3.92451
 11
12.301
 21
3.15836
  0
LINE
  8
0
 10
12.301
 20
3.15836
 11
12.475
 21
2.37973
  0
LINE
  8
0
 10
12.475
 20
2.37973
 11
12.5999
 21
1.59172
  0
LINE
  8
0
 10
12.5999
 20
1.59172
 11
12.6668
 21
0.883408
  0
LINE
  8
0
 10
12.6668
 20
0.883408
 11
12.6491
 21
0.857315
  0
LINE
  8
0
 10
12.6491
 20
0.857315
 11
12.5979
 21
0.770798
  0
LINE
  8
0
 10
12.5979
 20
0.770798
 11
12.5523
 21
0.681244
  0
LINE
  8
0
 10
12.5523
 20
0.681244
 11
12.5123
 21
0.588989
  0
LINE
  8
0
 10
12.5123
 20
0.588989
 11
12.4783
 21
0.494415
  0
LINE
  8
0
 10
12.4783
 20
0.494415
 11
12.4503
 21
0.397903
  0
LINE
  8
0
 10
12.4503
 20
0.397903
 11
12.4283
 21
0.299805
  0
LINE
  8
0
 10
12.4283
 20
0.299805
 11
12.4126
 21
0.200531
  0
LINE
  8
0
 10
12.4126
 20
0.200531
 11
12.4032
 21
0.100464
  0
LINE
  8
0
 10
12.4032
 20
0.100464
 11
12.4
 21
0
  0
LINE
  8
0
 10
12.4
 20
0
 11
12.4032
 21
-0.100464
  0
LINE
  8
0
 10
12.4032
 20
-0.100464
 11
12.4126
 21
-0.200531
  0
LINE
  8
0
 10
12.4126
 20
-0.200531
 11
12.4283
 21
-0.299805
  0
LINE
  8
0
 10
12.4283
 20
-0.299805
 11
12.4503
 21
-0.397903
  0
LINE
  8
0
 10
12.4503
 20
-0.397903
 11
12.4783
 21
-0.494415
  0
LINE
  8
0
 10
12.4783
 20
-0.494415
 11
12.5123
 21
-0.588989
  0
LINE
  8
0
 10
12.5123
 20
-0.588989
 11
12.5523
 21
-0.681244
  0
LINE
  8
0
 10
12.5523
 20
-0.681244
 11
12.5979
 21
-0.770798
  0
LINE
  8
0
 10
12.5979
 20
-0.770798
 11
12.6491
 21
-0.857315
  0
LINE
  8
0
 10
12.6491
 20
-0.857315
 11
12.6668
 21
-0.883408
  0
LINE
  8
0
 10
12.6668
 20
-0.883408
 11
12.5999
 21
-1.59172
  0
LINE
  8
0
 10
12.5999
 20
-1.59172
 11
12.475
 21
-2.37973
  0
LINE
  8
0
 10
12.475
 20
-2.37973
 11
12.301
 21
-3.15836
  0
LINE
  8
0
 10
12.301
 20
-3.15836
 11
12.0784
 21
-3.92451
  0
LINE
  8
0
 10
12.0784
 20
-3.92451
 11
11.8082
 21
-4.67517
  0
LINE
  8
0
 10
11.8082
 20
-4.67517
 11
11.4913
 21
-5.40739
  0
LINE
  8
0
 10
11.4913
 20
-5.40739
 11
11.1291
 21
-6.11827
  0
LINE
  8
0
 10
11.1291
 20
-6.11827
 11
10.723
 21
-6.80499
  0
LINE
  8
0
 10
10.723
 20
-6.80499
 11
10.2745
 21
-7.46486
  0
LINE
  8
0
 10
10.2745
 20
-7.46486
 11
9.78551
 21
-8.09528
  0
LINE
  8
0
 10
9.78551
 20
-8.09528
 11
9.25789
 21
-8.69374
  0
LINE
  8
0
 10
9.25789
 20
-8.69374
 11
8.69374
 21
-9.25789
  0
LINE
  8
0
 10
8.69374
 20
-9.25789
 11
8.09528
 21
-9.78551
  0
LINE
  8
0
 10
8.09528
 20
-9.78551
 11
7.46486
 21
-10.2745
  0
LINE
  8
0
 10
7.46486
 20
-10.2745
 11
6.80499
 21
-10.723
  0
LINE
  8
0
 10
6.80499
 20
-10.723
 11
6.11827
 21
-11.1291
  0
LINE
  8
0
 10
6.11827
 20
-11.1291
 11
5.40739
 21
-11.4913
  0
LINE
  8
0
 10
5.40739
 20
-11.4913
 11
4.67517
 21
-11.8082
  0
LINE
  8
0
 10
4.67517
 20
-11.8082
 11
3.92451
 21
-12.0784
  0
LINE
  8
0
 10
3.92451
 20
-12.0784
 11
3.15836
 21
-12.301
  0
LINE
  8
0
 10
3.15836
 20
-12.301
 11
2.37973
 21
-12.475
  0
LINE
  8
0
 10
2.37973
 20
-12.475
 11
1.59172
 21
-12.5999
  0
LINE
  8
0
 10
1.59172
 20
-12.5999
 11
0.79744
 21
-12.6749
  0
LINE
  8
0
 10
0.79744
 20
-12.6749
 11
0
 21
-12.7
  0
LINE
  8
0
 10
0
 20
-12.7
 11
-0.79744
 21
-12.6749
  0
LINE
  8
0
 10
-76.9974
 20
-88.8749
 11
-77.7917
 21
-88.7999
  0
LINE
  8
0
 10
-77.7917
 20
-88.7999
 11
-78.5797
 21
-88.675
  0
LINE
  8
0
 10
-78.5797
 20
-88.675
 11
-79.3584
 21
-88.501
  0
LINE
  8
0
 10
-79.3584
 20
-88.501
 11
-80.1245
 21
-88.2784
  0
LINE
  8
0
 10
-80.1245
 20
-88.2784
 11
-80.8752
 21
-88.0081
  0
LINE
  8
0
 10
-80.8752
 20
-88.0081
 11
-81.6074
 21
-87.6913
  0
LINE
  8
0
 10
-81.6074
 20
-87.6913
 11
-82.3183
 21
-87.3291
  0
LINE
  8
0
 10
-82.3183
 20
-87.3291
 11
-83.005
 21
-86.923
  0
LINE
  8
0
 10
-83.005
 20
-86.923
 11
-83.6649
 21
-86.4745
  0
LINE
  8
0
 10
-83.6649
 20
-86.4745
 11
-84.2953
 21
-85.9855
  0
LINE
  8
0
 10
-84.2953
 20
-85.9855
 11
-84.8937
 21
-85.4579
  0
LINE
  8
0
 10
-84.8937
 20
-85.4579
 11
-85.4579
 21
-84.8937
  0
LINE
  8
0
 10
-85.4579
 20
-84.8937
 11
-85.9855
 21
-84.2953
  0
LINE
  8
0
 10
-85.9855
 20
-84.2953
 11
-86.4745
 21
-83.6649
  0
LINE
  8
0
 10
-86.4745
 20
-83.6649
 11
-86.923
 21
-83.005
  0
LINE
  8
0
 10
-86.923
 20
-83.005
 11
-87.3291
 21
-82.3183
  0
LINE
  8
0
 10
-87.3291
 20
-82.3183
 11
-87.6913
 21
-81.6074
  0
LINE
  8
0
 10
-87.6913
 20
-81.6074
 11
-88.0081
 21
-80.8752
  0
LINE
  8
0
 10
-88.0081
 20
-80.8752
 11
-88.2784
 21
-80.1245
  0
LINE
  8
0
 10
-88.2784
 20
-80.1245
 11
-88.501
 21
-79.3584
  0
LINE
  8
0
 10
-88.501
 20
-79.3584
 11
-88.675
 21
-78.5797
  0
LINE
  8
0
 10
-88.675
 20
-78.5797
 11
-88.7999
 21
-77.7917
  0
LINE
  8
0
 10
-88.7999
 20
-77.7917
 11
-88.8749
 21
-76.9974
  0
LINE
  8
0
 10
-88.8749
 20
-76.9974
 11
-88.9
 21
-76.2
  0
LINE
  8
0
 10
-88.9
 20
-76.2
 11
-88.8749
 21
-75.4026
  0
LINE
  8
0
 10
-88.8749
 20
-75.4026
 11
-88.7999
 21
-74.6083
  0
LINE
  8
0
 10
-88.7999
 20
-74.6083
 11
-88.675
 21
-73.8203
  0
LINE
  8
0
 10
-88.675
 20
-73.8203
 11
-88.501
 21
-73.0416
  0
LINE
  8
0
 10
-88.501
 20
-73.0416
 11
-88.2784
 21
-72.2755
  0
LINE
  8
0
 10
-88.2784
 20
-72.2755
 11
-88.0081
 21
-71.5248
  0
LINE
  8
0
 10
-88.0081
 20
-71.5248
 11
-87.6913
 21
-70.7926
  0
LINE
  8
0
 10
-87.6913
 20
-70.7926
 11
-87.3291
 21
-70.0817
  0
LINE
  8
0
 10
-87.3291
 20
-70.0817
 11
-86.923
 21
-69.395
  0
LINE
  8
0
 10
-86.923
 20
-69.395
 11
-86.4745
 21
-68.7351
  0
LINE
  8
0
 10
-86.4745
 20
-68.7351
 11
-85.9855
 21
-68.1047
  0
LINE
  8
0
 10
-85.9855
 20
-68.1047
 11
-85.4579
 21
-67.5062
  0
LINE
  8
0
 10
-85.4579
 20
-67.5062
 11
-84.8937
 21
-66.9421
  0
LINE
  8
0
 10
-84.8937
 20
-66.9421
 11
-84.2953
 21
-66.4145
  0
LINE
  8
0
 10
-84.2953
 20
-66.4145
 11
-83.6649
 21
-65.9255
  0
LINE
  8
0
 10
-83.6649
 20
-65.9255
 11
-83.005
 21
-65.477
  0
LINE
  8
0
 10
-83.005
 20
-65.477
 11
-82.3183
 21
-65.0709
  0
LINE
  8
0
 10
-82.3183
 20
-65.0709
 11
-81.6074
 21
-64.7087
  0
LINE
  8
0
 10
-81.6074
 20
-64.7087
 11
-80.8752
 21
-64.3918
  0
LINE
  8
0
 10
-80.8752
 20
-64.3918
 11
-80.1245
 21
-64.1216
  0
LINE
  8
0
 10
-80.1245
 20
-64.1216
 11
-79.3584
 21
-63.899
  0
LINE
  8
0
 10
-79.3584
 20
-63.899
 11
-78.5797
 21
-63.7249
  0
LINE
  8
0
 10
-78.5797
 20
-63.7249
 11
-77.7917
 21
-63.6001
  0
LINE
  8
0
 10
-77.7917
 20
-63.6001
 11
-76.9974
 21
-63.5251
  0
LINE
  8
0
 10
-76.9974
 20
-63.5251
 11
-76.2
 21
-63.5
  0
LINE
  8
0
 10
-76.2
 20
-63.5
 11
-75.4026
 21
-63.5251
  0
LINE
  8
0
 10
-75.4026
 20
-63.5251
 11
-74.6083
 21
-63.6001
  0
LINE
  8
0
 10
-74.6083
 20
-63.6001
 11
-73.8203
 21
-63.7249
  0
LINE
  8
0
 10
-73.8203
 20
-63.7249
 11
-73.0416
 21
-63.899
  0
LINE
  8
0
 10
-73.0416
 20
-63.899
 11
-72.2755
 21
-64.1216
  0
LINE
  8
0
 10
-72.2755
 20
-64.1216
 11
-71.5248
 21
-64.3918
  0
LINE
  8
0
 10
-71.5248
 20
-64.3918
 11
-70.7926
 21
-64.7087
  0
LINE
  8
0
 10
-70.7926
 20
-64.7087
 11
-70.0817
 21
-65.0709
  0
LINE
  8
0
 10
-70.0817
 20
-65.0709
 11
-69.395
 21
-65.477
  0
LINE
  8
0
 10
-69.395
 20
-65.477
 11
-68.7351
 21
-65.9255
  0
LINE
  8
0
 10
-68.7351
 20
-65.9255
 11
-68.1047
 21
-66.4145
  0
LINE
  8
0
 10
-68.1047
 20
-66.4145
 11
-67.5062
 21
-66.9421
  0
LINE
  8
0
 10
-67.5062
 20
-66.9421
 11
-66.9421
 21
-67.5062
  0
LINE
  8
0
 10
-66.9421
 20
-67.5062
 11
-66.4145
 21
-68.1047
  0
LINE
  8
0
 10
-66.4145
 20
-68.1047
 11
-65.9255
 21
-68.7351
  0
LINE
  8
0
 10
-65.9255
 20
-68.7351
 11
-65.477
 21
-69.395
  0
LINE
  8
0
 10
-65.477
 20
-69.395
 11
-65.0709
 21
-70.0817
  0
LINE
  8
0
 10
-65.0709
 20
-70.0817
 11
-64.7087
 21
-70.7926
  0
LINE
  8
0
 10
-64.7087
 20
-70.7926
 11
-64.3918
 21
-71.5248
  0
LINE
  8
0
 10
-64.3918
 20
-71.5248
 11
-64.1216
 21
-72.2755
  0
LINE
  8
0
 10
-64.1216
 20
-72.2755
 11
-63.899
 21
-73.0416
  0
LINE
  8
0
 10
-63.899
 20
-73.0416
 11
-63.7249
 21
-73.8203
  0
LINE
  8
0
 10
-63.7249
 20
-73.8203
 11
-63.6001
 21
-74.6083
  0
LINE
  8
0
 10
-63.6001
 20
-74.6083
 11
-63.5251
 21
-75.4026
  0
LINE
  8
0
 10
-63.5251
 20
-75.4026
 11
-63.5
 21
-76.2
  0
LINE
  8
0
 10
-63.5
 20
-76.2
 11
-63.5251
 21
-76.9974
  0
LINE
  8
0
 10
-63.5251
 20
-76.9974
 11
-63.6001
 21
-77.7917
  0
LINE
  8
0
 10
-63.6001
 20
-77.7917
 11
-63.7249
 21
-78.5797
  0
LINE
  8
0
 10
-63.7249
 20
-78.5797
 11
-63.899
 21
-79.3584
  0
LINE
  8
0
 10
-63.899
 20
-79.3584
 11
-64.1216
 21
-80.1245
  0
LINE
  8
0
 10
-64.1216
 20
-80.1245
 11
-64.3918
 21
-80.8752
  0
LINE
  8
0
 10
-64.3918
 20
-80.8752
 11
-64.7087
 21
-81.6074
  0
LINE
  8
0
 10
-64.7087
 20
-81.6074
 11
-65.0709
 21
-82.3183
  0
LINE
  8
0
 10
-65.0709
 20
-82.3183
 11
-65.477
 21
-83.005
  0
LINE
  8
0
 10
-65.477
 20
-83.005
 11
-65.9255
 21
-83.6649
  0
LINE
  8
0
 10
-65.9255
 20
-83.6649
 11
-66.4145
 21
-84.2953
  0
LINE
  8
0
 10
-66.4145
 20
-84.2953
 11
-66.9421
 21
-84.8937
  0
LINE
  8
0
 10
-66.9421
 20
-84.8937
 11
-67.5062
 21
-85.4579
  0
LINE
  8
0
 10
-67.5062
 20
-85.4579
 11
-68.1047
 21
-85.9855
  0
LINE
  8
0
 10
-68.1047
 20
-85.9855
 11
-68.7351
 21
-86.4745
  0
LINE
  8
0
 10
-68.7351
 20
-86.4745
 11
-69.395
 21
-86.923
  0
LINE
  8
0
 10
-69.395
 20
-86.923
 11
-70.0817
 21
-87.3291
  0
LINE
  8
0
 10
-70.0817
 20
-87.3291
 11
-70.7926
 21
-87.6913
  0
LINE
  8
0
 10
-70.7926
 20
-87.6913
 11
-71.5248
 21
-88.0081
  0
LINE
  8
0
 10
-71.5248
 20
-88.0081
 11
-72.2755
 21
-88.2784
  0
LINE
  8
0
 10
-72.2755
 20
-88.2784
 11
-73.0416
 21
-88.501
  0
LINE
  8
0
 10
-73.0416
 20
-88.501
 11
-73.8203
 21
-88.675
  0
LINE
  8
0
 10
-73.8203
 20
-88.675
 11
-74.6083
 21
-88.7999
  0
LINE
  8
0
 10
-74.6083
 20
-88.7999
 11
-75.4026
 21
-88.8749
  0
LINE
  8
0
 10
-75.4026
 20
-88.8749
 11
-76.2
 21
-88.9
  0
LINE
  8
0
 10
-76.2
 20
-88.9
 11
-76.9974
 21
-88.8749
  0
LINE
  8
0
 10
75.4026
 20
-88.8749
 11
74.6083
 21
-88.7999
  0
LINE
  8
0
 10
74.6083
 20
-88.7999
 11
73.8203
 21
-88.675
  0
LINE
  8
0
 10
73.8203
 20
-88.675
 11
73.0416
 21
-88.501
  0
LINE
  8
0
 10
73.0416
 20
-88.501
 11
72.2755
 21
-88.2784
  0
LINE
  8
0
 10
72.2755
 20
-88.2784
 11
71.5248
 21
-88.0081
  0
LINE
  8
0
 10
71.5248
 20
-88.0081
 11
70.7926
 21
-87.6913
  0
LINE
  8
0
 10
70.7926
 20
-87.6913
 11
70.0817
 21
-87.3291
  0
LINE
  8
0
 10
70.0817
 20
-87.3291
 11
69.395
 21
-86.923
  0
LINE
  8
0
 10
69.395
 20
-86.923
 11
68.7351
 21
-86.4745
  0
LINE
  8
0
 10
68.7351
 20
-86.4745
 11
68.1047
 21
-85.9855
  0
LINE
  8
0
 10
68.1047
 20
-85.9855
 11
67.5062
 21
-85.4579
  0
LINE
  8
0
 10
67.5062
 20
-85.4579
 11
66.9421
 21
-84.8937
  0
LINE
  8
0
 10
66.9421
 20
-84.8937
 11
66.4145
 21
-84.2953
  0
LINE
  8
0
 10
66.4145
 20
-84.2953
 11
65.9255
 21
-83.6649
  0
LINE
  8
0
 10
65.9255
 20
-83.6649
 11
65.477
 21
-83.005
  0
LINE
  8
0
 10
65.477
 20
-83.005
 11
65.0709
 21
-82.3183
  0
LINE
  8
0
 10
65.0709
 20
-82.3183
 11
64.7087
 21
-81.6074
  0
LINE
  8
0
 10
64.7087
 20
-81.6074
 11
64.3918
 21
-80.8752
  0
LINE
  8
0
 10
64.3918
 20
-80.8752
 11
64.1216
 21
-80.1245
  0
LINE
  8
0
 10
64.1216
 20
-80.1245
 11
63.899
 21
-79.3584
  0
LINE
  8
0
 10
63.899
 20
-79.3584
 11
63.7249
 21
-78.5797
  0
LINE
  8
0
 10
63.7249
 20
-78.5797
 11
63.6001
 21
-77.7917
  0
LINE
  8
0
 10
63.6001
 20
-77.7917
 11
63.5251
 21
-76.9974
  0
LINE
  8
0
 10
63.5251
 20
-76.9974
 11
63.5
 21
-76.2
  0
LINE
  8
0
 10
63.5
 20
-76.2
 11
63.5251
 21
-75.4026
  0
LINE
  8
0
 10
63.5251
 20
-75.4026
 11
63.6001
 21
-74.6083
  0
LINE
  8
0
 10
63.6001
 20
-74.6083
 11
63.7249
 21
-73.8203
  0
LINE
  8
0
 10
63.7249
 20
-73.8203
 11
63.899
 21
-73.0416
  0
LINE
  8
0
 10
63.899
 20
-73.0416
 11
64.1216
 21
-72.2755
  0
LINE
  8
0
 10
64.1216
 20
-72.2755
 11
64.3918
 21
-71.5248
  0
LINE
  8
0
 10
64.3918
 20
-71.5248
 11
64.7087
 21
-70.7926
  0
LINE
  8
0
 10
64.7087
 20
-70.7926
 11
65.0709
 21
-70.0817
  0
LINE
  8
0
 10
65.0709
 20
-70.0817
 11
65.477
 21
-69.395
  0
LINE
  8
0
 10
65.477
 20
-69.395
 11
65.9255
 21
-68.7351
  0
LINE
  8
0
 10
65.9255
 20
-68.7351
 11
66.4145
 21
-68.1047
  0
LINE
  8
0
 10
66.4145
 20
-68.1047
 11
66.9421
 21
-67.5062
  0
LINE
  8
0
 10
66.9421
 20
-67.5062
 11
67.5062
 21
-66.9421
  0
LINE
  8
0
 10
67.5062
 20
-66.9421
 11
68.1047
 21
-66.4145
  0
LINE
  8
0
 10
68.1047
 20
-66.4145
 11
68.7351
 21
-65.9255
  0
LINE
  8
0
 10
68.7351
 20
-65.9255
 11
69.395
 21
-65.477
  0
LINE
  8
0
 10
69.395
 20
-65.477
 11
70.0817
 21
-65.0709
  0
LINE
  8
0
 10
70.0817
 20
-65.0709
 11
70.7926
 21
-64.7087
  0
LINE
  8
0
 10
70.7926
 20
-64.7087
 11
71.5248
 21
-64.3918
  0
LINE
  8
0
 10
71.5248
 20
-64.3918
 11
72.2755
 21
-64.1216
  0
LINE
  8
0
 10
72.2755
 20
-64.1216
 11
73.0416
 21
-63.899
  0
LINE
  8
0
 10
73.0416
 20
-63.899
 11
73.8203
 21
-63.7249
  0
LINE
  8
0
 10
73.8203
 20
-63.7249
 11
74.6083
 21
-63.6001
  0
LINE
  8
0
 10
74.6083
 20
-63.6001
 11
75.4026
 21
-63.5251
  0
LINE
  8
0
 10
75.4026
 20
-63.5251
 11
76.2
 21
-63.5
  0
LINE
  8
0
 10
76.2
 20
-63.5
 11
76.9974
 21
-63.5251
  0
LINE
  8
0
 10
76.9974
 20
-63.5251
 11
77.7917
 21
-63.6001
  0
LINE
  8
0
 10
77.7917
 20
-63.6001
 11
78.5797
 21
-63.7249
  0
LINE
  8
0
 10
78.5797
 20
-63.7249
 11
79.3584
 21
-63.899
  0
LINE
  8
0
 10
79.3584
 20
-63.899
 11
80.1245
 21
-64.1216
  0
LINE
  8
0
 10
80.1245
 20
-64.1216
 11
80.8752
 21
-64.3918
  0
LINE
  8
0
 10
80.8752
 20
-64.3918
 11
81.6074
 21
-64.7087
  0
LINE
  8
0
 10
81.6074
 20
-64.7087
 11
82.3183
 21
-65.0709
  0
LINE
  8
0
 10
82.3183
 20
-65.0709
 11
83.005
 21
-65.477
  0
LINE
  8
0
 10
83.005
 20
-65.477
 11
83.6649
 21
-65.9255
  0
LINE
  8
0
 10
83.6649
 20
-65.9255
 11
84.2953
 21
-66.4145
  0
LINE
  8
0
 10
84.2953
 20
-66.4145
 11
84.8937
 21
-66.9421
  0
LINE
  8
0
 10
84.8937
 20
-66.9421
 11
85.4579
 21
-67.5062
  0
LINE
  8
0
 10
85.4579
 20
-67.5062
 11
85.9855
 21
-68.1047
  0
LINE
  8
0
 10
85.9855
 20
-68.1047
 11
86.4745
 21
-68.7351
  0
LINE
  8
0
 10
86.4745
 20
-68.7351
 11
86.923
 21
-69.395
  0
LINE
  8
0
 10
86.923
 20
-69.395
 11
87.3291
 21
-70.0817
  0
LINE
  8
0
 10
87.3291
 20
-70.0817
 11
87.6913
 21
-70.7926
  0
LINE
  8
0
 10
87.6913
 20
-70.7926
 11
88.0081
 21
-71.5248
  0
LINE
  8
0
 10
88.0081
 20
-71.5248
 11
88.2784
 21
-72.2755
  0
LINE
  8
0
 10
88.2784
 20
-72.2755
 11
88.501
 21
-73.0416
  0
LINE
  8
0
 10
88.501
 20
-73.0416
 11
88.675
 21
-73.8203
  0
LINE
  8
0
 10
88.675
 20
-73.8203
 11
88.7999
 21
-74.6083
  0
LINE
  8
0
 10
88.7999
 20
-74.6083
 11
88.8749
 21
-75.4026
  0
LINE
  8
0
 10
88.8749
 20
-75.4026
 11
88.9
 21
-76.2
  0
LINE
  8
0
 10
88.9
 20
-76.2
 11
88.8749
 21
-76.9974
  0
LINE
  8
0
 10
88.8749
 20
-76.9974
 11
88.7999
 21
-77.7917
  0
LINE
  8
0
 10
88.7999
 20
-77.7917
 11
88.675
 21
-78.5797
  0
LINE
  8
0
 10
88.675
 20
-78.5797
 11
88.501
 21
-79.3584
  0
LINE
  8
0
 10
88.501
 20
-79.3584
 11
88.2784
 21
-80.1245
  0
LINE
  8
0
 10
88.2784
 20
-80.1245
 11
88.0081
 21
-80.8752
  0
LINE
  8
0
 10
88.0081
 20
-80.8752
 11
87.6913
 21
-81.6074
  0
LINE
  8
0
 10
87.6913
 20
-81.6074
 11
87.3291
 21
-82.3183
  0
LINE
  8
0
 10
87.3291
 20
-82.3183
 11
86.923
 21
-83.005
  0
LINE
  8
0
 10
86.923
 20
-83.005
 11
86.4745
 21
-83.6649
  0
LINE
  8
0
 10
86.4745
 20
-83.6649
 11
85.9855
 21
-84.2953
  0
LINE
  8
0
 10
85.9855
 20
-84.2953
 11
85.4579
 21
-84.8937
  0
LINE
  8
0
 10
85.4579
 20
-84.8937
 11
84.8937
 21
-85.4579
  0
LINE
  8
0
 10
84.8937
 20
-85.4579
 11
84.2953
 21
-85.9855
  0
LINE
  8
0
 10
84.2953
 20
-85.9855
 11
83.6649
 21
-86.4745
  0
LINE
  8
0
 10
83.6649
 20
-86.4745
 11
83.005
 21
-86.923
  0
LINE
  8
0
 10
83.005
 20
-86.923
 11
82.3183
 21
-87.3291
  0
LINE
  8
0
 10
82.3183
 20
-87.3291
 11
81.6074
 21
-87.6913
  0
LINE
  8
0
 10
81.6074
 20
-87.6913
 11
80.8752
 21
-88.0081
  0
LINE
  8
0
 10
80.8752
 20
-88.0081
 11
80.1245
 21
-88.2784
  0
LINE
  8
0
 10
80.1245
 20
-88.2784
 11
79.3584
 21
-88.501
  0
LINE
  8
0
 10
79.3584
 20
-88.501
 11
78.5797
 21
-88.675
  0
LINE
  8
0
 10
78.5797
 20
-88.675
 11
77.7917
 21
-88.7999
  0
LINE
  8
0
 10
77.7917
 20
-88.7999
 11
76.9974
 21
-88.8749
  0
LINE
  8
0
 10
76.9974
 20
-88.8749
 11
76.2
 21
-88.9
  0
LINE
  8
0
 10
76.2
 20
-88.9
 11
75.4026
 21
-88.8749
  0
LINE
  8
0
 10
-0.100464
 20
-205.809
 11
-0.200531
 21
-205.8
  0
LINE
  8
0
 10
-0.200531
 20
-205.8
 11
-0.299805
 21
-205.784
  0
LINE
  8
0
 10
-0.299805
 20
-205.784
 11
-0.397903
 21
-205.762
  0
LINE
  8
0
 10
-0.397903
 20
-205.762
 11
-0.494415
 21
-205.734
  0
LINE
  8
0
 10
-0.494415
 20
-205.734
 11
-0.588989
 21
-205.7
  0
LINE
  8
0
 10
-0.588989
 20
-205.7
 11
-0.681244
 21
-205.66
  0
LINE
  8
0
 10
-0.681244
 20
-205.66
 11
-0.770798
 21
-205.615
  0
LINE
  8
0
 10
-0.770798
 20
-205.615
 11
-0.857315
 21
-205.563
  0
LINE
  8
0
 10
-0.857315
 20
-205.563
 11
-0.940445
 21
-205.507
  0
LINE
  8
0
 10
-0.940445
 20
-205.507
 11
-1.01987
 21
-205.445
  0
LINE
  8
0
 10
-1.01987
 20
-205.445
 11
-1.09526
 21
-205.379
  0
LINE
  8
0
 10
-1.09526
 20
-205.379
 11
-1.16634
 21
-205.308
  0
LINE
  8
0
 10
-1.16634
 20
-205.308
 11
-1.23282
 21
-205.232
  0
LINE
  8
0
 10
-1.23282
 20
-205.232
 11
-1.29442
 21
-205.153
  0
LINE
  8
0
 10
-1.29442
 20
-205.153
 11
-1.35092
 21
-205.07
  0
LINE
  8
0
 10
-1.35092
 20
-205.07
 11
-1.40208
 21
-204.983
  0
LINE
  8
0
 10
-1.40208
 20
-204.983
 11
-1.44771
 21
-204.894
  0
LINE
  8
0
 10
-1.44771
 20
-204.894
 11
-1.48764
 21
-204.801
  0
LINE
  8
0
 10
-1.48764
 20
-204.801
 11
-1.52168
 21
-204.707
  0
LINE
  8
0
 10
-1.52168
 20
-204.707
 11
-1.54973
 21
-204.61
  0
LINE
  8
0
 10
-1.54973
 20
-204.61
 11
-1.57166
 21
-204.512
  0
LINE
  8
0
 10
-1.57166
 20
-204.512
 11
-1.58737
 21
-204.413
  0
LINE
  8
0
 10
-1.58737
 20
-204.413
 11
-1.59683
 21
-204.313
  0
LINE
  8
0
 10
-1.59683
 20
-204.313
 11
-1.59999
 21
-204.212
  0
LINE
  8
0
 10
-1.59999
 20
-204.212
 11
-1.59683
 21
-204.112
  0
LINE
  8
0
 10
-1.59683
 20
-204.112
 11
-1.58737
 21
-204.012
  0
LINE
  8
0
 10
-1.58737
 20
-204.012
 11
-1.57166
 21
-203.913
  0
LINE
  8
0
 10
-1.57166
 20
-203.913
 11
-1.54973
 21
-203.815
  0
LINE
  8
0
 10
-1.54973
 20
-203.815
 11
-1.52168
 21
-203.718
  0
LINE
  8
0
 10
-1.52168
 20
-203.718
 11
-1.48764
 21
-203.624
  0
LINE
  8
0
 10
-1.48764
 20
-203.624
 11
-1.44771
 21
-203.531
  0
LINE
  8
0
 10
-1.44771
 20
-203.531
 11
-1.40208
 21
-203.442
  0
LINE
  8
0
 10
-1.40208
 20
-203.442
 11
-1.35092
 21
-203.355
  0
LINE
  8
0
 10
-1.35092
 20
-203.355
 11
-1.29442
 21
-203.272
  0
LINE
  8
0
 10
-1.29442
 20
-203.272
 11
-1.23282
 21
-203.193
  0
LINE
  8
0
 10
-1.23282
 20
-203.193
 11
-1.16634
 21
-203.117
  0
LINE
  8
0
 10
-1.16634
 20
-203.117
 11
-1.09526
 21
-203.046
  0
LINE
  8
0
 10
-1.09526
 20
-203.046
 11
-1.01987
 21
-202.98
  0
LINE
  8
0
 10
-1.01987
 20
-202.98
 11
-0.940445
 21
-202.918
  0
LINE
  8
0
 10
-0.940445
 20
-202.918
 11
-0.857315
 21
-202.862
  0
LINE
  8
0
 10
-0.857315
 20
-202.862
 11
-0.770798
 21
-202.81
  0
LINE
  8
0
 10
-0.770798
 20
-202.81
 11
-0.681244
 21
-202.765
  0
LINE
  8
0
 10
-0.681244
 20
-202.765
 11
-0.588989
 21
-202.725
  0
LINE
  8
0
 10
-0.588989
 20
-202.725
 11
-0.494415
 21
-202.691
  0
LINE
  8
0
 10
-0.494415
 20
-202.691
 11
-0.397903
 21
-202.663
  0
LINE
  8
0
 10
-0.397903
 20
-202.663
 11
-0.299805
 21
-202.641
  0
LINE
  8
0
 10
-0.299805
 20
-202.641
 11
-0.200531
 21
-202.625
  0
LINE
  8
0
 10
-0.200531
 20
-202.625
 11
-0.100464
 21
-202.616
  0
LINE
  8
0
 10
-0.100464
 20
-202.616
 11
0
 21
-202.613
  0
LINE
  8
0
 10
0
 20
-202.613
 11
0.100464
 21
-202.616
  0
LINE
  8
0
 10
0.100464
 20
-202.616
 11
0.200531
 21
-202.625
  0
LINE
  8
0
 10
0.200531
 20
-202.625
 11
0.299805
 21
-202.641
  0
LINE
  8
0
 10
0.299805
 20
-202.641
 11
0.397903
 21
-202.663
  0
LINE
  8
0
 10
0.397903
 20
-202.663
 11
0.494415
 21
-202.691
  0
LINE
  8
0
 10
0.494415
 20
-202.691
 11
0.588989
 21
-202.725
  0
LINE
  8
0
 10
0.588989
 20
-202.725
 11
0.681244
 21
-202.765
  0
LINE
  8
0
 10
0.681244
 20
-202.765
 11
0.770798
 21
-202.81
  0
LINE
  8
0
 10
0.770798
 20
-202.81
 11
0.857315
 21
-202.862
  0
LINE
  8
0
 10
0.857315
 20
-202.862
 11
0.940445
 21
-202.918
  0
LINE
  8
0
 10
0.940445
 20
-202.918
 11
1.01987
 21
-202.98
  0
LINE
  8
0
 10
1.01987
 20
-202.98
 11
1.09526
 21
-203.046
  0
LINE
  8
0
 10
1.09526
 20
-203.046
 11
1.16634
 21
-203.117
  0
LINE
  8
0
 10
1.16634
 20
-203.117
 11
1.23282
 21
-203.193
  0
LINE
  8
0
 10
1.23282
 20
-203.193
 11
1.29442
 21
-203.272
  0
LINE
  8
0
 10
1.29442
 20
-203.272
 11
1.35092
 21
-203.355
  0
LINE
  8
0
 10
1.35092
 20
-203.355
 11
1.40208
 21
-203.442
  0
LINE
  8
0
 10
1.40208
 20
-203.442
 11
1.44771
 21
-203.531
  0
LINE
  8
0
 10
1.44771
 20
-203.531
 11
1.48764
 21
-203.624
  0
LINE
  8
0
 10
1.48764
 20
-203.624
 11
1.52168
 21
-203.718
  0
LINE
  8
0
 10
1.52168
 20
-203.718
 11
1.54973
 21
-203.815
  0
LINE
  8
0
 10
1.54973
 20
-203.815
 11
1.57166
 21
-203.913
  0
LINE
  8
0
 10
1.57166
 20
-203.913
 11
1.58737
 21
-204.012
  0
LINE
  8
0
 10
1.58737
 20
-204.012
 11
1.59683
 21
-204.112
  0
LINE
  8
0
 10
1.59683
 20
-204.112
 11
1.59999
 21
-204.212
  0
LINE
  8
0
 10
1.59999
 20
-204.212
 11
1.59683
 21
-204.313
  0
LINE
  8
0
 10
1.59683
 20
-204.313
 11
1.58737
 21
-204.413
  0
LINE
  8
0
 10
1.58737
 20
-204.413
 11
1.57166
 21
-204.512
  0
LINE
  8
0
 10
1.57166
 20
-204.512
 11
1.54973
 21
-204.61
  0
LINE
  8
0
 10
1.54973
 20
-204.61
 11
1.52168
 21
-204.707
  0
LINE
  8
0
 10
1.52168
 20
-204.707
 11
1.48764
 21
-204.801
  0
LINE
  8
0
 10
1.48764
 20
-204.801
 11
1.44771
 21
-204.894
  0
LINE
  8
0
 10
1.44771
 20
-204.894
 11
1.40208
 21
-204.983
  0
LINE
  8
0
 10
1.40208
 20
-204.983
 11
1.35092
 21
-205.07
  0
LINE
  8
0
 10
1.35092
 20
-205.07
 11
1.29442
 21
-205.153
  0
LINE
  8
0
 10
1.29442
 20
-205.153
 11
1.23282
 21
-205.232
  0
LINE
  8
0
 10
1.23282
 20
-205.232
 11
1.16634
 21
-205.308
  0
LINE
  8
0
 10
1.16634
 20
-205.308
 11
1.09526
 21
-205.379
  0
LINE
  8
0
 10
1.09526
 20
-205.379
 11
1.01987
 21
-205.445
  0
LINE
  8
0
 10
1.01987
 20
-205.445
 11
0.940445
 21
-205.507
  0
LINE
  8
0
 10
0.940445
 20
-205.507
 11
0.857315
 21
-205.563
  0
LINE
  8
0
 10
0.857315
 20
-205.563
 11
0.770798
 21
-205.615
  0
LINE
  8
0
 10
0.770798
 20
-205.615
 11
0.681244
 21
-205.66
  0
LINE
  8
0
 10
0.681244
 20
-205.66
 11
0.588989
 21
-205.7
  0
LINE
  8
0
 10
0.588989
 20
-205.7
 11
0.494415
 21
-205.734
  0
LINE
  8
0
 10
0.494415
 20
-205.734
 11
0.397903
 21
-205.762
  0
LINE
  8
0
 10
0.397903
 20
-205.762
 11
0.299805
 21
-205.784
  0
LINE
  8
0
 10
0.299805
 20
-205.784
 11
0.200531
 21
-205.8
  0
LINE
  8
0
 10
0.200531
 20
-205.8
 11
0.100464
 21
-205.809
  0
LINE
  8
0
 10
0.100464
 20
-205.809
 11
0
 21
-205.812
  0
LINE
  8
0
 10
0
 20
-205.812
 11
-0.100464
 21
-205.809
  0
LINE
  8
0
 10
-0.320221
 20
-217.302
 11
-0.639191
 21
-217.272
  0
LINE
  8
0
 10
-0.639191
 20
-217.272
 11
-0.955643
 21
-217.222
  0
LINE
  8
0
 10
-0.955643
 20
-217.222
 11
-1.26831
 21
-217.152
  0
LINE
  8
0
 10
-1.26831
 20
-217.152
 11
-1.57597
 21
-217.063
  0
LINE
  8
0
 10
-1.57597
 20
-217.063
 11
-1.87743
 21
-216.954
  0
LINE
  8
0
 10
-1.87743
 20
-216.954
 11
-2.17146
 21
-216.827
  0
LINE
  8
0
 10
-2.17146
 20
-216.827
 11
-2.45694
 21
-216.682
  0
LINE
  8
0
 10
-2.45694
 20
-216.682
 11
-2.73271
 21
-216.519
  0
LINE
  8
0
 10
-2.73271
 20
-216.519
 11
-2.9977
 21
-216.338
  0
LINE
  8
0
 10
-2.9977
 20
-216.338
 11
-3.25085
 21
-216.142
  0
LINE
  8
0
 10
-3.25085
 20
-216.142
 11
-3.49118
 21
-215.93
  0
LINE
  8
0
 10
-3.49118
 20
-215.93
 11
-3.71773
 21
-215.704
  0
LINE
  8
0
 10
-3.71773
 20
-215.704
 11
-3.92961
 21
-215.463
  0
LINE
  8
0
 10
-3.92961
 20
-215.463
 11
-4.12598
 21
-215.21
  0
LINE
  8
0
 10
-4.12598
 20
-215.21
 11
-4.30606
 21
-214.945
  0
LINE
  8
0
 10
-4.30606
 20
-214.945
 11
-4.46916
 21
-214.669
  0
LINE
  8
0
 10
-4.46916
 20
-214.669
 11
-4.61461
 21
-214.384
  0
LINE
  8
0
 10
-4.61461
 20
-214.384
 11
-4.74185
 21
-214.09
  0
LINE
  8
0
 10
-4.74185
 20
-214.09
 11
-4.85039
 21
-213.788
  0
LINE
  8
0
 10
-4.85039
 20
-213.788
 11
-4.93977
 21
-213.481
  0
LINE
  8
0
 10
-4.93977
 20
-213.481
 11
-5.00966
 21
-213.168
  0
LINE
  8
0
 10
-5.00966
 20
-213.168
 11
-5.05978
 21
-212.852
  0
LINE
  8
0
 10
-5.05978
 20
-212.852
 11
-5.08994
 21
-212.533
  0
LINE
  8
0
 10
-5.08994
 20
-212.533
 11
-5.09999
 21
-212.212
  0
LINE
  8
0
 10
-5.09999
 20
-212.212
 11
-5.08994
 21
-211.892
  0
LINE
  8
0
 10
-5.08994
 20
-211.892
 11
-5.05978
 21
-211.573
  0
LINE
  8
0
 10
-5.05978
 20
-211.573
 11
-5.00966
 21
-211.257
  0
LINE
  8
0
 10
-5.00966
 20
-211.257
 11
-4.93977
 21
-210.944
  0
LINE
  8
0
 10
-4.93977
 20
-210.944
 11
-4.85039
 21
-210.637
  0
LINE
  8
0
 10
-4.85039
 20
-210.637
 11
-4.74185
 21
-210.335
  0
LINE
  8
0
 10
-4.74185
 20
-210.335
 11
-4.61461
 21
-210.041
  0
LINE
  8
0
 10
-4.61461
 20
-210.041
 11
-4.46916
 21
-209.756
  0
LINE
  8
0
 10
-4.46916
 20
-209.756
 11
-4.30606
 21
-209.48
  0
LINE
  8
0
 10
-4.30606
 20
-209.48
 11
-4.12598
 21
-209.215
  0
LINE
  8
0
 10
-4.12598
 20
-209.215
 11
-3.92961
 21
-208.962
  0
LINE
  8
0
 10
-3.92961
 20
-208.962
 11
-3.71773
 21
-208.721
  0
LINE
  8
0
 10
-3.71773
 20
-208.721
 11
-3.49118
 21
-208.495
  0
LINE
  8
0
 10
-3.49118
 20
-208.495
 11
-3.25085
 21
-208.283
  0
LINE
  8
0
 10
-3.25085
 20
-208.283
 11
-2.9977
 21
-208.087
  0
LINE
  8
0
 10
-2.9977
 20
-208.087
 11
-2.73271
 21
-207.906
  0
LINE
  8
0
 10
-2.73271
 20
-207.906
 11
-2.45694
 21
-207.743
  0
LINE
  8
0
 10
-2.45694
 20
-207.743
 11
-2.17146
 21
-207.598
  0
LINE
  8
0
 10
-2.17146
 20
-207.598
 11
-1.87743
 21
-207.471
  0
LINE
  8
0
 10
-1.87743
 20
-207.471
 11
-1.57597
 21
-207.362
  0
LINE
  8
0
 10
-1.57597
 20
-207.362
 11
-1.26831
 21
-207.273
  0
LINE
  8
0
 10
-1.26831
 20
-207.273
 11
-0.955643
 21
-207.203
  0
LINE
  8
0
 10
-0.955643
 20
-207.203
 11
-0.639191
 21
-207.153
  0
LINE
  8
0
 10
-0.639191
 20
-207.153
 11
-0.320221
 21
-207.123
  0
LINE
  8
0
 10
-0.320221
 20
-207.123
 11
0
 21
-207.113
  0
LINE
  8
0
 10
0
 20
-207.113
 11
0.320221
 21
-207.123
  0
LINE
  8
0
 10
0.320221
 20
-207.123
 11
0.639191
 21
-207.153
  0
LINE
  8
0
 10
0.639191
 20
-207.153
 11
0.955643
 21
-207.203
  0
LINE
  8
0
 10
0.955643
 20
-207.203
 11
1.26831
 21
-207.273
  0
LINE
  8
0
 10
1.26831
 20
-207.273
 11
1.57597
 21
-207.362
  0
LINE
  8
0
 10
1.57597
 20
-207.362
 11
1.87743
 21
-207.471
  0
LINE
  8
0
 10
1.87743
 20
-207.471
 11
2.17146
 21
-207.598
  0
LINE
  8
0
 10
2.17146
 20
-207.598
 11
2.45694
 21
-207.743
  0
LINE
  8
0
 10
2.45694
 20
-207.743
 11
2.73271
 21
-207.906
  0
LINE
  8
0
 10
2.73271
 20
-207.906
 11
2.9977
 21
-208.087
  0
LINE
  8
0
 10
2.9977
 20
-208.087
 11
3.25085
 21
-208.283
  0
LINE
  8
0
 10
3.25085
 20
-208.283
 11
3.49118
 21
-208.495
  0
LINE
  8
0
 10
3.49118
 20
-208.495
 11
3.71773
 21
-208.721
  0
LINE
  8
0
 10
3.71773
 20
-208.721
 11
3.92961
 21
-208.962
  0
LINE
  8
0
 10
3.92961
 20
-208.962
 11
4.12598
 21
-209.215
  0
LINE
  8
0
 10
4.12598
 20
-209.215
 11
4.30606
 21
-209.48
  0
LINE
  8
0
 10
4.30606
 20
-209.48
 11
4.46916
 21
-209.756
  0
LINE
  8
0
 10
4.46916
 20
-209.756
 11
4.61461
 21
-210.041
  0
LINE
  8
0
 10
4.61461
 20
-210.041
 11
4.74185
 21
-210.335
  0
LINE
  8
0
 10
4.74185
 20
-210.335
 11
4.85039
 21
-210.637
  0
LINE
  8
0
 10
4.85039
 20
-210.637
 11
4.93977
 21
-210.944
  0
LINE
  8
0
 10
4.93977
 20
-210.944
 11
5.00966
 21
-211.257
  0
LINE
  8
0
 10
5.00966
 20
-211.257
 11
5.05978
 21
-211.573
  0
LINE
  8
0
 10
5.05978
 20
-211.573
 11
5.08994
 21
-211.892
  0
LINE
  8
0
 10
5.08994
 20
-211.892
 11
5.09999
 21
-212.212
  0
LINE
  8
0
 10
5.09999
 20
-212.212
 11
5.08994
 21
-212.533
  0
LINE
  8
0
 10
5.08994
 20
-212.533
 11
5.05978
 21
-212.852
  0
LINE
  8
0
 10
5.05978
 20
-212.852
 11
5.00966
 21
-213.168
  0
LINE
  8
0
 10
5.00966
 20
-213.168
 11
4.93977
 21
-213.481
  0
LINE
  8
0
 10
4.93977
 20
-213.481
 11
4.85039
 21
-213.788
  0
LINE
  8
0
 10
4.85039
 20
-213.788
 11
4.74185
 21
-214.09
  0
LINE
  8
0
 10
4.74185
 20
-214.09
 11
4.61461
 21
-214.384
  0
LINE
  8
0
 10
4.61461
 20
-214.384
 11
4.46916
 21
-214.669
  0
LINE
  8
0
 10
4.46916
 20
-214.669
 11
4.30606
 21
-214.945
  0
LINE
  8
0
 10
4.30606
 20
-214.945
 11
4.12598
 21
-215.21
  0
LINE
  8
0
 10
4.12598
 20
-215.21
 11
3.92961
 21
-215.463
  0
LINE
  8
0
 10
3.92961
 20
-215.463
 11
3.71773
 21
-215.704
  0
LINE
  8
0
 10
3.71773
 20
-215.704
 11
3.49118
 21
-215.93
  0
LINE
  8
0
 10
3.49118
 20
-215.93
 11
3.25085
 21
-216.142
  0
LINE
  8
0
 10
3.25085
 20
-216.142
 11
2.9977
 21
-216.338
  0
LINE
  8
0
 10
2.9977
 20
-216.338
 11
2.73271
 21
-216.519
  0
LINE
  8
0
 10
2.73271
 20
-216.519
 11
2.45694
 21
-216.682
  0
LINE
  8
0
 10
2.45694
 20
-216.682
 11
2.17146
 21
-216.827
  0
LINE
  8
0
 10
2.17146
 20
-216.827
 11
1.87743
 21
-216.954
  0
LINE
  8
0
 10
1.87743
 20
-216.954
 11
1.57597
 21
-217.063
  0
LINE
  8
0
 10
1.57597
 20
-217.063
 11
1.26831
 21
-217.152
  0
LINE
  8
0
 10
1.26831
 20
-217.152
 11
0.955643
 21
-217.222
  0
LINE
  8
0
 10
0.955643
 20
-217.222
 11
0.639191
 21
-217.272
  0
LINE
  8
0
 10
0.639191
 20
-217.272
 11
0.320221
 21
-217.302
  0
LINE
  8
0
 10
0.320221
 20
-217.302
 11
0
 21
-217.312
  0
LINE
  8
0
 10
0
 20
-217.312
 11
-0.320221
 21
-217.302
  0
LINE
  8
0
 10
7.89952
 20
-213.809
 11
7.79945
 21
-213.8
  0
LINE
  8
0
 10
7.79945
 20
-213.8
 11
7.70018
 21
-213.784
  0
LINE
  8
0
 10
7.70018
 20
-213.784
 11
7.60208
 21
-213.762
  0
LINE
  8
0
 10
7.60208
 20
-213.762
 11
7.50557
 21
-213.734
  0
LINE
  8
0
 10
7.50557
 20
-213.734
 11
7.411
 21
-213.7
  0
LINE
  8
0
 10
7.411
 20
-213.7
 11
7.31874
 21
-213.66
  0
LINE
  8
0
 10
7.31874
 20
-213.66
 11
7.22919
 21
-213.615
  0
LINE
  8
0
 10
7.22919
 20
-213.615
 11
7.14267
 21
-213.563
  0
LINE
  8
0
 10
7.14267
 20
-213.563
 11
7.05954
 21
-213.507
  0
LINE
  8
0
 10
7.05954
 20
-213.507
 11
6.98012
 21
-213.445
  0
LINE
  8
0
 10
6.98012
 20
-213.445
 11
6.90472
 21
-213.379
  0
LINE
  8
0
 10
6.90472
 20
-213.379
 11
6.83365
 21
-213.308
  0
LINE
  8
0
 10
6.83365
 20
-213.308
 11
6.76717
 21
-213.232
  0
LINE
  8
0
 10
6.76717
 20
-213.232
 11
6.70557
 21
-213.153
  0
LINE
  8
0
 10
6.70557
 20
-213.153
 11
6.64906
 21
-213.07
  0
LINE
  8
0
 10
6.64906
 20
-213.07
 11
6.5979
 21
-212.983
  0
LINE
  8
0
 10
6.5979
 20
-212.983
 11
6.55228
 21
-212.894
  0
LINE
  8
0
 10
6.55228
 20
-212.894
 11
6.51234
 21
-212.801
  0
LINE
  8
0
 10
6.51234
 20
-212.801
 11
6.4783
 21
-212.707
  0
LINE
  8
0
 10
6.4783
 20
-212.707
 11
6.45026
 21
-212.61
  0
LINE
  8
0
 10
6.45026
 20
-212.61
 11
6.42833
 21
-212.512
  0
LINE
  8
0
 10
6.42833
 20
-212.512
 11
6.41261
 21
-212.413
  0
LINE
  8
0
 10
6.41261
 20
-212.413
 11
6.40315
 21
-212.313
  0
LINE
  8
0
 10
6.40315
 20
-212.313
 11
6.39999
 21
-212.212
  0
LINE
  8
0
 10
6.39999
 20
-212.212
 11
6.40315
 21
-212.112
  0
LINE
  8
0
 10
6.40315
 20
-212.112
 11
6.41261
 21
-212.012
  0
LINE
  8
0
 10
6.41261
 20
-212.012
 11
6.42833
 21
-211.913
  0
LINE
  8
0
 10
6.42833
 20
-211.913
 11
6.45026
 21
-211.815
  0
LINE
  8
0
 10
6.45026
 20
-211.815
 11
6.4783
 21
-211.718
  0
LINE
  8
0
 10
6.4783
 20
-211.718
 11
6.51234
 21
-211.624
  0
LINE
  8
0
 10
6.51234
 20
-211.624
 11
6.55228
 21
-211.531
  0
LINE
  8
0
 10
6.55228
 20
-211.531
 11
6.5979
 21
-211.442
  0
LINE
  8
0
 10
6.5979
 20
-211.442
 11
6.64906
 21
-211.355
  0
LINE
  8
0
 10
6.64906
 20
-211.355
 11
6.70557
 21
-211.272
  0
LINE
  8
0
 10
6.70557
 20
-211.272
 11
6.76717
 21
-211.193
  0
LINE
  8
0
 10
6.76717
 20
-211.193
 11
6.83365
 21
-211.117
  0
LINE
  8
0
 10
6.83365
 20
-211.117
 11
6.90472
 21
-211.046
  0
LINE
  8
0
 10
6.90472
 20
-211.046
 11
6.98012
 21
-210.98
  0
LINE
  8
0
 10
6.98012
 20
-210.98
 11
7.05954
 21
-210.918
  0
LINE
  8
0
 10
7.05954
 20
-210.918
 11
7.14267
 21
-210.862
  0
LINE
  8
0
 10
7.14267
 20
-210.862
 11
7.22919
 21
-210.81
  0
LINE
  8
0
 10
7.22919
 20
-210.81
 11
7.31874
 21
-210.765
  0
LINE
  8
0
 10
7.31874
 20
-210.765
 11
7.411
 21
-210.725
  0
LINE
  8
0
 10
7.411
 20
-210.725
 11
7.50557
 21
-210.691
  0
LINE
  8
0
 10
7.50557
 20
-210.691
 11
7.60208
 21
-210.663
  0
LINE
  8
0
 10
7.60208
 20
-210.663
 11
7.70018
 21
-210.641
  0
LINE
  8
0
 10
7.70018
 20
-210.641
 11
7.79945
 21
-210.625
  0
LINE
  8
0
 10
7.79945
 20
-210.625
 11
7.89952
 21
-210.616
  0
LINE
  8
0
 10
7.89952
 20
-210.616
 11
8
 21
-210.613
  0
LINE
  8
0
 10
8
 20
-210.613
 11
8.10046
 21
-210.616
  0
LINE
  8
0
 10
8.10046
 20
-210.616
 11
8.20053
 21
-210.625
  0
LINE
  8
0
 10
8.20053
 20
-210.625
 11
8.2998
 21
-210.641
  0
LINE
  8
0
 10
8.2998
 20
-210.641
 11
8.3979
 21
-210.663
  0
LINE
  8
0
 10
8.3979
 20
-210.663
 11
8.49442
 21
-210.691
  0
LINE
  8
0
 10
8.49442
 20
-210.691
 11
8.58899
 21
-210.725
  0
LINE
  8
0
 10
8.58899
 20
-210.725
 11
8.68124
 21
-210.765
  0
LINE
  8
0
 10
8.68124
 20
-210.765
 11
8.7708
 21
-210.81
  0
LINE
  8
0
 10
8.7708
 20
-210.81
 11
8.85732
 21
-210.862
  0
LINE
  8
0
 10
8.85732
 20
-210.862
 11
8.94044
 21
-210.918
  0
LINE
  8
0
 10
8.94044
 20
-210.918
 11
9.01987
 21
-210.98
  0
LINE
  8
0
 10
9.01987
 20
-210.98
 11
9.09526
 21
-211.046
  0
LINE
  8
0
 10
9.09526
 20
-211.046
 11
9.16634
 21
-211.117
  0
LINE
  8
0
 10
9.16634
 20
-211.117
 11
9.23282
 21
-211.193
  0
LINE
  8
0
 10
9.23282
 20
-211.193
 11
9.29442
 21
-211.272
  0
LINE
  8
0
 10
9.29442
 20
-211.272
 11
9.35092
 21
-211.355
  0
LINE
  8
0
 10
9.35092
 20
-211.355
 11
9.40208
 21
-211.442
  0
LINE
  8
0
 10
9.40208
 20
-211.442
 11
9.44771
 21
-211.531
  0
LINE
  8
0
 10
9.44771
 20
-211.531
 11
9.48764
 21
-211.624
  0
LINE
  8
0
 10
9.48764
 20
-211.624
 11
9.52168
 21
-211.718
  0
LINE
  8
0
 10
9.52168
 20
-211.718
 11
9.54973
 21
-211.815
  0
LINE
  8
0
 10
9.54973
 20
-211.815
 11
9.57166
 21
-211.913
  0
LINE
  8
0
 10
9.57166
 20
-211.913
 11
9.58737
 21
-212.012
  0
LINE
  8
0
 10
9.58737
 20
-212.012
 11
9.59683
 21
-212.112
  0
LINE
  8
0
 10
9.59683
 20
-212.112
 11
9.59999
 21
-212.212
  0
LINE
  8
0
 10
9.59999
 20
-212.212
 11
9.59683
 21
-212.313
  0
LINE
  8
0
 10
9.59683
 20
-212.313
 11
9.58737
 21
-212.413
  0
LINE
  8
0
 10
9.58737
 20
-212.413
 11
9.57166
 21
-212.512
  0
LINE
  8
0
 10
9.57166
 20
-212.512
 11
9.54973
 21
-212.61
  0
LINE
  8
0
 10
9.54973
 20
-212.61
 11
9.52168
 21
-212.707
  0
LINE
  8
0
 10
9.52168
 20
-212.707
 11
9.48764
 21
-212.801
  0
LINE
  8
0
 10
9.48764
 20
-212.801
 11
9.44771
 21
-212.894
  0
LINE
  8
0
 10
9.44771
 20
-212.894
 11
9.40208
 21
-212.983
  0
LINE
  8
0
 10
9.40208
 20
-212.983
 11
9.35092
 21
-213.07
  0
LINE
  8
0
 10
9.35092
 20
-213.07
 11
9.29442
 21
-213.153
  0
LINE
  8
0
 10
9.29442
 20
-213.153
 11
9.23282
 21
-213.232
  0
LINE
  8
0
 10
9.23282
 20
-213.232
 11
9.16634
 21
-213.308
  0
LINE
  8
0
 10
9.16634
 20
-213.308
 11
9.09526
 21
-213.379
  0
LINE
  8
0
 10
9.09526
 20
-213.379
 11
9.01987
 21
-213.445
  0
LINE
  8
0
 10
9.01987
 20
-213.445
 11
8.94044
 21
-213.507
  0
LINE
  8
0
 10
8.94044
 20
-213.507
 11
8.85732
 21
-213.563
  0
LINE
  8
0
 10
8.85732
 20
-213.563
 11
8.7708
 21
-213.615
  0
LINE
  8
0
 10
8.7708
 20
-213.615
 11
8.68124
 21
-213.66
  0
LINE
  8
0
 10
8.68124
 20
-213.66
 11
8.58899
 21
-213.7
  0
LINE
  8
0
 10
8.58899
 20
-213.7
 11
8.49442
 21
-213.734
  0
LINE
  8
0
 10
8.49442
 20
-213.734
 11
8.3979
 21
-213.762
  0
LINE
  8
0
 10
8.3979
 20
-213.762
 11
8.2998
 21
-213.784
  0
LINE
  8
0
 10
8.2998
 20
-213.784
 11
8.20053
 21
-213.8
  0
LINE
  8
0
 10
8.20053
 20
-213.8
 11
8.10046
 21
-213.809
  0
LINE
  8
0
 10
8.10046
 20
-213.809
 11
8
 21
-213.812
  0
LINE
  8
0
 10
8
 20
-213.812
 11
7.89952
 21
-213.809
  0
LINE
  8
0
 10
-8.10046
 20
-213.809
 11
-8.20053
 21
-213.8
  0
LINE
  8
0
 10
-8.20053
 20
-213.8
 11
-8.2998
 21
-213.784
  0
LINE
  8
0
 10
-8.2998
 20
-213.784
 11
-8.3979
 21
-213.762
  0
LINE
  8
0
 10
-8.3979
 20
-213.762
 11
-8.49442
 21
-213.734
  0
LINE
  8
0
 10
-8.49442
 20
-213.734
 11
-8.58899
 21
-213.7
  0
LINE
  8
0
 10
-8.58899
 20
-213.7
 11
-8.68124
 21
-213.66
  0
LINE
  8
0
 10
-8.68124
 20
-213.66
 11
-8.7708
 21
-213.615
  0
LINE
  8
0
 10
-8.7708
 20
-213.615
 11
-8.85732
 21
-213.563
  0
LINE
  8
0
 10
-8.85732
 20
-213.563
 11
-8.94044
 21
-213.507
  0
LINE
  8
0
 10
-8.94044
 20
-213.507
 11
-9.01987
 21
-213.445
  0
LINE
  8
0
 10
-9.01987
 20
-213.445
 11
-9.09526
 21
-213.379
  0
LINE
  8
0
 10
-9.09526
 20
-213.379
 11
-9.16634
 21
-213.308
  0
LINE
  8
0
 10
-9.16634
 20
-213.308
 11
-9.23282
 21
-213.232
  0
LINE
  8
0
 10
-9.23282
 20
-213.232
 11
-9.29442
 21
-213.153
  0
LINE
  8
0
 10
-9.29442
 20
-213.153
 11
-9.35092
 21
-213.07
  0
LINE
  8
0
 10
-9.35092
 20
-213.07
 11
-9.40208
 21
-212.983
  0
LINE
  8
0
 10
-9.40208
 20
-212.983
 11
-9.44771
 21
-212.894
  0
LINE
  8
0
 10
-9.44771
 20
-212.894
 11
-9.48764
 21
-212.801
  0
LINE
  8
0
 10
-9.48764
 20
-212.801
 11
-9.52168
 21
-212.707
  0
LINE
  8
0
 10
-9.52168
 20
-212.707
 11
-9.54973
 21
-212.61
  0
LINE
  8
0
 10
-9.54973
 20
-212.61
 11
-9.57166
 21
-212.512
  0
LINE
  8
0
 10
-9.57166
 20
-212.512
 11
-9.58737
 21
-212.413
  0
LINE
  8
0
 10
-9.58737
 20
-212.413
 11
-9.59683
 21
-212.313
  0
LINE
  8
0
 10
-9.59683
 20
-212.313
 11
-9.59999
 21
-212.212
  0
LINE
  8
0
 10
-9.59999
 20
-212.212
 11
-9.59683
 21
-212.112
  0
LINE
  8
0
 10
-9.59683
 20
-212.112
 11
-9.58737
 21
-212.012
  0
LINE
  8
0
 10
-9.58737
 20
-212.012
 11
-9.57166
 21
-211.913
  0
LINE
  8
0
 10
-9.57166
 20
-211.913
 11
-9.54973
 21
-211.815
  0
LINE
  8
0
 10
-9.54973
 20
-211.815
 11
-9.52168
 21
-211.718
  0
LINE
  8
0
 10
-9.52168
 20
-211.718
 11
-9.48764
 21
-211.624
  0
LINE
  8
0
 10
-9.48764
 20
-211.624
 11
-9.44771
 21
-211.531
  0
LINE
  8
0
 10
-9.44771
 20
-211.531
 11
-9.40208
 21
-211.442
  0
LINE
  8
0
 10
-9.40208
 20
-211.442
 11
-9.35092
 21
-211.355
  0
LINE
  8
0
 10
-9.35092
 20
-211.355
 11
-9.29442
 21
-211.272
  0
LINE
  8
0
 10
-9.29442
 20
-211.272
 11
-9.23282
 21
-211.193
  0
LINE
  8
0
 10
-9.23282
 20
-211.193
 11
-9.16634
 21
-211.117
  0
LINE
  8
0
 10
-9.16634
 20
-211.117
 11
-9.09526
 21
-211.046
  0
LINE
  8
0
 10
-9.09526
 20
-211.046
 11
-9.01987
 21
-210.98
  0
LINE
  8
0
 10
-9.01987
 20
-210.98
 11
-8.94044
 21
-210.918
  0
LINE
  8
0
 10
-8.94044
 20
-210.918
 11
-8.85732
 21
-210.862
  0
LINE
  8
0
 10
-8.85732
 20
-210.862
 11
-8.7708
 21
-210.81
  0
LINE
  8
0
 10
-8.7708
 20
-210.81
 11
-8.68124
 21
-210.765
  0
LINE
  8
0
 10
-8.68124
 20
-210.765
 11
-8.58899
 21
-210.725
  0
LINE
  8
0
 10
-8.58899
 20
-210.725
 11
-8.49442
 21
-210.691
  0
LINE
  8
0
 10
-8.49442
 20
-210.691
 11
-8.3979
 21
-210.663
  0
LINE
  8
0
 10
-8.3979
 20
-210.663
 11
-8.2998
 21
-210.641
  0
LINE
  8
0
 10
-8.2998
 20
-210.641
 11
-8.20053
 21
-210.625
  0
LINE
  8
0
 10
-8.20053
 20
-210.625
 11
-8.10046
 21
-210.616
  0
LINE
  8
0
 10
-8.10046
 20
-210.616
 11
-8
 21
-210.613
  0
LINE
  8
0
 10
-8
 20
-210.613
 11
-7.89952
 21
-210.616
  0
LINE
  8
0
 10
-7.89952
 20
-210.616
 11
-7.79945
 21
-210.625
  0
LINE
  8
0
 10
-7.79945
 20
-210.625
 11
-7.70018
 21
-210.641
  0
LINE
  8
0
 10
-7.70018
 20
-210.641
 11
-7.60208
 21
-210.663
  0
LINE
  8
0
 10
-7.60208
 20
-210.663
 11
-7.50557
 21
-210.691
  0
LINE
  8
0
 10
-7.50557
 20
-210.691
 11
-7.411
 21
-210.725
  0
LINE
  8
0
 10
-7.411
 20
-210.725
 11
-7.31874
 21
-210.765
  0
LINE
  8
0
 10
-7.31874
 20
-210.765
 11
-7.22919
 21
-210.81
  0
LINE
  8
0
 10
-7.22919
 20
-210.81
 11
-7.14267
 21
-210.862
  0
LINE
  8
0
 10
-7.14267
 20
-210.862
 11
-7.05954
 21
-210.918
  0
LINE
  8
0
 10
-7.05954
 20
-210.918
 11
-6.98012
 21
-210.98
  0
LINE
  8
0
 10
-6.98012
 20
-210.98
 11
-6.90472
 21
-211.046
  0
LINE
  8
0
 10
-6.90472
 20
-211.046
 11
-6.83365
 21
-211.117
  0
LINE
  8
0
 10
-6.83365
 20
-211.117
 11
-6.76717
 21
-211.193
  0
LINE
  8
0
 10
-6.76717
 20
-211.193
 11
-6.70557
 21
-211.272
  0
LINE
  8
0
 10
-6.70557
 20
-211.272
 11
-6.64906
 21
-211.355
  0
LINE
  8
0
 10
-6.64906
 20
-211.355
 11
-6.5979
 21
-211.442
  0
LINE
  8
0
 10
-6.5979
 20
-211.442
 11
-6.55228
 21
-211.531
  0
LINE
  8
0
 10
-6.55228
 20
-211.531
 11
-6.51234
 21
-211.624
  0
LINE
  8
0
 10
-6.51234
 20
-211.624
 11
-6.4783
 21
-211.718
  0
LINE
  8
0
 10
-6.4783
 20
-211.718
 11
-6.45026
 21
-211.815
  0
LINE
  8
0
 10
-6.45026
 20
-211.815
 11
-6.42833
 21
-211.913
  0
LINE
  8
0
 10
-6.42833
 20
-211.913
 11
-6.41261
 21
-212.012
  0
LINE
  8
0
 10
-6.41261
 20
-212.012
 11
-6.40315
 21
-212.112
  0
LINE
  8
0
 10
-6.40315
 20
-212.112
 11
-6.39999
 21
-212.212
  0
LINE
  8
0
 10
-6.39999
 20
-212.212
 11
-6.40315
 21
-212.313
  0
LINE
  8
0
 10
-6.40315
 20
-212.313
 11
-6.41261
 21
-212.413
  0
LINE
  8
0
 10
-6.41261
 20
-212.413
 11
-6.42833
 21
-212.512
  0
LINE
  8
0
 10
-6.42833
 20
-212.512
 11
-6.45026
 21
-212.61
  0
LINE
  8
0
 10
-6.45026
 20
-212.61
 11
-6.4783
 21
-212.707
  0
LINE
  8
0
 10
-6.4783
 20
-212.707
 11
-6.51234
 21
-212.801
  0
LINE
  8
0
 10
-6.51234
 20
-212.801
 11
-6.55228
 21
-212.894
  0
LINE
  8
0
 10
-6.55228
 20
-212.894
 11
-6.5979
 21
-212.983
  0
LINE
  8
0
 10
-6.5979
 20
-212.983
 11
-6.64906
 21
-213.07
  0
LINE
  8
0
 10
-6.64906
 20
-213.07
 11
-6.70557
 21
-213.153
  0
LINE
  8
0
 10
-6.70557
 20
-213.153
 11
-6.76717
 21
-213.232
  0
LINE
  8
0
 10
-6.76717
 20
-213.232
 11
-6.83365
 21
-213.308
  0
LINE
  8
0
 10
-6.83365
 20
-213.308
 11
-6.90472
 21
-213.379
  0
LINE
  8
0
 10
-6.90472
 20
-213.379
 11
-6.98012
 21
-213.445
  0
LINE
  8
0
 10
-6.98012
 20
-213.445
 11
-7.05954
 21
-213.507
  0
LINE
  8
0
 10
-7.05954
 20
-213.507
 11
-7.14267
 21
-213.563
  0
LINE
  8
0
 10
-7.14267
 20
-213.563
 11
-7.22919
 21
-213.615
  0
LINE
  8
0
 10
-7.22919
 20
-213.615
 11
-7.31874
 21
-213.66
  0
LINE
  8
0
 10
-7.31874
 20
-213.66
 11
-7.411
 21
-213.7
  0
LINE
  8
0
 10
-7.411
 20
-213.7
 11
-7.50557
 21
-213.734
  0
LINE
  8
0
 10
-7.50557
 20
-213.734
 11
-7.60208
 21
-213.762
  0
LINE
  8
0
 10
-7.60208
 20
-213.762
 11
-7.70018
 21
-213.784
  0
LINE
  8
0
 10
-7.70018
 20
-213.784
 11
-7.79945
 21
-213.8
  0
LINE
  8
0
 10
-7.79945
 20
-213.8
 11
-7.89952
 21
-213.809
  0
LINE
  8
0
 10
-7.89952
 20
-213.809
 11
-8
 21
-213.812
  0
LINE
  8
0
 10
-8
 20
-213.812
 11
-8.10046
 21
-213.809
  0
LINE
  8
0
 10
90.2583
 20
-214.959
 11
90.1582
 21
-214.95
  0
LINE
  8
0
 10
90.1582
 20
-214.95
 11
90.0589
 21
-214.934
  0
LINE
  8
0
 10
90.0589
 20
-214.934
 11
89.9608
 21
-214.912
  0
LINE
  8
0
 10
89.9608
 20
-214.912
 11
89.8643
 21
-214.884
  0
LINE
  8
0
 10
89.8643
 20
-214.884
 11
89.7697
 21
-214.85
  0
LINE
  8
0
 10
89.7697
 20
-214.85
 11
89.6775
 21
-214.81
  0
LINE
  8
0
 10
89.6775
 20
-214.81
 11
89.5879
 21
-214.765
  0
LINE
  8
0
 10
89.5879
 20
-214.765
 11
89.5014
 21
-214.713
  0
LINE
  8
0
 10
89.5014
 20
-214.713
 11
89.4183
 21
-214.657
  0
LINE
  8
0
 10
89.4183
 20
-214.657
 11
89.3389
 21
-214.595
  0
LINE
  8
0
 10
89.3389
 20
-214.595
 11
89.2635
 21
-214.529
  0
LINE
  8
0
 10
89.2635
 20
-214.529
 11
89.1924
 21
-214.458
  0
LINE
  8
0
 10
89.1924
 20
-214.458
 11
89.1259
 21
-214.382
  0
LINE
  8
0
 10
89.1259
 20
-214.382
 11
89.0643
 21
-214.303
  0
LINE
  8
0
 10
89.0643
 20
-214.303
 11
89.0078
 21
-214.22
  0
LINE
  8
0
 10
89.0078
 20
-214.22
 11
88.9566
 21
-214.133
  0
LINE
  8
0
 10
88.9566
 20
-214.133
 11
88.911
 21
-214.044
  0
LINE
  8
0
 10
88.911
 20
-214.044
 11
88.8711
 21
-213.951
  0
LINE
  8
0
 10
88.8711
 20
-213.951
 11
88.8371
 21
-213.857
  0
LINE
  8
0
 10
88.8371
 20
-213.857
 11
88.809
 21
-213.76
  0
LINE
  8
0
 10
88.809
 20
-213.76
 11
88.7871
 21
-213.662
  0
LINE
  8
0
 10
88.7871
 20
-213.662
 11
88.7714
 21
-213.563
  0
LINE
  8
0
 10
88.7714
 20
-213.563
 11
88.7619
 21
-213.463
  0
LINE
  8
0
 10
88.7619
 20
-213.463
 11
88.7587
 21
-213.362
  0
LINE
  8
0
 10
88.7587
 20
-213.362
 11
88.7619
 21
-213.262
  0
LINE
  8
0
 10
88.7619
 20
-213.262
 11
88.7714
 21
-213.162
  0
LINE
  8
0
 10
88.7714
 20
-213.162
 11
88.7871
 21
-213.063
  0
LINE
  8
0
 10
88.7871
 20
-213.063
 11
88.809
 21
-212.965
  0
LINE
  8
0
 10
88.809
 20
-212.965
 11
88.8371
 21
-212.868
  0
LINE
  8
0
 10
88.8371
 20
-212.868
 11
88.8711
 21
-212.773
  0
LINE
  8
0
 10
88.8711
 20
-212.773
 11
88.911
 21
-212.681
  0
LINE
  8
0
 10
88.911
 20
-212.681
 11
88.9566
 21
-212.592
  0
LINE
  8
0
 10
88.9566
 20
-212.592
 11
89.0078
 21
-212.505
  0
LINE
  8
0
 10
89.0078
 20
-212.505
 11
89.0643
 21
-212.422
  0
LINE
  8
0
 10
89.0643
 20
-212.422
 11
89.1259
 21
-212.343
  0
LINE
  8
0
 10
89.1259
 20
-212.343
 11
89.1924
 21
-212.267
  0
LINE
  8
0
 10
89.1924
 20
-212.267
 11
89.2635
 21
-212.196
  0
LINE
  8
0
 10
89.2635
 20
-212.196
 11
89.3389
 21
-212.13
  0
LINE
  8
0
 10
89.3389
 20
-212.13
 11
89.4183
 21
-212.068
  0
LINE
  8
0
 10
89.4183
 20
-212.068
 11
89.5014
 21
-212.012
  0
LINE
  8
0
 10
89.5014
 20
-212.012
 11
89.5879
 21
-211.96
  0
LINE
  8
0
 10
89.5879
 20
-211.96
 11
89.6775
 21
-211.915
  0
LINE
  8
0
 10
89.6775
 20
-211.915
 11
89.7697
 21
-211.875
  0
LINE
  8
0
 10
89.7697
 20
-211.875
 11
89.8643
 21
-211.841
  0
LINE
  8
0
 10
89.8643
 20
-211.841
 11
89.9608
 21
-211.813
  0
LINE
  8
0
 10
89.9608
 20
-211.813
 11
90.0589
 21
-211.791
  0
LINE
  8
0
 10
90.0589
 20
-211.791
 11
90.1582
 21
-211.775
  0
LINE
  8
0
 10
90.1582
 20
-211.775
 11
90.2583
 21
-211.766
  0
LINE
  8
0
 10
90.2583
 20
-211.766
 11
90.3587
 21
-211.762
  0
LINE
  8
0
 10
90.3587
 20
-211.762
 11
90.4592
 21
-211.766
  0
LINE
  8
0
 10
90.4592
 20
-211.766
 11
90.5593
 21
-211.775
  0
LINE
  8
0
 10
90.5593
 20
-211.775
 11
90.6586
 21
-211.791
  0
LINE
  8
0
 10
90.6586
 20
-211.791
 11
90.7567
 21
-211.813
  0
LINE
  8
0
 10
90.7567
 20
-211.813
 11
90.8532
 21
-211.841
  0
LINE
  8
0
 10
90.8532
 20
-211.841
 11
90.9477
 21
-211.875
  0
LINE
  8
0
 10
90.9477
 20
-211.875
 11
91.04
 21
-211.915
  0
LINE
  8
0
 10
91.04
 20
-211.915
 11
91.1295
 21
-211.96
  0
LINE
  8
0
 10
91.1295
 20
-211.96
 11
91.2161
 21
-212.012
  0
LINE
  8
0
 10
91.2161
 20
-212.012
 11
91.2992
 21
-212.068
  0
LINE
  8
0
 10
91.2992
 20
-212.068
 11
91.3786
 21
-212.13
  0
LINE
  8
0
 10
91.3786
 20
-212.13
 11
91.454
 21
-212.196
  0
LINE
  8
0
 10
91.454
 20
-212.196
 11
91.5251
 21
-212.267
  0
LINE
  8
0
 10
91.5251
 20
-212.267
 11
91.5916
 21
-212.343
  0
LINE
  8
0
 10
91.5916
 20
-212.343
 11
91.6532
 21
-212.422
  0
LINE
  8
0
 10
91.6532
 20
-212.422
 11
91.7097
 21
-212.505
  0
LINE
  8
0
 10
91.7097
 20
-212.505
 11
91.7608
 21
-212.592
  0
LINE
  8
0
 10
91.7608
 20
-212.592
 11
91.8065
 21
-212.681
  0
LINE
  8
0
 10
91.8065
 20
-212.681
 11
91.8464
 21
-212.773
  0
LINE
  8
0
 10
91.8464
 20
-212.773
 11
91.8804
 21
-212.868
  0
LINE
  8
0
 10
91.8804
 20
-212.868
 11
91.9085
 21
-212.965
  0
LINE
  8
0
 10
91.9085
 20
-212.965
 11
91.9304
 21
-213.063
  0
LINE
  8
0
 10
91.9304
 20
-213.063
 11
91.9461
 21
-213.162
  0
LINE
  8
0
 10
91.9461
 20
-213.162
 11
91.9556
 21
-213.262
  0
LINE
  8
0
 10
91.9556
 20
-213.262
 11
91.9587
 21
-213.362
  0
LINE
  8
0
 10
91.9587
 20
-213.362
 11
91.9556
 21
-213.463
  0
LINE
  8
0
 10
91.9556
 20
-213.463
 11
91.9461
 21
-213.563
  0
LINE
  8
0
 10
91.9461
 20
-213.563
 11
91.9304
 21
-213.662
  0
LINE
  8
0
 10
91.9304
 20
-213.662
 11
91.9085
 21
-213.76
  0
LINE
  8
0
 10
91.9085
 20
-213.76
 11
91.8804
 21
-213.857
  0
LINE
  8
0
 10
91.8804
 20
-213.857
 11
91.8464
 21
-213.951
  0
LINE
  8
0
 10
91.8464
 20
-213.951
 11
91.8065
 21
-214.044
  0
LINE
  8
0
 10
91.8065
 20
-214.044
 11
91.7608
 21
-214.133
  0
LINE
  8
0
 10
91.7608
 20
-214.133
 11
91.7097
 21
-214.22
  0
LINE
  8
0
 10
91.7097
 20
-214.22
 11
91.6532
 21
-214.303
  0
LINE
  8
0
 10
91.6532
 20
-214.303
 11
91.5916
 21
-214.382
  0
LINE
  8
0
 10
91.5916
 20
-214.382
 11
91.5251
 21
-214.458
  0
LINE
  8
0
 10
91.5251
 20
-214.458
 11
91.454
 21
-214.529
  0
LINE
  8
0
 10
91.454
 20
-214.529
 11
91.3786
 21
-214.595
  0
LINE
  8
0
 10
91.3786
 20
-214.595
 11
91.2992
 21
-214.657
  0
LINE
  8
0
 10
91.2992
 20
-214.657
 11
91.2161
 21
-214.713
  0
LINE
  8
0
 10
91.2161
 20
-214.713
 11
91.1295
 21
-214.765
  0
LINE
  8
0
 10
91.1295
 20
-214.765
 11
91.04
 21
-214.81
  0
LINE
  8
0
 10
91.04
 20
-214.81
 11
90.9477
 21
-214.85
  0
LINE
  8
0
 10
90.9477
 20
-214.85
 11
90.8532
 21
-214.884
  0
LINE
  8
0
 10
90.8532
 20
-214.884
 11
90.7567
 21
-214.912
  0
LINE
  8
0
 10
90.7567
 20
-214.912
 11
90.6586
 21
-214.934
  0
LINE
  8
0
 10
90.6586
 20
-214.934
 11
90.5593
 21
-214.95
  0
LINE
  8
0
 10
90.5593
 20
-214.95
 11
90.4592
 21
-214.959
  0
LINE
  8
0
 10
90.4592
 20
-214.959
 11
90.3587
 21
-214.962
  0
LINE
  8
0
 10
90.3587
 20
-214.962
 11
90.2583
 21
-214.959
  0
LINE
  8
0
 10
62.2583
 20
-214.959
 11
62.1582
 21
-214.95
  0
LINE
  8
0
 10
62.1582
 20
-214.95
 11
62.0589
 21
-214.934
  0
LINE
  8
0
 10
62.0589
 20
-214.934
 11
61.9608
 21
-214.912
  0
LINE
  8
0
 10
61.9608
 20
-214.912
 11
61.8643
 21
-214.884
  0
LINE
  8
0
 10
61.8643
 20
-214.884
 11
61.7698
 21
-214.85
  0
LINE
  8
0
 10
61.7698
 20
-214.85
 11
61.6775
 21
-214.81
  0
LINE
  8
0
 10
61.6775
 20
-214.81
 11
61.588
 21
-214.765
  0
LINE
  8
0
 10
61.588
 20
-214.765
 11
61.5014
 21
-214.713
  0
LINE
  8
0
 10
61.5014
 20
-214.713
 11
61.4183
 21
-214.657
  0
LINE
  8
0
 10
61.4183
 20
-214.657
 11
61.3389
 21
-214.595
  0
LINE
  8
0
 10
61.3389
 20
-214.595
 11
61.2635
 21
-214.529
  0
LINE
  8
0
 10
61.2635
 20
-214.529
 11
61.1924
 21
-214.458
  0
LINE
  8
0
 10
61.1924
 20
-214.458
 11
61.1259
 21
-214.382
  0
LINE
  8
0
 10
61.1259
 20
-214.382
 11
61.0643
 21
-214.303
  0
LINE
  8
0
 10
61.0643
 20
-214.303
 11
61.0078
 21
-214.22
  0
LINE
  8
0
 10
61.0078
 20
-214.22
 11
60.9567
 21
-214.133
  0
LINE
  8
0
 10
60.9567
 20
-214.133
 11
60.911
 21
-214.044
  0
LINE
  8
0
 10
60.911
 20
-214.044
 11
60.8711
 21
-213.951
  0
LINE
  8
0
 10
60.8711
 20
-213.951
 11
60.8371
 21
-213.857
  0
LINE
  8
0
 10
60.8371
 20
-213.857
 11
60.809
 21
-213.76
  0
LINE
  8
0
 10
60.809
 20
-213.76
 11
60.7871
 21
-213.662
  0
LINE
  8
0
 10
60.7871
 20
-213.662
 11
60.7714
 21
-213.563
  0
LINE
  8
0
 10
60.7714
 20
-213.563
 11
60.7619
 21
-213.463
  0
LINE
  8
0
 10
60.7619
 20
-213.463
 11
60.7588
 21
-213.362
  0
LINE
  8
0
 10
60.7588
 20
-213.362
 11
60.7619
 21
-213.262
  0
LINE
  8
0
 10
60.7619
 20
-213.262
 11
60.7714
 21
-213.162
  0
LINE
  8
0
 10
60.7714
 20
-213.162
 11
60.7871
 21
-213.063
  0
LINE
  8
0
 10
60.7871
 20
-213.063
 11
60.809
 21
-212.965
  0
LINE
  8
0
 10
60.809
 20
-212.965
 11
60.8371
 21
-212.868
  0
LINE
  8
0
 10
60.8371
 20
-212.868
 11
60.8711
 21
-212.773
  0
LINE
  8
0
 10
60.8711
 20
-212.773
 11
60.911
 21
-212.681
  0
LINE
  8
0
 10
60.911
 20
-212.681
 11
60.9567
 21
-212.592
  0
LINE
  8
0
 10
60.9567
 20
-212.592
 11
61.0078
 21
-212.505
  0
LINE
  8
0
 10
61.0078
 20
-212.505
 11
61.0643
 21
-212.422
  0
LINE
  8
0
 10
61.0643
 20
-212.422
 11
61.1259
 21
-212.343
  0
LINE
  8
0
 10
61.1259
 20
-212.343
 11
61.1924
 21
-212.267
  0
LINE
  8
0
 10
61.1924
 20
-212.267
 11
61.2635
 21
-212.196
  0
LINE
  8
0
 10
61.2635
 20
-212.196
 11
61.3389
 21
-212.13
  0
LINE
  8
0
 10
61.3389
 20
-212.13
 11
61.4183
 21
-212.068
  0
LINE
  8
0
 10
61.4183
 20
-212.068
 11
61.5014
 21
-212.012
  0
LINE
  8
0
 10
61.5014
 20
-212.012
 11
61.588
 21
-211.96
  0
LINE
  8
0
 10
61.588
 20
-211.96
 11
61.6775
 21
-211.915
  0
LINE
  8
0
 10
61.6775
 20
-211.915
 11
61.7698
 21
-211.875
  0
LINE
  8
0
 10
61.7698
 20
-211.875
 11
61.8643
 21
-211.841
  0
LINE
  8
0
 10
61.8643
 20
-211.841
 11
61.9608
 21
-211.813
  0
LINE
  8
0
 10
61.9608
 20
-211.813
 11
62.0589
 21
-211.791
  0
LINE
  8
0
 10
62.0589
 20
-211.791
 11
62.1582
 21
-211.775
  0
LINE
  8
0
 10
62.1582
 20
-211.775
 11
62.2583
 21
-211.766
  0
LINE
  8
0
 10
62.2583
 20
-211.766
 11
62.3587
 21
-211.762
  0
LINE
  8
0
 10
62.3587
 20
-211.762
 11
62.4592
 21
-211.766
  0
LINE
  8
0
 10
62.4592
 20
-211.766
 11
62.5593
 21
-211.775
  0
LINE
  8
0
 10
62.5593
 20
-211.775
 11
62.6586
 21
-211.791
  0
LINE
  8
0
 10
62.6586
 20
-211.791
 11
62.7567
 21
-211.813
  0
LINE
  8
0
 10
62.7567
 20
-211.813
 11
62.8532
 21
-211.841
  0
LINE
  8
0
 10
62.8532
 20
-211.841
 11
62.9478
 21
-211.875
  0
LINE
  8
0
 10
62.9478
 20
-211.875
 11
63.04
 21
-211.915
  0
LINE
  8
0
 10
63.04
 20
-211.915
 11
63.1296
 21
-211.96
  0
LINE
  8
0
 10
63.1296
 20
-211.96
 11
63.2161
 21
-212.012
  0
LINE
  8
0
 10
63.2161
 20
-212.012
 11
63.2992
 21
-212.068
  0
LINE
  8
0
 10
63.2992
 20
-212.068
 11
63.3786
 21
-212.13
  0
LINE
  8
0
 10
63.3786
 20
-212.13
 11
63.454
 21
-212.196
  0
LINE
  8
0
 10
63.454
 20
-212.196
 11
63.5251
 21
-212.267
  0
LINE
  8
0
 10
63.5251
 20
-212.267
 11
63.5916
 21
-212.343
  0
LINE
  8
0
 10
63.5916
 20
-212.343
 11
63.6532
 21
-212.422
  0
LINE
  8
0
 10
63.6532
 20
-212.422
 11
63.7097
 21
-212.505
  0
LINE
  8
0
 10
63.7097
 20
-212.505
 11
63.7608
 21
-212.592
  0
LINE
  8
0
 10
63.7608
 20
-212.592
 11
63.8065
 21
-212.681
  0
LINE
  8
0
 10
63.8065
 20
-212.681
 11
63.8464
 21
-212.773
  0
LINE
  8
0
 10
63.8464
 20
-212.773
 11
63.8804
 21
-212.868
  0
LINE
  8
0
 10
63.8804
 20
-212.868
 11
63.9085
 21
-212.965
  0
LINE
  8
0
 10
63.9085
 20
-212.965
 11
63.9304
 21
-213.063
  0
LINE
  8
0
 10
63.9304
 20
-213.063
 11
63.9461
 21
-213.162
  0
LINE
  8
0
 10
63.9461
 20
-213.162
 11
63.9556
 21
-213.262
  0
LINE
  8
0
 10
63.9556
 20
-213.262
 11
63.9588
 21
-213.362
  0
LINE
  8
0
 10
63.9588
 20
-213.362
 11
63.9556
 21
-213.463
  0
LINE
  8
0
 10
63.9556
 20
-213.463
 11
63.9461
 21
-213.563
  0
LINE
  8
0
 10
63.9461
 20
-213.563
 11
63.9304
 21
-213.662
  0
LINE
  8
0
 10
63.9304
 20
-213.662
 11
63.9085
 21
-213.76
  0
LINE
  8
0
 10
63.9085
 20
-213.76
 11
63.8804
 21
-213.857
  0
LINE
  8
0
 10
63.8804
 20
-213.857
 11
63.8464
 21
-213.951
  0
LINE
  8
0
 10
63.8464
 20
-213.951
 11
63.8065
 21
-214.044
  0
LINE
  8
0
 10
63.8065
 20
-214.044
 11
63.7608
 21
-214.133
  0
LINE
  8
0
 10
63.7608
 20
-214.133
 11
63.7097
 21
-214.22
  0
LINE
  8
0
 10
63.7097
 20
-214.22
 11
63.6532
 21
-214.303
  0
LINE
  8
0
 10
63.6532
 20
-214.303
 11
63.5916
 21
-214.382
  0
LINE
  8
0
 10
63.5916
 20
-214.382
 11
63.5251
 21
-214.458
  0
LINE
  8
0
 10
63.5251
 20
-214.458
 11
63.454
 21
-214.529
  0
LINE
  8
0
 10
63.454
 20
-214.529
 11
63.3786
 21
-214.595
  0
LINE
  8
0
 10
63.3786
 20
-214.595
 11
63.2992
 21
-214.657
  0
LINE
  8
0
 10
63.2992
 20
-214.657
 11
63.2161
 21
-214.713
  0
LINE
  8
0
 10
63.2161
 20
-214.713
 11
63.1296
 21
-214.765
  0
LINE
  8
0
 10
63.1296
 20
-214.765
 11
63.04
 21
-214.81
  0
LINE
  8
0
 10
63.04
 20
-214.81
 11
62.9478
 21
-214.85
  0
LINE
  8
0
 10
62.9478
 20
-214.85
 11
62.8532
 21
-214.884
  0
LINE
  8
0
 10
62.8532
 20
-214.884
 11
62.7567
 21
-214.912
  0
LINE
  8
0
 10
62.7567
 20
-214.912
 11
62.6586
 21
-214.934
  0
LINE
  8
0
 10
62.6586
 20
-214.934
 11
62.5593
 21
-214.95
  0
LINE
  8
0
 10
62.5593
 20
-214.95
 11
62.4592
 21
-214.959
  0
LINE
  8
0
 10
62.4592
 20
-214.959
 11
62.3587
 21
-214.962
  0
LINE
  8
0
 10
62.3587
 20
-214.962
 11
62.2583
 21
-214.959
  0
LINE
  8
0
 10
-0.100464
 20
-221.809
 11
-0.200531
 21
-221.8
  0
LINE
  8
0
 10
-0.200531
 20
-221.8
 11
-0.299805
 21
-221.784
  0
LINE
  8
0
 10
-0.299805
 20
-221.784
 11
-0.397903
 21
-221.762
  0
LINE
  8
0
 10
-0.397903
 20
-221.762
 11
-0.494415
 21
-221.734
  0
LINE
  8
0
 10
-0.494415
 20
-221.734
 11
-0.588989
 21
-221.7
  0
LINE
  8
0
 10
-0.588989
 20
-221.7
 11
-0.681244
 21
-221.66
  0
LINE
  8
0
 10
-0.681244
 20
-221.66
 11
-0.770798
 21
-221.615
  0
LINE
  8
0
 10
-0.770798
 20
-221.615
 11
-0.857315
 21
-221.563
  0
LINE
  8
0
 10
-0.857315
 20
-221.563
 11
-0.940445
 21
-221.507
  0
LINE
  8
0
 10
-0.940445
 20
-221.507
 11
-1.01987
 21
-221.445
  0
LINE
  8
0
 10
-1.01987
 20
-221.445
 11
-1.09526
 21
-221.379
  0
LINE
  8
0
 10
-1.09526
 20
-221.379
 11
-1.16634
 21
-221.308
  0
LINE
  8
0
 10
-1.16634
 20
-221.308
 11
-1.23282
 21
-221.232
  0
LINE
  8
0
 10
-1.23282
 20
-221.232
 11
-1.29442
 21
-221.153
  0
LINE
  8
0
 10
-1.29442
 20
-221.153
 11
-1.35092
 21
-221.07
  0
LINE
  8
0
 10
-1.35092
 20
-221.07
 11
-1.40208
 21
-220.983
  0
LINE
  8
0
 10
-1.40208
 20
-220.983
 11
-1.44771
 21
-220.894
  0
LINE
  8
0
 10
-1.44771
 20
-220.894
 11
-1.48764
 21
-220.801
  0
LINE
  8
0
 10
-1.48764
 20
-220.801
 11
-1.52168
 21
-220.707
  0
LINE
  8
0
 10
-1.52168
 20
-220.707
 11
-1.54973
 21
-220.61
  0
LINE
  8
0
 10
-1.54973
 20
-220.61
 11
-1.57166
 21
-220.512
  0
LINE
  8
0
 10
-1.57166
 20
-220.512
 11
-1.58737
 21
-220.413
  0
LINE
  8
0
 10
-1.58737
 20
-220.413
 11
-1.59683
 21
-220.313
  0
LINE
  8
0
 10
-1.59683
 20
-220.313
 11
-1.59999
 21
-220.212
  0
LINE
  8
0
 10
-1.59999
 20
-220.212
 11
-1.59683
 21
-220.112
  0
LINE
  8
0
 10
-1.59683
 20
-220.112
 11
-1.58737
 21
-220.012
  0
LINE
  8
0
 10
-1.58737
 20
-220.012
 11
-1.57166
 21
-219.913
  0
LINE
  8
0
 10
-1.57166
 20
-219.913
 11
-1.54973
 21
-219.815
  0
LINE
  8
0
 10
-1.54973
 20
-219.815
 11
-1.52168
 21
-219.718
  0
LINE
  8
0
 10
-1.52168
 20
-219.718
 11
-1.48764
 21
-219.623
  0
LINE
  8
0
 10
-1.48764
 20
-219.623
 11
-1.44771
 21
-219.531
  0
LINE
  8
0
 10
-1.44771
 20
-219.531
 11
-1.40208
 21
-219.442
  0
LINE
  8
0
 10
-1.40208
 20
-219.442
 11
-1.35092
 21
-219.355
  0
LINE
  8
0
 10
-1.35092
 20
-219.355
 11
-1.29442
 21
-219.272
  0
LINE
  8
0
 10
-1.29442
 20
-219.272
 11
-1.23282
 21
-219.193
  0
LINE
  8
0
 10
-1.23282
 20
-219.193
 11
-1.16634
 21
-219.117
  0
LINE
  8
0
 10
-1.16634
 20
-219.117
 11
-1.09526
 21
-219.046
  0
LINE
  8
0
 10
-1.09526
 20
-219.046
 11
-1.01987
 21
-218.98
  0
LINE
  8
0
 10
-1.01987
 20
-218.98
 11
-0.940445
 21
-218.918
  0
LINE
  8
0
 10
-0.940445
 20
-218.918
 11
-0.857315
 21
-218.862
  0
LINE
  8
0
 10
-0.857315
 20
-218.862
 11
-0.770798
 21
-218.81
  0
LINE
  8
0
 10
-0.770798
 20
-218.81
 11
-0.681244
 21
-218.765
  0
LINE
  8
0
 10
-0.681244
 20
-218.765
 11
-0.588989
 21
-218.725
  0
LINE
  8
0
 10
-0.588989
 20
-218.725
 11
-0.494415
 21
-218.691
  0
LINE
  8
0
 10
-0.494415
 20
-218.691
 11
-0.397903
 21
-218.663
  0
LINE
  8
0
 10
-0.397903
 20
-218.663
 11
-0.299805
 21
-218.641
  0
LINE
  8
0
 10
-0.299805
 20
-218.641
 11
-0.200531
 21
-218.625
  0
LINE
  8
0
 10
-0.200531
 20
-218.625
 11
-0.100464
 21
-218.616
  0
LINE
  8
0
 10
-0.100464
 20
-218.616
 11
0
 21
-218.612
  0
LINE
  8
0
 10
0
 20
-218.612
 11
0.100464
 21
-218.616
  0
LINE
  8
0
 10
0.100464
 20
-218.616
 11
0.200531
 21
-218.625
  0
LINE
  8
0
 10
0.200531
 20
-218.625
 11
0.299805
 21
-218.641
  0
LINE
  8
0
 10
0.299805
 20
-218.641
 11
0.397903
 21
-218.663
  0
LINE
  8
0
 10
0.397903
 20
-218.663
 11
0.494415
 21
-218.691
  0
LINE
  8
0
 10
0.494415
 20
-218.691
 11
0.588989
 21
-218.725
  0
LINE
  8
0
 10
0.588989
 20
-218.725
 11
0.681244
 21
-218.765
  0
LINE
  8
0
 10
0.681244
 20
-218.765
 11
0.770798
 21
-218.81
  0
LINE
  8
0
 10
0.770798
 20
-218.81
 11
0.857315
 21
-218.862
  0
LINE
  8
0
 10
0.857315
 20
-218.862
 11
0.940445
 21
-218.918
  0
LINE
  8
0
 10
0.940445
 20
-218.918
 11
1.01987
 21
-218.98
  0
LINE
  8
0
 10
1.01987
 20
-218.98
 11
1.09526
 21
-219.046
  0
LINE
  8
0
 10
1.09526
 20
-219.046
 11
1.16634
 21
-219.117
  0
LINE
  8
0
 10
1.16634
 20
-219.117
 11
1.23282
 21
-219.193
  0
LINE
  8
0
 10
1.23282
 20
-219.193
 11
1.29442
 21
-219.272
  0
LINE
  8
0
 10
1.29442
 20
-219.272
 11
1.35092
 21
-219.355
  0
LINE
  8
0
 10
1.35092
 20
-219.355
 11
1.40208
 21
-219.442
  0
LINE
  8
0
 10
1.40208
 20
-219.442
 11
1.44771
 21
-219.531
  0
LINE
  8
0
 10
1.44771
 20
-219.531
 11
1.48764
 21
-219.623
  0
LINE
  8
0
 10
1.48764
 20
-219.623
 11
1.52168
 21
-219.718
  0
LINE
  8
0
 10
1.52168
 20
-219.718
 11
1.54973
 21
-219.815
  0
LINE
  8
0
 10
1.54973
 20
-219.815
 11
1.57166
 21
-219.913
  0
LINE
  8
0
 10
1.57166
 20
-219.913
 11
1.58737
 21
-220.012
  0
LINE
  8
0
 10
1.58737
 20
-220.012
 11
1.59683
 21
-220.112
  0
LINE
  8
0
 10
1.59683
 20
-220.112
 11
1.59999
 21
-220.212
  0
LINE
  8
0
 10
1.59999
 20
-220.212
 11
1.59683
 21
-220.313
  0
LINE
  8
0
 10
1.59683
 20
-220.313
 11
1.58737
 21
-220.413
  0
LINE
  8
0
 10
1.58737
 20
-220.413
 11
1.57166
 21
-220.512
  0
LINE
  8
0
 10
1.57166
 20
-220.512
 11
1.54973
 21
-220.61
  0
LINE
  8
0
 10
1.54973
 20
-220.61
 11
1.52168
 21
-220.707
  0
LINE
  8
0
 10
1.52168
 20
-220.707
 11
1.48764
 21
-220.801
  0
LINE
  8
0
 10
1.48764
 20
-220.801
 11
1.44771
 21
-220.894
  0
LINE
  8
0
 10
1.44771
 20
-220.894
 11
1.40208
 21
-220.983
  0
LINE
  8
0
 10
1.40208
 20
-220.983
 11
1.35092
 21
-221.07
  0
LINE
  8
0
 10
1.35092
 20
-221.07
 11
1.29442
 21
-221.153
  0
LINE
  8
0
 10
1.29442
 20
-221.153
 11
1.23282
 21
-221.232
  0
LINE
  8
0
 10
1.23282
 20
-221.232
 11
1.16634
 21
-221.308
  0
LINE
  8
0
 10
1.16634
 20
-221.308
 11
1.09526
 21
-221.379
  0
LINE
  8
0
 10
1.09526
 20
-221.379
 11
1.01987
 21
-221.445
  0
LINE
  8
0
 10
1.01987
 20
-221.445
 11
0.940445
 21
-221.507
  0
LINE
  8
0
 10
0.940445
 20
-221.507
 11
0.857315
 21
-221.563
  0
LINE
  8
0
 10
0.857315
 20
-221.563
 11
0.770798
 21
-221.615
  0
LINE
  8
0
 10
0.770798
 20
-221.615
 11
0.681244
 21
-221.66
  0
LINE
  8
0
 10
0.681244
 20
-221.66
 11
0.588989
 21
-221.7
  0
LINE
  8
0
 10
0.588989
 20
-221.7
 11
0.494415
 21
-221.734
  0
LINE
  8
0
 10
0.494415
 20
-221.734
 11
0.397903
 21
-221.762
  0
LINE
  8
0
 10
0.397903
 20
-221.762
 11
0.299805
 21
-221.784
  0
LINE
  8
0
 10
0.299805
 20
-221.784
 11
0.200531
 21
-221.8
  0
LINE
  8
0
 10
0.200531
 20
-221.8
 11
0.100464
 21
-221.809
  0
LINE
  8
0
 10
0.100464
 20
-221.809
 11
0
 21
-221.812
  0
LINE
  8
0
 10
0
 20
-221.812
 11
-0.100464
 21
-221.809
  0
ENDSEC
  0
SECTION
  2
OBJECTS
  0
DICTIONARY
  0
ENDSEC
  0
EOF
